<svg width="1728" height="1093" viewBox="0 0 1728 1093" fill="none" xmlns="http://www.w3.org/2000/svg">
<path d="M215.958 98.9843C240.483 56.4992 285.809 30.3273 334.86 30.3273H1166.88L942.388 419.214H494.557C485.607 419.214 477.337 423.989 472.862 431.741L271.508 780.532C261.866 797.235 273.919 818.114 293.204 818.114H712.111L506.42 1174.43C494.784 1194.58 473.279 1207 450.006 1207H116.714C67.6623 1207 22.337 1180.83 -2.18871 1138.34L-153.481 876.266C-178.006 833.781 -178.006 781.437 -153.481 738.952L215.958 98.9843ZM1588.17 994.016C1563.64 1036.5 1518.32 1062.67 1469.26 1062.67H637.241L861.737 673.786H1309.57C1318.52 673.786 1326.79 669.011 1331.26 661.259L1532.62 312.468C1542.26 295.765 1530.21 274.886 1510.92 274.886H1092.01L1297.7 -81.425C1309.34 -101.583 1330.85 -114 1354.12 -114H1687.41C1736.46 -114 1781.79 -87.8282 1806.31 -45.3432L1957.61 216.735C1982.13 259.219 1982.13 311.563 1957.61 354.048L1588.17 994.016Z" stroke="#232F3B" stroke-opacity="0.63" stroke-width="2"/>
</svg>
