<svg width="448" height="9" viewBox="0 0 448 9" fill="none" xmlns="http://www.w3.org/2000/svg">
<path d="M440.709 6.69349L440.904 5.63903H442.439L442.313 6.31526L442.623 6.69349H444.984L445.442 6.3038L445.683 4.97427L445.374 4.59604H442.428L441.328 3.26651L441.694 1.14615L443.047 0H446.657L447.769 1.32953L447.586 2.39544H446.05L446.164 1.70776L445.855 1.32953H443.586L443.139 1.70776L442.932 2.88829L443.242 3.26651H446.187L447.288 4.59604L446.875 6.87687L445.534 8.02302H441.809L440.709 6.69349Z" fill="white"/>
<path d="M434.193 0H439.981L439.752 1.31807H435.523L435.168 3.34674H439.065L438.835 4.64189H434.938L434.572 6.70495H438.801L438.572 8.02302H432.784L434.193 0Z" fill="white"/>
<path d="M430.166 0H431.725L430.304 8.02302H428.745L430.166 0Z" fill="white"/>
<path d="M420.398 6.6018L421.349 1.22637L422.782 0H426.69L427.848 1.38684L427.642 2.52152H426.083L426.197 1.86822L425.762 1.32953H423.47L422.782 1.91406L422.037 6.10895L422.518 6.69349H424.811L425.441 6.1548L425.567 5.5015H427.126L426.885 6.81956L425.475 8.02302H421.567L420.398 6.6018Z" fill="white"/>
<path d="M412.773 0H414.171L416.796 5.44419H416.819L417.77 0H419.272L417.85 8.02302H416.452L413.85 2.59029H413.827L412.865 8.02302H411.363L412.773 0Z" fill="white"/>
<path d="M404.905 0H410.693L410.464 1.31807H406.235L405.88 3.34674H409.776L409.547 4.64189H405.65L405.284 6.70495H409.513L409.284 8.02302H403.496L404.905 0Z" fill="white"/>
<path d="M394.959 6.6018L395.922 1.22637L397.355 0H401.321L402.478 1.38684L402.272 2.52152H400.713L400.828 1.86822L400.392 1.32953H398.043L397.355 1.91406L396.598 6.10895L397.08 6.69349H399.475L400.129 6.14334L400.346 4.88258H398.639L398.868 3.55305H402.088L401.515 6.84249L400.106 8.02302H396.129L394.959 6.6018Z" fill="white"/>
<path d="M390.319 0H391.741L393.265 8.02302H391.683L391.362 6.24649H388.543L387.557 8.02302H385.976L390.319 0ZM391.213 4.96281L390.698 1.91406H390.675L389.093 4.96281H391.213Z" fill="white"/>
<path d="M374.099 6.6018L375.061 1.22637L376.494 0H380.46L381.617 1.38684L381.411 2.52152H379.852L379.967 1.86822L379.531 1.32953H377.182L376.494 1.91406L375.738 6.10895L376.219 6.69349H378.614L379.268 6.14334L379.486 4.88258H377.778L378.007 3.55305H381.228L380.655 6.84249L379.245 8.02302H375.268L374.099 6.6018Z" fill="white"/>
<path d="M366.474 0H367.872L370.497 5.44419H370.52L371.471 0H372.972L371.551 8.02302H370.153L367.551 2.59029H367.528L366.565 8.02302H365.064L366.474 0Z" fill="white"/>
<path d="M362.447 0H364.005L362.584 8.02302H361.025L362.447 0Z" fill="white"/>
<path d="M356.372 1.31807H353.977L354.206 0H360.556L360.315 1.31807H357.931L356.75 8.02302H355.192L356.372 1.31807Z" fill="white"/>
<path d="M346.911 0H352.699L352.47 1.31807H348.241L347.886 3.34674H351.783L351.553 4.64189H347.656L347.29 6.70495H351.519L351.29 8.02302H345.502L346.911 0Z" fill="white"/>
<path d="M338.529 0H340.088L339.503 3.35821H340.615L343.136 0H344.982L341.933 4.00005L343.767 8.02302H342.105L340.58 4.68773H339.262L338.678 8.02302H337.119L338.529 0Z" fill="white"/>
<path d="M335.471 3.75936L334.6 4.50435L335.23 5.36396L334.76 8.02302H333.202L333.614 5.65049L333.11 4.95135H330.565L330.027 8.02302H328.468L329.878 0H334.806L335.895 1.32953L335.471 3.75936ZM330.795 3.66766H333.545L334.015 3.26651L334.29 1.70776L333.958 1.30661H331.207L330.795 3.66766Z" fill="white"/>
<path d="M323.786 0H325.207L326.732 8.02302H325.15L324.829 6.24649H322.01L321.024 8.02302H319.442L323.786 0ZM324.68 4.96281L324.164 1.91406H324.142L322.56 4.96281H324.68Z" fill="white"/>
<path d="M311.456 0H312.809L314.287 5.18058H314.31L317.599 0H319.135L317.726 8.02302H316.224L317.084 3.14044H317.061L314.562 6.89979H313.599L312.43 3.14044H312.407L311.548 8.02302H310.046L311.456 0Z" fill="white"/>
<path d="M304.358 3.75936L303.487 4.50435L304.118 5.36396L303.648 8.02302H302.089L302.502 5.65049L301.997 4.95135H299.453L298.914 8.02302H297.355L298.765 0H303.694L304.782 1.32953L304.358 3.75936ZM299.682 3.66766H302.433L302.903 3.26651L303.178 1.70776L302.845 1.30661H300.095L299.682 3.66766Z" fill="white"/>
<path d="M290.898 0H296.686L296.456 1.31807H292.227L291.872 3.34674H295.769L295.539 4.64189H291.643L291.276 6.70495H295.505L295.276 8.02302H289.488L290.898 0Z" fill="white"/>
<path d="M281.187 6.6018L282.138 1.22637L283.571 0H287.479L288.636 1.38684L288.43 2.52152H286.871L286.986 1.86822L286.55 1.32953H284.258L283.571 1.91406L282.826 6.10895L283.307 6.69349H285.599L286.23 6.1548L286.356 5.5015H287.914L287.674 6.81956L286.264 8.02302H282.356L281.187 6.6018Z" fill="white"/>
<path d="M273.562 0H274.96L277.585 5.44419H277.608L278.559 0H280.06L278.639 8.02302H277.241L274.639 2.59029H274.616L273.653 8.02302H272.152L273.562 0Z" fill="white"/>
<path d="M265.694 0H271.482L271.253 1.31807H267.024L266.668 3.34674H270.565L270.336 4.64189H266.439L266.072 6.70495H270.302L270.072 8.02302H264.284L265.694 0Z" fill="white"/>
<path d="M255.594 6.55595L256.752 0H258.311L257.233 6.10895L257.715 6.69349H259.95L260.637 6.10895L261.715 0H263.273L262.081 6.76226L260.603 8.02302H256.809L255.594 6.55595Z" fill="white"/>
<path d="M249.578 0H251.137L249.956 6.70495H253.956L253.727 8.02302H248.168L249.578 0Z" fill="white"/>
<path d="M242.057 0H247.731L247.502 1.31807H243.387L242.997 3.54159H246.562L246.333 4.85965H242.768L242.206 8.02302H240.648L242.057 0Z" fill="white"/>
<path d="M233.149 0H234.547L237.172 5.44419H237.195L238.146 0H239.648L238.226 8.02302H236.828L234.226 2.59029H234.203L233.241 8.02302H231.739L233.149 0Z" fill="white"/>
<path d="M229.122 0H230.681L229.259 8.02302H227.701L229.122 0Z" fill="white"/>
<path d="M215.079 6.6018L216.041 1.22637L217.474 0H221.44L222.597 1.38684L222.391 2.52152H220.832L220.947 1.86822L220.511 1.32953H218.162L217.474 1.91406L216.718 6.10895L217.199 6.69349H219.594L220.248 6.14334L220.465 4.88258H218.758L218.987 3.55305H222.208L221.635 6.84249L220.225 8.02302H216.248L215.079 6.6018Z" fill="white"/>
<path d="M207.454 0H208.852L211.477 5.44419H211.5L212.451 0H213.952L212.531 8.02302H211.133L208.531 2.59029H208.508L207.545 8.02302H206.044L207.454 0Z" fill="white"/>
<path d="M203.427 0H204.985L203.564 8.02302H202.005L203.427 0Z" fill="white"/>
<path d="M194.561 0H199.593L200.808 1.46707L199.857 6.84249L198.458 8.02302H193.152L194.561 0ZM197.736 6.69349L198.424 6.10895L199.169 1.91406L198.687 1.32953H195.891L194.94 6.69349H197.736Z" fill="white"/>
<path d="M188.47 0H189.891L191.415 8.02302H189.834L189.513 6.24649H186.693L185.708 8.02302H184.126L188.47 0ZM189.364 4.96281L188.848 1.91406H188.825L187.243 4.96281H189.364Z" fill="white"/>
<path d="M178.367 0H184.155L183.926 1.31807H179.697L179.341 3.34674H183.238L183.009 4.64189H179.112L178.745 6.70495H182.975L182.746 8.02302H176.958L178.367 0Z" fill="white"/>
<path d="M171.026 0H172.584L171.404 6.70495H175.404L175.175 8.02302H169.616L171.026 0Z" fill="white"/>
<path d="M164.084 4.42432H168.119L167.889 5.73092H163.855L164.084 4.42432Z" fill="white"/>
<path d="M158.88 4.74504L156.862 0H158.478L159.808 3.28944H159.831L162.329 0H164.129L160.438 4.74504L159.865 8.02302H158.306L158.88 4.74504Z" fill="white"/>
<path d="M154.773 3.75936L153.902 4.50435L154.533 5.36396L154.063 8.02302H152.504L152.916 5.65049L152.412 4.95135H149.868L149.329 8.02302H147.77L149.18 0H154.108L155.197 1.32953L154.773 3.75936ZM150.097 3.66766H152.848L153.318 3.26651L153.593 1.70776L153.26 1.30661H150.51L150.097 3.66766Z" fill="white"/>
<path d="M143.163 1.31807H140.767L140.997 0H147.346L147.106 1.31807H144.722L143.541 8.02302H141.982L143.163 1.31807Z" fill="white"/>
<path d="M132.294 6.69349L132.489 5.63903H134.024L133.898 6.31526L134.208 6.69349H136.569L137.027 6.3038L137.268 4.97427L136.959 4.59604H134.013L132.913 3.26651L133.279 1.14615L134.632 0H138.242L139.354 1.32953L139.171 2.39544H137.635L137.749 1.70776L137.44 1.32953H135.171L134.724 1.70776L134.517 2.88829L134.827 3.26651H137.772L138.873 4.59604L138.46 6.87687L137.119 8.02302H133.394L132.294 6.69349Z" fill="white"/>
<path d="M123.546 6.55595L124.704 0H126.263L125.185 6.10895L125.667 6.69349H127.902L128.589 6.10895L129.667 0H131.226L130.034 6.76226L128.555 8.02302H124.761L123.546 6.55595Z" fill="white"/>
<path d="M115.896 0H120.928L122.143 1.46707L121.191 6.84249L119.793 8.02302H114.486L115.896 0ZM119.071 6.69349L119.759 6.10895L120.504 1.91406L120.022 1.32953H117.226L116.274 6.69349H119.071Z" fill="white"/>
<path d="M106.987 0H108.386L111.01 5.44419H111.033L111.985 0H113.486L112.065 8.02302H110.667L108.065 2.59029H108.042L107.079 8.02302H105.578L106.987 0Z" fill="white"/>
<path d="M102.96 0H104.519L103.098 8.02302H101.539L102.96 0Z" fill="white"/>
<path d="M91.9545 4.74504L89.9373 0H91.5533L92.8828 3.28944H92.9058L95.4044 0H97.2038L93.5132 4.74504L92.9402 8.02302H91.3814L91.9545 4.74504Z" fill="white"/>
<path d="M82.255 0H87.1834L88.2149 1.23784L87.8252 3.39259L87.2866 3.86251L87.9513 4.68773L87.5616 6.89979L86.2436 8.02302H80.8452L82.255 0ZM85.8883 3.35821L86.3696 2.94559L86.5874 1.70776L86.255 1.30661H83.5501L83.1948 3.35821H85.8883ZM85.5673 6.71641L86.1519 6.22357L86.3467 5.10035L85.9456 4.6075H82.977L82.5988 6.71641H85.5673Z" fill="white"/>
<path d="M69.4073 0H74.4389L75.6538 1.46707L74.7025 6.84249L73.3042 8.02302H67.9976L69.4073 0ZM72.5821 6.69349L73.2698 6.10895L74.0148 1.91406L73.5334 1.32953H70.7368L69.7855 6.69349H72.5821Z" fill="white"/>
<path d="M61.5396 0H67.3277L67.0984 1.31807H62.8692L62.5139 3.34674H66.4108L66.1815 4.64189H62.2846L61.9179 6.70495H66.1471L65.9179 8.02302H60.1299L61.5396 0Z" fill="white"/>
<path d="M55.5226 1.31807H53.1272L53.3564 0H59.7061L59.4654 1.31807H57.0814L55.9009 8.02302H54.3421L55.5226 1.31807Z" fill="white"/>
<path d="M44.6533 6.69349L44.8482 5.63903H46.384L46.2579 6.31526L46.5674 6.69349H48.9284L49.3869 6.3038L49.6276 4.97427L49.3181 4.59604H46.3725L45.2722 3.26651L45.639 1.14615L46.9915 0H50.6018L51.7136 1.32953L51.5302 2.39544H49.9944L50.109 1.70776L49.7995 1.32953H47.5301L47.0831 1.70776L46.8768 2.88829L47.1863 3.26651H50.1319L51.2322 4.59604L50.8196 6.87687L49.4786 8.02302H45.7536L44.6533 6.69349Z" fill="white"/>
<path d="M35.906 6.55595L37.0636 0H38.6224L37.545 6.10895L38.0264 6.69349H40.2614L40.949 6.10895L42.0264 0H43.5852L42.3932 6.76226L40.9147 8.02302H37.1209L35.906 6.55595Z" fill="white"/>
<path d="M34.0056 3.75936L33.1346 4.50435L33.7649 5.36396L33.295 8.02302H31.7363L32.1489 5.65049L31.6446 4.95135H29.1001L28.5614 8.02302H27.0027L28.4124 0H33.3409L34.4297 1.32953L34.0056 3.75936ZM29.3294 3.66766H32.0801L32.55 3.26651L32.8251 1.70776L32.4927 1.30661H29.742L29.3294 3.66766Z" fill="white"/>
<path d="M22.3954 1.31807H20L20.2292 0H26.5789L26.3382 1.31807H23.9542L22.7737 8.02302H21.2149L22.3954 1.31807Z" fill="white"/>
<path d="M1.5 0H9.5L8 8H0L1.5 0Z" fill="#C2FF16"/>
</svg>
