<svg xmlns="http://www.w3.org/2000/svg" width="179" height="47" viewBox="0 0 179 47" fill="none">
  <path d="M165.37 19.9099L168.009 6.32788H174.334C175.485 6.32788 176.404 6.52838 177.089 6.92937C177.788 7.33036 178.266 7.88011 178.525 8.57861C178.784 9.26418 178.829 10.0532 178.661 10.9458C178.48 11.9288 178.098 12.7308 177.516 13.3517C176.934 13.9597 176.145 14.4059 175.149 14.6905C174.153 14.9621 172.931 15.098 171.482 15.098H169.755L168.804 19.9099H165.37ZM170.24 12.5756H172.976C173.648 12.5756 174.166 12.4462 174.528 12.1875C174.903 11.9159 175.149 11.489 175.265 10.907C175.382 10.3895 175.311 9.98208 175.052 9.68457C174.793 9.37413 174.347 9.21891 173.713 9.21891H170.88L170.24 12.5756ZM173.868 19.9099L171.734 14.8457L174.974 14.2442L177.574 19.9099H173.868Z" fill="#0F3D46"/>
  <path d="M156.337 20.1038C154.889 20.1038 153.673 19.7805 152.69 19.1337C151.719 18.4869 151.04 17.6009 150.652 16.4755C150.277 15.3501 150.232 14.0696 150.516 12.6337C150.788 11.2755 151.286 10.1178 152.01 9.16063C152.735 8.19049 153.653 7.44672 154.766 6.92931C155.891 6.39896 157.197 6.13379 158.685 6.13379C159.759 6.13379 160.703 6.32135 161.518 6.69647C162.333 7.07159 162.992 7.60194 163.497 8.28751C164.001 8.96014 164.331 9.75565 164.486 10.6741C164.655 11.5795 164.629 12.5755 164.409 13.6621C164.137 15.0074 163.646 16.1651 162.934 17.1352C162.223 18.0924 161.311 18.8297 160.198 19.3471C159.086 19.8516 157.799 20.1038 156.337 20.1038ZM156.784 16.9218C157.586 16.9218 158.265 16.7924 158.821 16.5337C159.39 16.275 159.849 15.8805 160.198 15.3501C160.561 14.8069 160.826 14.1278 160.994 13.3128C161.188 12.3944 161.194 11.6377 161.013 11.0427C160.845 10.4477 160.515 10.0144 160.024 9.74272C159.545 9.45814 158.931 9.31586 158.181 9.31586C157.379 9.31586 156.693 9.44521 156.124 9.70391C155.568 9.96262 155.108 10.3636 154.746 10.9069C154.397 11.4372 154.138 12.1099 153.97 12.9248C153.789 13.8432 153.783 14.5999 153.951 15.1949C154.119 15.7899 154.442 16.2297 154.921 16.5143C155.412 16.786 156.033 16.9218 156.784 16.9218Z" fill="#0F3D46"/>
  <path d="M140.707 19.9099L142.764 9.31592H138.398L138.98 6.32788H151.107L150.525 9.31592H146.179L144.122 19.9099H140.707Z" fill="#0F3D46"/>
  <path d="M123.184 19.9099L130.965 6.32788H134.768L137.426 19.9099H133.856L132.284 9.8398H132.245L127.104 19.9099H123.184ZM127.375 17.5427L127.919 14.8457H134.69L134.147 17.5427H127.375Z" fill="#0F3D46"/>
  <path d="M111.538 19.9099L114.177 6.32788H124.81L124.228 9.27711H117.029L116.564 11.6443H123.005L122.482 14.3413H116.059L115.535 16.9412H122.889L122.307 19.9099H111.538Z" fill="#0F3D46"/>
  <path d="M97.7061 19.9099L100.345 6.32788H106.67C107.821 6.32788 108.74 6.52838 109.425 6.92937C110.124 7.33036 110.602 7.88011 110.861 8.57861C111.12 9.26418 111.165 10.0532 110.997 10.9458C110.816 11.9288 110.434 12.7308 109.852 13.3517C109.27 13.9597 108.481 14.4059 107.485 14.6905C106.489 14.9621 105.267 15.098 103.818 15.098H102.091L101.14 19.9099H97.7061ZM102.576 12.5756H105.312C105.985 12.5756 106.502 12.4462 106.864 12.1875C107.239 11.9159 107.485 11.489 107.602 10.907C107.718 10.3895 107.647 9.98208 107.388 9.68457C107.129 9.37413 106.683 9.21891 106.049 9.21891H103.216L102.576 12.5756ZM106.205 19.9099L104.07 14.8457L107.31 14.2442L109.91 19.9099H106.205Z" fill="#0F3D46"/>
  <path d="M91.0917 20.1038C89.7335 20.1038 88.5887 19.7999 87.6574 19.1919C86.739 18.584 86.0922 17.7173 85.7171 16.5919C85.342 15.4666 85.3032 14.1278 85.6007 12.5755C85.8853 11.088 86.4027 9.87207 87.1529 8.9278C87.9161 7.98353 88.8539 7.28502 89.9663 6.83229C91.0788 6.36662 92.2947 6.13379 93.6141 6.13379C94.0539 6.13379 94.5066 6.16613 94.9723 6.2308C95.4509 6.29548 95.8972 6.37956 96.3111 6.48304C96.7379 6.58652 97.0937 6.69647 97.3782 6.81289L97.8439 7.00692L96.7767 9.66511L96.0782 9.52929C95.6126 9.43874 95.1598 9.37406 94.72 9.33526C94.2802 9.28352 93.8469 9.25765 93.4201 9.25765C92.6569 9.25765 91.9713 9.38053 91.3634 9.6263C90.7683 9.87207 90.2703 10.2601 89.8693 10.7905C89.4683 11.3079 89.1838 11.9999 89.0156 12.8666C88.8475 13.8109 88.8475 14.5805 89.0156 15.1755C89.1838 15.7705 89.5136 16.2168 90.0052 16.5143C90.5096 16.7989 91.1499 16.9412 91.926 16.9412C92.3658 16.9412 92.8315 16.9153 93.323 16.8636C93.8275 16.7989 94.3579 16.7277 94.9141 16.6501L95.6514 16.5143L95.9618 19.0755L95.2633 19.3083C94.6683 19.5153 93.9957 19.7028 93.2454 19.871C92.5081 20.0262 91.7902 20.1038 91.0917 20.1038Z" fill="#0F3D46"/>
  <path d="M123.907 40.9106L126.546 27.3286H136.208L135.995 28.4152H127.554L126.584 33.4211H134.248L134.035 34.5077H126.371L125.343 39.824H133.919L133.705 40.9106H123.907Z" fill="#0F3D46"/>
  <path d="M115.052 40.9106L117.477 28.4152H112.374L112.587 27.3286H124.016L123.802 28.4152H118.699L116.274 40.9106H115.052Z" fill="#0F3D46"/>
  <path d="M102.114 40.9106L103.24 35.1092L99.3398 27.3286H100.737L103.997 34.0614H104.035L109.876 27.3286H111.525L104.443 35.2062L103.337 40.9106H102.114Z" fill="#0F3D46"/>
  <path d="M85.3096 40.9106L87.9484 27.3286H93.6528C94.61 27.3286 95.3796 27.4838 95.9617 27.7943C96.5438 28.0918 96.9448 28.5122 97.1647 29.0555C97.3846 29.5858 97.4105 30.2196 97.2423 30.9569C97.113 31.6166 96.8284 32.2117 96.3886 32.742C95.9488 33.2724 95.302 33.6539 94.4483 33.8868V33.9062C94.9399 33.9967 95.3473 34.2037 95.6707 34.5271C95.9941 34.8375 96.2204 35.2191 96.3498 35.6718C96.4791 36.1246 96.4856 36.629 96.3692 37.1853C96.214 37.9614 95.9165 38.6275 95.4767 39.1838C95.0369 39.74 94.4612 40.1668 93.7498 40.4643C93.0513 40.7619 92.217 40.9106 91.2468 40.9106H85.3096ZM86.7454 39.824H91.3051C92.4434 39.824 93.3165 39.5977 93.9244 39.1449C94.5453 38.6793 94.9463 37.9872 95.1274 37.0688C95.2826 36.2798 95.1468 35.646 94.72 35.1674C94.2931 34.6758 93.5817 34.4301 92.5856 34.4301H87.7737L86.7454 39.824ZM87.9872 33.3241H92.7991C93.7175 33.3241 94.4418 33.1301 94.9722 32.742C95.5025 32.341 95.8389 31.7525 95.9811 30.9763C96.1493 30.2132 96.0329 29.5987 95.6319 29.1331C95.2438 28.6545 94.4871 28.4152 93.3618 28.4152H88.9379L87.9872 33.3241Z" fill="#0F3D46"/>
  <path d="M13.6167 7.4928C14.4838 5.99081 16.0862 5.06555 17.8203 5.06555H47.0832L39.1634 18.7847H23.4253C23.1237 18.7847 22.845 18.9457 22.6942 19.2069L15.6272 31.4486C15.3023 32.0114 15.7084 32.715 16.3583 32.715H31.1217L23.8721 45.2733C23.4574 45.9917 22.691 46.4342 21.8617 46.4342H10.1639C8.42975 46.4342 6.82735 45.5089 5.96029 44.0069L0.650297 34.8086C-0.216764 33.3067 -0.216766 31.4561 0.650293 29.9542L13.6167 7.4928Z" fill="#0F3D46"/>
  <path d="M61.8388 38.9414C60.9718 40.4434 59.3694 41.3686 57.6352 41.3686H28.3724L36.2922 27.6494H52.0303C52.3318 27.6494 52.6105 27.4885 52.7613 27.2273L59.8283 14.9856C60.1533 14.4227 59.7471 13.7192 59.0973 13.7192H44.3338L51.5835 1.16085C51.9982 0.442515 52.7645 0 53.5939 0H65.2917C67.0258 0 68.6282 0.925259 69.4953 2.42724L74.8053 11.6256C75.6723 13.1275 75.6723 14.978 74.8053 16.48L61.8388 38.9414Z" fill="#0F3D46"/>
  <path d="M61.8388 38.9414C60.9718 40.4434 59.3694 41.3686 57.6352 41.3686H28.3724L36.2922 27.6494H52.0303C52.3318 27.6494 52.6105 27.4885 52.7613 27.2273L59.8283 14.9856C60.1533 14.4227 59.7471 13.7192 59.0973 13.7192H44.3338L51.5835 1.16085C51.9982 0.442515 52.7645 0 53.5939 0H65.2917C67.0258 0 68.6282 0.925259 69.4953 2.42724L74.8053 11.6256C75.6723 13.1275 75.6723 14.978 74.8053 16.48L61.8388 38.9414Z" fill="#0F3D46"/>
</svg>