<svg width="417" height="25" viewBox="0 0 417 25" fill="none" xmlns="http://www.w3.org/2000/svg">
<path d="M181.312 0.856923C182.977 0.856923 184.642 0.856923 186.357 0.856923C186.763 2.14016 187.168 3.42365 187.57 4.70811C187.707 5.14476 187.845 5.58119 187.983 6.01743C188.182 6.6453 188.378 7.27388 188.575 7.90263C188.693 8.28045 188.812 8.65828 188.935 9.04756C189.195 10.0336 189.195 10.0336 189.195 11.2994C189.403 11.2994 189.612 11.2994 189.826 11.2994C189.906 10.9115 189.987 10.5236 190.07 10.1239C190.492 8.21569 191.046 6.34949 191.6 4.47619C191.702 4.12682 191.805 3.77744 191.91 3.41748C192.161 2.56371 192.412 1.71028 192.664 0.856923C194.329 0.856923 195.994 0.856923 197.709 0.856923C198.75 3.98966 199.79 7.12241 200.862 10.3501C202.1 6.44399 202.1 6.44399 203.141 2.48238C203.436 1.66556 203.597 1.33054 204.331 0.856923C205.167 0.788189 205.924 0.767205 206.755 0.797588C206.976 0.801871 207.198 0.806157 207.426 0.81057C207.971 0.821734 208.516 0.83876 209.061 0.856923C208.927 3.59417 208.46 6.10848 207.74 8.74811C207.642 9.11607 207.544 9.48404 207.443 9.86315C207.145 10.9758 206.842 12.0869 206.538 13.198C206.403 13.7028 206.403 13.7028 206.265 14.2178C206.018 15.138 205.767 16.057 205.513 16.9755C205.44 17.2486 205.366 17.5217 205.29 17.803C204.538 20.4682 204.538 20.4682 203.7 21.109C202.729 21.2582 201.783 21.2276 200.803 21.1881C200.537 21.1824 200.27 21.1767 199.996 21.1708C199.339 21.1559 198.681 21.1332 198.024 21.109C197.963 20.8568 197.901 20.6046 197.837 20.3448C197.554 19.2011 197.267 18.0587 196.98 16.9162C196.834 16.3208 196.834 16.3208 196.685 15.7135C196.588 15.3321 196.492 14.9507 196.392 14.5577C196.305 14.2064 196.217 13.8551 196.127 13.4931C195.831 12.4456 195.831 12.4456 194.871 11.2994C194.039 14.5366 193.206 17.7737 192.349 21.109C190.267 21.109 188.186 21.109 186.042 21.109C185.404 18.6552 184.769 16.2008 184.138 13.7453C183.944 12.9906 183.75 12.2359 183.555 11.4814C182.645 7.95211 181.763 4.47909 181.312 0.856923Z" fill="#DEE7F1"/>
<path d="M151.041 0.856907C155.14 0.856907 155.14 0.856906 156.717 2.12266C157.213 2.71498 157.213 2.71498 157.632 3.3229C157.789 3.54868 157.946 3.77446 158.108 4.00708C158.346 4.35676 158.346 4.35675 158.589 4.7135C158.747 4.9405 158.904 5.1675 159.066 5.40138C160.197 7.03679 161.292 8.69361 162.393 10.3501C162.861 6.12086 162.861 6.12087 163.339 1.80622C164.9 1.80622 166.46 1.80622 168.069 1.80622C168.069 8.17613 168.069 14.546 168.069 21.109C164.6 21.109 164.6 21.109 163.558 20.4761C162.518 19.4139 161.643 18.2006 160.777 16.9953C160.454 16.5534 160.131 16.1117 159.808 15.6702C159.658 15.4626 159.507 15.2549 159.352 15.041C158.976 14.5337 158.578 14.0423 158.178 13.554C157.663 12.8816 157.663 12.8816 157.663 12.2487C157.455 12.2487 157.247 12.2487 157.032 12.2487C157.036 12.5701 157.039 12.8916 157.043 13.2227C157.064 15.8734 156.98 18.4676 156.717 21.109C154.844 21.109 152.971 21.109 151.041 21.109C151.041 14.4258 151.041 7.74261 151.041 0.856907Z" fill="#DEE7F1"/>
<path d="M9.14444 0.856907C10.4385 0.829396 11.7326 0.812486 13.0269 0.797572C13.3949 0.789618 13.763 0.781669 14.1422 0.773474C14.4948 0.770415 14.8475 0.767353 15.2108 0.764201C15.5361 0.75923 15.8614 0.754254 16.1965 0.749132C17.1811 0.876813 17.3493 1.06232 17.9736 1.80622C18.276 2.37673 18.276 2.37672 18.538 3.0196C18.6381 3.26191 18.7383 3.50423 18.8414 3.75389C18.9469 4.0159 19.0523 4.27791 19.161 4.54786C19.2734 4.82173 19.3858 5.0956 19.5016 5.37777C19.8616 6.25639 20.2184 7.13632 20.575 8.01633C20.81 8.59161 21.0453 9.16681 21.2808 9.74191C21.7437 10.8732 22.2048 12.0052 22.6646 13.1377C23.1048 14.2206 23.5494 15.3015 23.9986 16.3806C24.1537 16.7542 24.1537 16.7542 24.3118 17.1353C24.506 17.6024 24.701 18.0692 24.897 18.5355C25.5414 20.0891 25.5414 20.0891 25.5414 20.7925C24.2473 20.82 22.9532 20.837 21.6589 20.8519C21.1068 20.8638 21.1068 20.8638 20.5436 20.876C20.191 20.879 19.8384 20.8821 19.475 20.8852C19.1497 20.8902 18.8244 20.8952 18.4893 20.9003C17.6582 20.7925 17.6582 20.7925 17.1292 20.4433C16.5378 19.5921 16.1811 18.7043 15.7921 17.7431C15.7095 17.5408 15.6268 17.3384 15.5417 17.1299C15.2793 16.486 15.0202 15.8408 14.7612 15.1955C14.5834 14.7577 14.4054 14.3199 14.2272 13.8822C13.7918 12.8113 13.3593 11.7392 12.9283 10.6665C12.1138 11.4839 11.8591 12.283 11.4306 13.3575C11.2631 13.7722 11.0955 14.1869 10.928 14.6016C10.6658 15.2562 10.4043 15.9111 10.1434 16.5663C9.89102 17.1983 9.63611 17.8292 9.38093 18.46C9.15412 19.0282 9.15412 19.0282 8.92273 19.6078C8.51379 20.4761 8.51379 20.4761 7.88314 20.7925C7.28831 20.8194 6.69254 20.8265 6.09712 20.8234C5.74348 20.8224 5.38985 20.8214 5.0255 20.8204C4.6548 20.8177 4.28409 20.815 3.90215 20.8123C3.52901 20.8109 3.15587 20.8095 2.77142 20.808C1.84759 20.8043 0.923805 20.799 0 20.7925C0.651289 18.3877 1.5263 16.1311 2.5226 13.8507C2.72991 13.3633 2.72991 13.3633 2.9414 12.8661C3.07635 12.5551 3.2113 12.2441 3.35033 11.9236C3.47146 11.6438 3.59259 11.364 3.71739 11.0757C4.10479 10.3395 4.37133 9.88557 5.04521 9.40075C5.81836 9.29298 5.81836 9.29298 6.72407 9.30805C7.04823 9.31111 7.3724 9.31416 7.70638 9.31731C8.21336 9.32924 8.21336 9.32924 8.73058 9.34142C9.07222 9.3457 9.41386 9.34999 9.76585 9.3544C10.61 9.36559 11.4537 9.38121 12.2977 9.40075C11.0619 5.98465 11.0619 5.98465 9.65685 2.63687C9.14444 1.48978 9.14444 1.48978 9.14444 0.856907Z" fill="#DEE7F1"/>
<path d="M250.053 0.856907C253.837 0.856907 253.837 0.856905 255.044 1.61092C256.277 2.88891 257.225 4.38528 258.173 5.88037C260.042 8.77906 261.976 11.6152 263.927 14.4638C264.032 10.0779 264.136 5.69209 264.243 1.17334C265.283 1.17334 266.324 1.17334 267.396 1.17334C267.436 7.82788 267.367 14.4596 267.081 21.109C264.775 20.839 263.27 20.3477 261.72 18.5775C261.018 17.6794 260.389 16.745 259.769 15.7889C257.848 12.8774 255.847 10.0428 253.837 7.18568C253.733 11.7804 253.629 16.3751 253.522 21.109C252.377 21.109 251.232 21.109 250.053 21.109C250.053 14.4258 250.053 7.74261 250.053 0.856907Z" fill="#DEE7F1"/>
<path d="M234.477 0.820982C234.982 0.821032 235.487 0.822833 235.993 0.826002C236.258 0.826449 236.524 0.826898 236.797 0.827359C237.649 0.829136 238.5 0.833106 239.352 0.837124C239.928 0.83871 240.503 0.840158 241.079 0.841454C242.494 0.844951 243.909 0.850419 245.323 0.856907C245.323 1.79673 245.323 2.73655 245.323 3.70486C246.26 3.70486 247.196 3.70486 248.161 3.70486C248.161 4.85353 248.161 6.0022 248.161 7.18568C247.225 7.18568 246.288 7.18568 245.323 7.18568C245.323 6.24586 245.323 5.30603 245.323 4.33773C241.265 4.33773 237.207 4.33773 233.026 4.33773C233.026 6.00853 233.026 7.67933 233.026 9.40075C236.251 9.40075 239.477 9.40075 242.801 9.40075C242.801 10.5494 242.801 11.6981 242.801 12.8816C239.679 12.8816 236.557 12.8816 233.341 12.8816C233.341 14.4479 233.341 16.0143 233.341 17.6281C237.295 17.6281 241.249 17.6281 245.323 17.6281C245.323 16.8972 245.323 16.1662 245.323 15.4131C246.26 15.4131 247.196 15.4131 248.161 15.4131C248.161 16.3529 248.161 17.2927 248.161 18.261C247.225 18.261 246.288 18.261 245.323 18.261C245.323 19.2008 245.323 20.1407 245.323 21.109C241.057 21.109 236.791 21.109 232.395 21.109C232.395 20.1692 232.395 19.2293 232.395 18.261C231.562 18.261 230.73 18.261 229.872 18.261C229.872 16.3814 229.872 14.5017 229.872 12.5651C230.705 12.4607 231.537 12.3563 232.395 12.2487C232.395 11.5177 232.395 10.7868 232.395 10.0336C231.562 9.82478 230.73 9.61593 229.872 9.40075C229.872 7.52111 229.872 5.64146 229.872 3.70486C230.809 3.70486 231.745 3.70486 232.71 3.70486C232.756 3.29368 232.801 2.88251 232.848 2.45887C233.024 0.866913 233.024 0.866915 234.477 0.820982Z" fill="#DEE7F1"/>
<path d="M215.709 0.702401C216.077 0.70464 216.446 0.70688 216.826 0.709187C218.002 0.718034 219.177 0.737889 220.353 0.758026C221.151 0.765963 221.949 0.773178 222.747 0.779654C224.702 0.797086 226.656 0.823551 228.611 0.856907C228.611 1.79673 228.611 2.73655 228.611 3.70486C223.512 3.70486 218.413 3.70486 213.16 3.70486C213.16 8.71724 213.16 13.7296 213.16 18.8939C217.53 18.8939 221.901 18.8939 226.404 18.8939C226.404 16.5966 226.404 14.2992 226.404 11.9323C224.635 11.9323 222.866 11.9323 221.043 11.9323C221.043 11.3057 221.043 10.6792 221.043 10.0336C222.173 9.99683 223.303 9.97436 224.433 9.95451C224.753 9.9439 225.074 9.9333 225.404 9.92238C225.712 9.9183 226.021 9.91422 226.34 9.91001C226.624 9.90338 226.908 9.89676 227.2 9.88993C228.258 10.0848 228.612 10.4326 229.242 11.2994C229.405 12.1732 229.405 12.1732 229.409 13.1671C229.412 13.7071 229.412 13.7071 229.414 14.258C229.409 14.6326 229.404 15.0073 229.399 15.3933C229.404 15.7667 229.409 16.1402 229.414 16.5249C229.412 16.8853 229.411 17.2457 229.409 17.617C229.408 17.9454 229.406 18.2737 229.405 18.612C229.201 19.7567 228.787 20.2875 227.98 21.109C227.092 21.4063 226.519 21.4718 225.597 21.4865C225.306 21.4915 225.016 21.4966 224.716 21.5019C223.389 21.516 222.062 21.5289 220.735 21.5362C220.036 21.5414 219.336 21.5501 218.637 21.5622C217.627 21.5795 216.617 21.5864 215.608 21.5911C215.296 21.5982 214.985 21.6054 214.664 21.6128C213.354 21.6088 212.2 21.5862 211.071 20.8681C210.014 19.794 210.088 18.4893 210.067 17.051C210.072 16.6834 210.077 16.3159 210.082 15.9372C210.081 15.5569 210.08 15.1766 210.079 14.7847C210.079 13.9814 210.084 13.1782 210.093 12.3749C210.105 11.1454 210.099 9.91703 210.091 8.68752C210.094 7.90672 210.097 7.12593 210.102 6.34514C210.099 5.97758 210.097 5.61002 210.095 5.23132C210.121 3.7476 210.165 2.72496 210.886 1.41354C212.462 0.547285 213.941 0.662023 215.709 0.702401Z" fill="#DEE7F1"/>
<path d="M21.7575 0.856907C24.3589 0.856907 26.9603 0.856907 29.6406 0.856907C31.4926 4.42022 33.0534 8.07153 34.5741 11.7882C34.986 12.7938 35.4014 13.7978 35.8172 14.8018C36.0804 15.4418 36.3433 16.0819 36.6061 16.7221C36.7302 17.0217 36.8543 17.3213 36.9822 17.63C37.1515 18.0456 37.1515 18.0456 37.3241 18.4695C37.4239 18.7127 37.5237 18.9558 37.6265 19.2063C37.8391 19.8432 37.8391 19.8432 37.8391 20.7925C36.545 20.8384 35.2512 20.8666 33.9566 20.8914C33.5886 20.9047 33.2205 20.9179 32.8413 20.9316C32.4887 20.9367 32.136 20.9418 31.7727 20.9471C31.2848 20.9595 31.2848 20.9595 30.787 20.9722C29.9559 20.7925 29.9559 20.7925 29.4443 20.1641C28.8838 18.9334 28.3345 17.7011 27.8115 16.4539C27.6983 16.1864 27.5852 15.919 27.4686 15.6434C27.2292 15.0771 26.9905 14.5106 26.7522 13.9438C26.3944 13.0927 26.0349 12.2423 25.675 11.3921C24.6127 8.87792 23.5585 6.36015 22.5322 3.83093C22.3814 3.4603 22.2305 3.08966 22.075 2.7078C21.7575 1.80622 21.7575 1.80622 21.7575 0.856907Z" fill="#DEE7F1"/>
<path d="M169.96 1.80622C173.29 1.80622 176.62 1.80622 180.051 1.80622C180.051 3.16375 180.051 4.52127 180.051 5.91993C178.282 5.91993 176.513 5.91993 174.69 5.91993C174.69 6.75532 174.69 7.59072 174.69 8.45143C176.459 8.45143 178.228 8.45143 180.051 8.45143C180.051 9.91338 180.051 11.3753 180.051 12.8816C178.282 12.8816 176.513 12.8816 174.69 12.8816C174.69 14.0302 174.69 15.1789 174.69 16.3624C176.459 16.3624 178.228 16.3624 180.051 16.3624C180.051 17.9288 180.051 19.4951 180.051 21.109C176.721 21.109 173.391 21.109 169.96 21.109C169.96 14.7391 169.96 8.36916 169.96 1.80622Z" fill="#DEE7F1"/>
<path d="M101.535 1.48978H104.688V21.109H101.535V1.48978Z" fill="#DEE7F1"/>
<path d="M54.571 1.78644L53.5179 1.77531C52.4772 1.81277 52.4666 1.81323 52.0978 2.74418L51.8033 3.57259L51.467 4.5141C51.2208 5.20984 50.974 5.9054 50.7268 6.60078L50.3351 7.70236C49.9156 8.88453 49.4951 10.0663 49.0687 11.2459C48.8489 11.853 48.6292 12.46 48.4103 13.0674C48.2043 13.6392 47.9983 14.211 47.7922 14.7829L47.7718 14.8395L47.358 15.9771L46.9737 17.0484C46.5226 18.2963 46.2249 19.4776 46.0375 20.7925H49.5061L50.1368 18.261H58.9659C58.9659 18.4518 58.9659 18.5914 58.9841 18.7286C59.0338 19.1036 59.2193 19.4604 59.9119 20.7925H63.0651C63.0651 19.9964 63.0651 19.701 63.0023 19.4198C62.9652 19.2539 62.9063 19.093 62.8127 18.8373C62.6008 18.3372 62.3947 17.8338 62.2111 17.3225L61.7064 15.8605C60.0752 11.1291 58.4271 6.40251 56.4433 1.80622L55.6266 1.7951L54.571 1.78644Z" fill="#DEE7F1"/>
<path fill-rule="evenodd" clip-rule="evenodd" d="M78.2993 10.5676C77.3756 8.66955 76.4546 7.30816 74.4723 6.44647C72.6663 5.89332 71.2312 5.91678 69.6672 7.02743L68.741 7.81854L68.4256 6.55278H65.2724V24.9062H68.4256L68.741 19.5268L69.0563 20.1596C70.7056 21.332 72.076 21.7642 74.1015 21.4254L75.0475 20.7925C75.8834 20.2339 76.5889 19.6517 77.2548 18.8939C78.6999 16.2843 78.8971 13.4583 78.2993 10.5676ZM72.8402 9.71718C74.047 10.2554 74.5675 10.7112 75.0475 11.9322C75.243 13.4152 75.403 15.0226 74.7162 16.3883C74.1651 17.0588 73.6166 17.555 72.8402 17.9446C71.5663 18.0652 70.8558 18.0788 69.7461 17.4106C68.4529 16.0386 68.3001 14.7604 68.3456 12.9285C68.4932 11.6754 69.0756 10.9741 69.9235 10.0929C70.9488 9.54988 71.697 9.59642 72.8402 9.71718Z" fill="#DEE7F1"/>
<path fill-rule="evenodd" clip-rule="evenodd" d="M89.0118 6.44278C90.9807 7.32983 92.2897 8.74923 93.1394 10.7258C93.6119 13.6184 93.6334 16.3241 92.0751 18.8939C90.8691 20.2763 89.4955 21.2995 87.6409 21.4934C85.5591 21.5816 84.0416 21.126 82.3986 19.7839C80.669 17.6729 79.9667 15.5083 80.0065 12.795C80.2107 10.7517 80.915 9.03203 82.4577 7.66034C84.4528 6.09499 86.5435 5.73567 89.0118 6.44278ZM90.1831 12.2487C89.6286 10.9307 88.9685 10.284 87.6605 9.71718C85.7417 9.40208 84.4607 9.86546 83.5613 11.6158C83.3038 13.5017 83.2595 15.4199 84.3299 17.0546C84.7844 17.3772 84.9832 17.5183 85.2039 17.6003C85.3756 17.6641 85.5605 17.6921 85.8893 17.7419C86.029 17.7459 86.1656 17.7519 86.2994 17.7577L86.3009 17.7577C87.2362 17.7983 88.0355 17.833 88.8282 17.198C90.1096 15.5713 90.3738 14.2575 90.1831 12.2487Z" fill="#DEE7F1"/>
<path fill-rule="evenodd" clip-rule="evenodd" d="M119.508 10.3501C118.717 8.62976 117.856 7.59255 116.244 6.58248C114.378 5.80903 111.773 5.77548 110.079 6.97926C108.165 8.59825 107.029 9.88015 106.788 12.4378C106.711 15.5869 107.045 17.6394 109.189 19.9977C110.714 21.3375 112.476 21.5312 114.438 21.5206C116.132 21.2746 117.407 20.086 118.562 18.8939C119.093 18.268 119.453 17.8433 119.685 17.3569C120.173 16.3305 120.088 15.0295 119.824 10.983L119.508 10.3501ZM114.463 9.7172C115.401 10.2809 116.174 10.9365 116.671 11.9323C116.845 13.8081 116.843 15.4089 115.725 16.9953C114.773 17.8176 114.307 17.9446 113.044 17.9446C111.743 17.5715 111.219 17.0808 110.364 16.046C109.779 14.8728 109.904 13.5291 110.049 12.2487C111.11 10.1911 112.134 9.4399 114.463 9.7172Z" fill="#DEE7F1"/>
<path d="M98.6969 1.48978H95.5436V21.109H98.6969V1.48978Z" fill="#DEE7F1"/>
<path d="M54.236 6.5528C54.4441 6.5528 54.6522 6.5528 54.8666 6.5528C55.3413 7.85752 55.8136 9.16304 56.2856 10.4687C56.4886 11.0267 56.4886 11.0267 56.6958 11.596C56.8238 11.9509 56.9519 12.3058 57.0838 12.6714C57.2027 12.9995 57.3216 13.3277 57.4441 13.6657C57.7046 14.4638 57.7046 14.4638 57.7046 15.0966C55.6234 15.0966 53.5423 15.0966 51.3981 15.0966C52.2216 12.2041 53.2249 9.38337 54.236 6.5528Z" fill="#08090E"/>
<path d="M245.639 4.02129C246.367 4.02129 247.095 4.02129 247.846 4.02129C247.846 5.06554 247.846 6.10979 247.846 7.18568C247.117 7.18568 246.389 7.18568 245.639 7.18568C245.639 6.14143 245.639 5.09718 245.639 4.02129Z" fill="#DEE7F1"/>
<path fill-rule="evenodd" clip-rule="evenodd" d="M415.756 2.27976L415.757 2.35238L416.545 3.30169V15.6428L415.918 16.1462L415.914 16.046L414.338 17.6281C413.964 17.7226 413.776 17.7702 413.585 17.7928C413.392 17.8158 413.195 17.8131 412.798 17.8078L411.887 17.8072L410.942 17.7827L410.064 17.7778C409.099 17.7705 408.135 17.752 407.17 17.7335L406.829 17.727L399.517 17.6281V0.856907L406.829 0.758016L409.13 0.714372C409.734 0.709737 410.338 0.705712 410.942 0.70239L411.887 0.677862L412.798 0.677287L413.586 0.666626C413.681 0.690884 413.765 0.712048 413.841 0.733757L413.898 0.750484L413.946 0.76574C413.992 0.780727 414.035 0.796687 414.078 0.81461C414.436 0.965452 414.735 1.25624 415.756 2.27976ZM405.193 5.28705L407.657 5.22772L408.429 5.20152C409.511 5.18885 409.891 5.18441 410.211 5.31992C410.292 5.35418 410.369 5.39744 410.453 5.45179C410.548 5.51317 410.651 5.58877 410.778 5.68159C411.284 6.37283 411.306 6.7588 411.31 7.61089L411.314 8.41064L411.303 9.24253L411.314 10.0744L411.307 11.6041C411.151 12.4274 410.91 12.7077 410.239 13.198C409.346 13.2672 408.544 13.2874 407.657 13.2573L405.193 13.198V5.28705Z" fill="#DEE7F1"/>
<path fill-rule="evenodd" clip-rule="evenodd" d="M380.913 0.856907H398.256V17.6281H380.913V0.856907ZM388.822 5.24378L389.585 5.24749L390.347 5.24378C391.777 5.24622 392.118 5.2468 392.356 5.40428C392.39 5.42626 392.421 5.45129 392.453 5.4798C392.493 5.51534 392.533 5.55628 392.58 5.60349C392.608 6.14385 392.614 6.68537 392.611 7.22647L392.608 8.21843L392.6 9.26231L392.596 10.3099C392.592 11.1671 392.586 12.0243 392.58 12.8816H386.589C386.581 11.6751 386.575 10.4688 386.569 9.26231L386.561 8.21843L386.558 7.22647L386.553 6.30752C386.613 5.12578 387.27 5.16498 388.173 5.21891L388.36 5.22968C388.509 5.23772 388.663 5.24405 388.822 5.24378Z" fill="#DEE7F1"/>
<path fill-rule="evenodd" clip-rule="evenodd" d="M362.309 0.856907H379.652V17.6281H362.309V0.856907ZM370.981 5.24749L370.218 5.24378C369.996 5.24417 369.78 5.23084 369.576 5.21821C368.689 5.16332 368.014 5.1216 367.944 6.27344L367.942 8.09049L367.946 9.08431L367.942 10.0781L367.943 11.0225C367.944 11.5369 367.954 12.0517 367.985 12.5651C368.127 12.7076 368.205 12.786 368.299 12.8323C368.413 12.8889 368.551 12.8978 368.857 12.9175L369.573 12.9125L370.346 12.9094L371.158 12.9014C372.097 12.8964 373.037 12.8901 373.976 12.8816C373.983 12.0243 373.988 11.1672 373.991 10.3099L373.996 9.26231L374.004 8.21843L374.007 7.22647C374.01 6.68541 374.004 6.14389 373.976 5.60349C373.891 5.51843 373.827 5.45365 373.752 5.40428C373.514 5.24684 373.173 5.24622 371.743 5.24378L370.981 5.24749Z" fill="#DEE7F1"/>
<path fill-rule="evenodd" clip-rule="evenodd" d="M325.101 0.856907H342.444V17.6281H325.101V0.856907ZM333.772 5.24749L333.01 5.24378C332.783 5.24417 332.565 5.23115 332.36 5.21891C331.457 5.16498 330.801 5.12578 330.741 6.30752L330.746 7.22647L330.749 8.21843L330.757 9.26231C330.762 10.4688 330.768 11.6751 330.777 12.8816H336.768C336.774 12.0243 336.779 11.1671 336.783 10.3099L336.787 9.26231L336.795 8.21843L336.798 7.22647C336.801 6.81798 336.798 6.40926 336.784 6.00096C336.78 5.86839 336.774 5.7359 336.768 5.60349C336.683 5.51839 336.618 5.45365 336.544 5.40428C336.306 5.2468 335.964 5.24622 334.535 5.24378L333.772 5.24749Z" fill="#DEE7F1"/>
<path d="M344.02 0.856907H361.048V4.97061H349.696V13.5144H356.003V11.6158L351.273 11.2994V7.50212H361.048V17.6281H344.02V0.856907Z" fill="#DEE7F1"/>
<path d="M305.866 0.856907C309.757 0.856907 310.824 0.856904 311.651 1.30325C311.963 1.47155 312.241 1.70336 312.624 2.02261L312.626 2.02377C313.014 2.5741 313.387 3.13598 313.749 3.70486C314.146 4.2684 314.553 4.82398 314.965 5.37643C315.241 5.7461 315.51 6.12056 315.771 6.49988C315.94 6.74324 316.04 6.88616 316.149 7.02132C316.304 7.21376 316.479 7.39041 316.902 7.81856H318.479L318.794 0.856907H323.839V17.6281C319.318 17.6281 318.209 17.6281 317.324 17.181C317.242 17.1395 317.162 17.0942 317.081 17.0447C316.946 16.9621 316.81 16.8679 316.66 16.7603C316.59 16.7103 316.518 16.6574 316.441 16.6014L316.422 16.5874L316.202 16.2813C316.148 16.2058 316.102 16.141 316.061 16.0813C316.02 16.0231 315.984 15.9697 315.949 15.9159C315.912 15.8595 315.876 15.8026 315.837 15.7391C315.757 15.6104 315.665 15.4544 315.526 15.2208L315.523 15.2153L315.052 14.5318C314.896 14.3052 314.742 14.0774 314.591 13.8482C314.447 13.6322 314.306 13.4149 314.167 13.1965C313.567 12.2909 312.882 11.4871 312.172 10.6665L310.911 10.9829L310.596 17.6281H305.866V0.856907Z" fill="#DEE7F1"/>
</svg>
