<svg width="402" height="34" viewBox="0 0 402 34" fill="none" xmlns="http://www.w3.org/2000/svg">
<path d="M154.154 7.76059C160.294 7.76059 166.433 7.76059 172.758 7.76059C172.322 18.2679 172.322 18.2679 171.645 22.0708C171.512 22.8585 171.419 23.6385 171.339 24.433C171.287 24.7789 171.235 25.1248 171.182 25.4812C170.215 25.9661 169.206 25.8301 168.147 25.8174C167.924 25.8159 167.701 25.8145 167.472 25.813C166.922 25.8093 166.371 25.8036 165.821 25.7976C165.813 25.3098 165.807 24.8219 165.802 24.3341C165.798 24.0624 165.794 23.7907 165.79 23.5108C165.821 22.6332 165.821 22.6332 166.137 20.7346C163.431 20.839 160.726 20.9434 157.938 21.051C157.834 22.3041 157.73 23.5572 157.623 24.8483C157.519 25.1616 157.415 25.4748 157.308 25.7976C155.747 25.7976 154.186 25.7976 152.578 25.7976C152.512 23.1218 152.643 20.5122 152.873 17.8471C152.901 17.5244 152.928 17.2017 152.956 16.8692C153.167 14.529 153.167 14.529 153.524 13.4565C153.732 11.5768 153.94 9.6972 154.154 7.76059Z" fill="#DEE7F1"/>
<path d="M199.561 8.07703C205.596 8.07703 211.632 8.07703 217.85 8.07703C217.85 12.5072 217.85 12.5072 216.904 14.0894C215.958 14.7222 215.958 14.7222 215.012 14.7222C215.012 14.9311 215.012 15.1399 215.012 15.3551C214.598 15.8693 214.598 15.8693 214.066 16.3044C213.754 16.3044 213.442 16.3044 213.12 16.3044C213.12 16.5133 213.12 16.7221 213.12 16.9373C212.866 17.0287 212.613 17.1201 212.352 17.2142C211.502 17.4856 211.502 17.4856 211.228 18.2031C210.916 18.2031 210.604 18.2031 210.282 18.2031C210.282 18.4119 210.282 18.6208 210.282 18.8359C208.613 20.1017 208.613 20.1017 207.444 20.1017C207.444 20.6238 207.444 21.1459 207.444 21.6839C210.358 21.6839 213.271 21.6839 216.273 21.6839C216.169 23.2503 216.065 24.8166 215.958 26.4305C209.819 26.4305 203.679 26.4305 197.354 26.4305C197.354 24.4928 197.399 22.9136 197.669 21.051C197.871 21.0119 198.072 20.9727 198.28 20.9324C198.495 20.8671 198.709 20.8018 198.93 20.7346C199.035 20.5257 199.139 20.3169 199.246 20.1017C200.054 19.9039 200.054 19.9039 200.822 19.7853C200.926 19.472 201.031 19.1587 201.138 18.8359C201.45 18.8359 201.762 18.8359 202.084 18.8359C202.155 18.6532 202.227 18.4705 202.301 18.2822C202.824 17.3811 203.444 16.8991 204.291 16.3044C204.499 16.3044 204.707 16.3044 204.922 16.3044C204.922 16.0956 204.922 15.8867 204.922 15.6716C205.65 15.4627 206.378 15.2539 207.129 15.0387C207.233 14.5166 207.337 13.9944 207.444 13.4565C204.739 13.4565 202.033 13.4565 199.246 13.4565C199.239 12.6864 199.233 11.9162 199.226 11.1228C199.223 10.8807 199.22 10.6387 199.217 10.3893C199.211 8.78023 199.211 8.78023 199.561 8.07703Z" fill="#DEE7F1"/>
<path d="M144.051 7.40823C144.459 7.40989 144.867 7.41154 145.287 7.41325C145.612 7.41392 145.612 7.41392 145.943 7.41461C146.637 7.41638 147.331 7.42036 148.025 7.42438C148.495 7.42596 148.964 7.42741 149.434 7.4287C150.587 7.4322 151.74 7.43766 152.893 7.44415C152.893 7.86185 152.893 8.27955 152.893 8.70991C152.493 8.92321 152.092 9.13362 151.691 9.34278C151.468 9.46026 151.244 9.57774 151.015 9.69878C150.37 9.97566 150.37 9.97566 149.424 9.97566C149.346 10.178 149.268 10.3803 149.188 10.5888C148.794 11.2414 148.794 11.2414 148.124 11.4787C147.831 11.5179 147.831 11.5179 147.532 11.5579C147.532 11.7667 147.532 11.9756 147.532 12.1907C146.596 12.3996 145.659 12.6084 144.694 12.8236C144.694 13.0325 144.694 13.2413 144.694 13.4565C144.382 13.4565 144.07 13.4565 143.748 13.4565C143.748 14.083 143.748 14.7096 143.748 15.3551C143.957 15.3551 144.165 15.3551 144.379 15.3551C145.203 15.9502 145.323 16.2966 145.542 17.3131C145.591 17.7536 145.591 17.7536 145.64 18.2031C145.849 18.2031 146.057 18.2031 146.271 18.2031C147.005 18.763 147.202 19.0941 147.434 20.0028C147.466 20.2443 147.499 20.4858 147.532 20.7346C147.741 20.7346 147.949 20.7346 148.163 20.7346C148.319 21.6744 148.319 21.6744 148.478 22.6332C148.771 22.6626 148.771 22.6626 149.07 22.6925C149.74 22.9496 149.74 22.9496 150.154 23.6814C150.37 24.5318 150.37 24.5318 150.055 25.7976C146.725 25.7976 143.395 25.7976 139.965 25.7976C139.965 25.4843 139.965 25.171 139.965 24.8483C139.496 24.6916 139.496 24.6916 139.019 24.5318C138.703 24.1099 138.388 23.688 138.073 23.2661C137.604 23.1094 137.604 23.1094 137.127 22.9496C137.127 23.785 137.127 24.6204 137.127 25.4812C135.462 25.4812 133.797 25.4812 132.081 25.4812C132.29 22.7661 132.498 20.0511 132.712 17.2537C132.92 17.2537 133.128 17.2537 133.343 17.2537C133.339 17.0061 133.335 16.7585 133.332 16.5034C133.329 16.1832 133.326 15.863 133.323 15.5331C133.319 15.2137 133.316 14.8943 133.312 14.5653C133.343 13.7729 133.343 13.7729 133.658 13.4565C133.725 12.7391 133.774 12.0201 133.816 11.3007C133.888 10.0534 133.986 8.97603 134.289 7.76059C135.85 7.76059 137.41 7.76059 139.019 7.76059C139.019 8.70041 139.019 9.64024 139.019 10.6085C139.331 10.6085 139.643 10.6085 139.965 10.6085C139.965 10.3997 139.965 10.1908 139.965 9.97566C140.574 9.44044 140.574 9.44044 141.364 8.84835C143.228 7.4399 143.228 7.4399 144.051 7.40823Z" fill="#DEE7F1"/>
<path d="M254.743 8.07703C256.304 8.07703 257.865 8.07703 259.473 8.07703C259.554 12.2785 259.554 12.2785 259.177 13.8026C258.703 15.7776 258.618 17.7833 258.488 19.805C258.46 20.1997 258.433 20.5943 258.405 21.001C258.339 21.9668 258.274 22.9328 258.212 23.899C258.004 23.899 257.795 23.899 257.581 23.899C257.581 24.5255 257.581 25.1521 257.581 25.7976C255.812 25.7976 254.043 25.7976 252.22 25.7976C252.116 25.4843 252.012 25.171 251.905 24.8483C251.593 24.7439 251.281 24.6394 250.959 24.5318C250.959 24.2186 250.959 23.9053 250.959 23.5825C250.751 23.5825 250.543 23.5825 250.329 23.5825C249.067 22.2051 249.067 22.2051 249.067 21.051C248.859 21.051 248.651 21.051 248.437 21.051C247.924 20.6357 247.924 20.6357 247.491 20.1017C247.491 19.7884 247.491 19.4752 247.491 19.1524C247.022 18.9957 247.022 18.9957 246.545 18.8359C246.545 18.6271 246.545 18.4182 246.545 18.2031C246.232 18.0986 245.92 17.9942 245.599 17.8866C245.495 17.6778 245.391 17.4689 245.283 17.2537C245.075 17.2537 244.867 17.2537 244.653 17.2537C244.549 18.5068 244.445 19.7599 244.337 21.051C244.129 21.051 243.921 21.051 243.707 21.051C243.71 21.3598 243.714 21.6686 243.718 21.9867C243.721 22.3893 243.723 22.7919 243.726 23.2068C243.73 23.6069 243.734 24.0071 243.737 24.4194C243.707 25.4812 243.707 25.4812 243.391 26.4305C241.726 26.4305 240.062 26.4305 238.346 26.4305C238.315 23.2475 238.315 23.2475 238.346 22.3168C238.502 22.1601 238.502 22.1601 238.661 22.0003C238.77 21.3834 238.857 20.7626 238.937 20.1413C238.963 19.9418 238.989 19.7423 239.015 19.5367C239.47 15.9336 239.847 12.3204 240.238 8.70991C241.171 8.7014 242.104 8.6951 243.037 8.69013C243.302 8.68748 243.567 8.68483 243.841 8.6821C244.095 8.68108 244.349 8.68006 244.611 8.67901C244.962 8.67652 244.962 8.67652 245.321 8.67398C245.914 8.70991 245.914 8.70991 246.545 9.02635C247.178 9.95574 247.491 10.4162 247.491 11.5579C247.803 11.6623 248.115 11.7667 248.437 11.8743C248.756 12.3991 249.071 12.927 249.383 13.4565C249.656 13.7241 249.929 13.9917 250.21 14.2674C250.923 15.0019 251.165 15.3112 251.275 16.3044C251.483 16.3044 251.691 16.3044 251.905 16.3044C252.061 17.0876 252.061 17.0876 252.22 17.8866C252.637 17.8866 253.053 17.8866 253.482 17.8866C253.498 17.6344 253.513 17.3822 253.53 17.1224C253.603 15.9793 253.68 14.8366 253.758 13.6938C253.782 13.2969 253.807 12.9 253.833 12.4911C253.859 12.1097 253.886 11.7283 253.913 11.3354C253.936 10.984 253.959 10.6327 253.983 10.2708C254.112 9.34278 254.112 9.34279 254.743 8.07703Z" fill="#DEE7F1"/>
<path d="M219.742 8.70991C225.881 8.70991 232.021 8.70991 238.346 8.70991C238.242 10.2763 238.138 11.8427 238.031 13.4565C233.452 13.4565 228.874 13.4565 224.157 13.4565C224.157 13.9786 224.157 14.5007 224.157 15.0387C224.692 15.0332 224.692 15.0332 225.238 15.0276C225.705 15.0246 226.172 15.0217 226.64 15.0189C226.875 15.0163 227.11 15.0136 227.353 15.0109C229.13 15.0028 229.13 15.0028 229.832 15.3551C229.735 16.0871 229.637 16.8188 229.537 17.5504C229.482 17.9579 229.427 18.3654 229.37 18.7853C229.202 19.7853 229.202 19.7853 228.886 20.1017C227.984 20.1249 227.089 20.1309 226.186 20.1215C225.932 20.12 225.678 20.1186 225.416 20.1171C224.786 20.1134 224.156 20.1077 223.526 20.1017C223.526 20.6238 223.526 21.1459 223.526 21.6839C227.792 21.6839 232.059 21.6839 236.454 21.6839C236.454 24.8483 236.454 24.8483 236.139 26.4305C230.104 26.4305 224.068 26.4305 217.85 26.4305C217.85 20.1865 217.85 20.1865 218.165 17.2537C218.373 17.2537 218.582 17.2537 218.796 17.2537C218.796 16.6272 218.796 16.0007 218.796 15.3551C219.004 15.3551 219.212 15.3551 219.427 15.3551C219.423 15.0345 219.419 14.7139 219.416 14.3836C219.413 13.9559 219.41 13.5282 219.407 13.1005C219.404 12.89 219.402 12.6795 219.399 12.4627C219.392 11.1453 219.523 10.029 219.742 8.70991Z" fill="#DEE7F1"/>
<path d="M355.963 5.54552C358.486 6.8119 360.148 9.42781 361.874 11.6209C362.763 12.7296 363.675 13.8169 364.595 14.9002C364.76 15.0965 364.925 15.2929 365.096 15.4951C365.93 16.5157 365.93 16.5157 366.999 17.2537C367.085 17.0663 367.172 16.8789 367.261 16.6858C367.616 16.0129 367.986 15.5162 368.488 14.9484C368.657 14.7561 368.825 14.5638 368.999 14.3656C369.178 14.1635 369.357 13.9614 369.541 13.7531C369.914 13.3279 370.286 12.9022 370.657 12.4763C370.84 12.267 371.022 12.0577 371.211 11.842C371.919 11.0215 372.604 10.1851 373.286 9.34278C373.617 8.93345 373.617 8.93345 373.956 8.51584C374.157 8.26661 374.359 8.01738 374.567 7.76059C375.182 7.00123 375.802 6.26939 376.459 5.54552C376.667 5.54552 376.875 5.54552 377.089 5.54552C377.089 12.4376 377.089 19.3296 377.089 26.4305C375.737 26.4305 374.384 26.4305 372.99 26.4305C372.886 23.0889 372.782 19.7473 372.675 16.3044C371.738 17.4531 370.802 18.6018 369.837 19.7853C369.253 20.4916 368.669 21.1973 368.083 21.9014C367.945 22.0669 367.808 22.2323 367.666 22.4027C367.339 22.7961 367.011 23.1893 366.684 23.5825C365.44 22.3686 364.3 21.0916 363.176 19.7655C363.01 19.5719 362.845 19.3784 362.674 19.179C361.874 18.2383 361.118 17.296 360.377 16.3044C360.273 19.646 360.169 22.9876 360.062 26.4305C358.709 26.4305 357.356 26.4305 355.963 26.4305C355.963 19.5384 355.963 12.6464 355.963 5.54552Z" fill="#DEE7F1"/>
<path d="M397.302 6.55912C398.442 7.32787 399.374 8.17652 400.108 9.34279C399.744 10.4381 399.516 10.5716 398.571 11.1623C398.351 11.3043 398.13 11.4462 397.903 11.5925C397.27 11.8743 397.27 11.8743 396.324 11.5579C396.084 11.3099 395.843 11.0618 395.595 10.8063C394.282 9.51964 393.163 8.97305 391.338 8.86813C389.563 8.92983 388.251 9.50797 386.864 10.6085C385.093 12.5475 384.856 14.2969 384.887 16.8434C385.032 18.6211 385.535 19.7743 386.846 20.9818C388.695 22.4304 390.203 22.8959 392.54 22.6332C394.548 22.0627 395.786 21.191 396.955 19.4688C397.059 19.1556 397.163 18.8423 397.27 18.5195C394.773 18.5195 392.275 18.5195 389.702 18.5195C389.702 17.2664 389.702 16.0133 389.702 14.7222C393.761 14.7222 397.819 14.7222 402 14.7222C402 18.3168 401.582 21.0996 399.052 23.7543C396.565 25.9557 393.578 26.9749 390.266 26.8532C387.083 26.4685 384.9 24.9805 382.765 22.6332C380.585 19.8028 380.277 16.9753 380.558 13.4565C381.174 10.432 383.277 8.25336 385.603 6.3564C389.519 4.3099 393.435 4.33724 397.302 6.55912Z" fill="#DEE7F1"/>
<path fill-rule="evenodd" clip-rule="evenodd" d="M314.559 1.46148L314.024 0.482497C313.654 0.443038 313.284 0.400242 312.918 0.357769C308.964 -0.10062 305.335 -0.521419 303.609 3.69633C303.032 5.20103 302.261 6.5313 301.435 7.911C301.05 8.55072 300.67 9.19317 300.295 9.83822L298.573 12.8236C297.987 13.839 297.401 14.855 296.818 15.873L296.267 16.8384L295.735 17.7605L295.246 18.6221C295.023 19.0125 294.916 19.2003 294.816 19.3923C294.724 19.5703 294.639 19.7518 294.474 20.1017C294.176 21.0347 294.068 21.47 294.455 22.379L294.93 23.0955L295.462 23.9283C295.872 24.5687 296.267 25.2184 296.651 25.8745L297.27 26.957C297.585 27.5053 297.9 28.0536 298.214 28.6021C298.431 28.9796 298.647 29.357 298.864 29.7344C299.368 30.613 299.872 31.4917 300.376 32.3706L300.781 33.0757C301.088 32.9212 301.246 32.8421 301.374 32.7294C301.509 32.6113 301.611 32.4562 301.82 32.1384L302.278 31.3303L302.781 30.4465L303.303 29.5157C303.419 29.3125 303.536 29.1098 303.652 28.9073C304.343 27.7051 305.032 26.508 305.565 25.2231L305.826 24.5318C308.429 24.2321 311.202 23.9516 313.709 24.8483C314.666 25.9795 315.148 26.5482 315.535 27.1752C315.927 27.8089 316.223 28.5023 316.819 29.8965C317.295 31.1505 317.884 32.0535 318.754 33.0757C320.091 31.0099 321.372 28.9224 322.582 26.779L323.11 25.8371L323.656 24.873L324.18 23.941C324.63 23.1401 325.054 22.3298 325.474 21.5123C325.587 21.107 325.641 20.9129 325.634 20.7211C325.628 20.5449 325.569 20.3707 325.457 20.0364L325.011 19.3242L324.514 18.5062C324.135 17.9097 323.761 17.3098 323.393 16.7071L322.808 15.7494C321.809 14.1324 320.838 12.5014 319.883 10.858L319.326 9.89654C317.702 7.10392 316.113 4.29405 314.559 1.46148ZM311.817 3.96333C310.533 3.48974 309.805 3.47448 308.47 3.71858C308.368 3.75201 308.279 3.78077 308.195 3.81927C307.677 4.05679 307.328 4.66513 304.823 9.02604C304.514 9.56509 304.204 10.1042 303.895 10.6435L303.724 10.9417C302.892 12.3937 302.06 13.8457 301.204 15.2831L300.726 16.0745C300.443 16.547 300.159 17.0192 299.874 17.4911C299.223 18.542 298.651 19.5516 298.257 20.7321C298.258 21.872 298.556 22.4614 299.127 23.4255L299.5 24.0176C299.921 24.7202 300.347 25.4187 300.781 26.114L301.411 25.7976L301.459 25.6607C301.944 24.2785 302.405 22.9658 303.338 21.8121C305.088 21.2363 305.983 20.942 306.899 20.8354C307.857 20.724 308.839 20.8178 310.847 21.0098L311.502 21.051C311.502 20.7585 311.502 20.6012 311.467 20.4522C311.426 20.2787 311.338 20.1165 311.147 19.7655L310.556 18.8359L310.127 18.0992L309.649 17.3131C309.41 16.9113 309.298 16.7226 309.165 16.5494C309.048 16.3959 308.915 16.2545 308.664 15.988H307.087L309.61 11.5579C310.098 11.9299 310.346 12.1186 310.545 12.3499C310.749 12.588 310.901 12.8711 311.209 13.4457L311.6 14.1289C312.384 15.4792 313.158 16.8343 313.922 18.196L314.469 19.1746C314.833 19.8263 315.198 20.4781 315.561 21.1301C315.649 21.2881 315.735 21.4459 315.822 21.6034C316.693 23.19 317.546 24.7434 318.754 26.114L319.215 25.4194L319.818 24.4923C320.424 23.5692 320.945 22.6699 321.407 21.6666C321.505 21.1758 321.551 20.9435 321.514 20.7251C321.481 20.5287 321.381 20.3436 321.192 19.9921C320.65 19.1579 320.157 18.3065 319.663 17.4429L319.513 17.1805C319.065 16.3962 318.616 15.6118 318.162 14.8306L317.981 14.5204C317.083 12.9797 316.185 11.441 315.36 9.85901C315.186 9.51715 315.013 9.16932 314.84 8.81928C313.992 7.10621 313.118 5.3403 311.817 3.96333Z" fill="#DEE7F1"/>
<path d="M342.404 5.54552C342.716 5.54552 343.028 5.54552 343.35 5.54552C343.495 5.83996 343.641 6.13439 343.792 6.43775C346.335 11.5688 348.882 16.6939 351.566 21.753C352.001 22.5767 352.427 23.4044 352.849 24.2352C352.967 24.4673 353.085 24.6994 353.206 24.9385C353.44 25.4812 353.44 25.4812 353.44 26.114C352.087 26.114 350.734 26.114 349.341 26.114C347.094 22.0803 344.844 18.0268 343.034 13.7729C342.053 14.9548 341.428 16.2838 340.754 17.6542C340.567 18.0308 340.567 18.0308 340.377 18.415C339.98 19.214 339.586 20.0138 339.191 20.8137C338.922 21.3568 338.653 21.8999 338.384 22.4429C337.725 23.7714 337.068 25.1007 336.412 26.4305C334.956 26.4305 333.499 26.4305 331.998 26.4305C332.706 24.2975 332.706 24.2975 333.247 23.2982C333.368 23.0722 333.488 22.8462 333.613 22.6133C333.743 22.3718 333.874 22.1304 334.008 21.8817C335.277 19.5012 336.498 17.1009 337.693 14.6827C339.214 11.6097 340.784 8.56701 342.404 5.54552Z" fill="#DEE7F1"/>
<path d="M176.278 7.41325C176.887 7.41876 176.887 7.41876 177.508 7.42438C177.915 7.42723 178.322 7.43009 178.741 7.43303C179.056 7.4367 179.371 7.44037 179.696 7.44415C180.062 8.56735 179.987 9.51943 179.873 10.6876C179.841 11.0287 179.809 11.3697 179.776 11.721C179.749 11.9804 179.723 12.2399 179.696 12.5072C179.488 12.5072 179.279 12.5072 179.065 12.5072C179.06 12.7091 179.056 12.9109 179.051 13.119C178.878 19.9398 178.878 19.9398 178.296 23.2463C178.258 23.4704 178.219 23.6945 178.18 23.9255C178.079 24.4494 177.944 24.9666 177.804 25.4812C176.894 25.9375 176.095 25.8273 175.084 25.8174C174.709 25.8145 174.334 25.8117 173.948 25.8087C173.66 25.805 173.371 25.8014 173.074 25.7976C173.007 23.3031 173.095 20.9545 173.522 18.4973C173.936 15.6752 174.109 12.8182 174.335 9.97566C174.543 9.97566 174.751 9.97566 174.966 9.97566C174.959 9.6167 174.953 9.25774 174.946 8.8879C174.971 7.45377 174.971 7.45377 176.278 7.41325Z" fill="#DEE7F1"/>
<path d="M188.209 11.5579C188.521 11.6623 188.834 11.7667 189.155 11.8743C189.155 12.0831 189.155 12.292 189.155 12.5072C189.936 12.6638 189.936 12.6638 190.732 12.8236C190.745 13.0194 190.758 13.2152 190.771 13.4169C190.862 13.6388 190.953 13.8607 191.047 14.0894C191.992 14.5022 191.992 14.5022 192.939 14.7222C192.939 14.9311 192.939 15.1399 192.939 15.3551C193.72 15.5118 193.72 15.5118 194.516 15.6716C194.516 15.8804 194.516 16.0893 194.516 16.3044C194.828 16.4089 195.14 16.5133 195.462 16.6209C195.358 17.0386 195.254 17.4563 195.146 17.8866C194.626 17.9911 194.106 18.0955 193.57 18.2031C193.57 18.4119 193.57 18.6208 193.57 18.8359C193.05 18.9404 192.529 19.0448 191.993 19.1524C191.889 19.4657 191.785 19.7789 191.678 20.1017C191.093 20.8515 190.407 21.2496 189.589 21.7037C188.514 22.1919 188.514 22.1919 188.209 22.9496C187.897 22.9496 187.585 22.9496 187.263 22.9496C187.263 23.1585 187.263 23.3673 187.263 23.5825C186.951 23.5825 186.639 23.5825 186.317 23.5825C186.317 22.6427 186.317 21.7029 186.317 20.7346C185.069 20.7346 183.82 20.7346 182.533 20.7346C182.485 16.7568 182.485 16.7568 182.849 15.0387C183.479 14.4058 183.479 14.4058 184.507 14.344C184.909 14.3513 185.312 14.3587 185.726 14.3662C186.332 14.3748 186.332 14.3748 186.95 14.3836C187.418 14.3946 187.418 14.3946 187.894 14.4058C187.887 13.9946 187.881 13.5835 187.874 13.1598C187.868 12.7313 187.871 12.3023 187.894 11.8743C187.998 11.7699 188.102 11.6654 188.209 11.5579Z" fill="#DEE7F1"/>
<path d="M159.672 13.1041C160.014 13.1058 160.356 13.1074 160.708 13.1091C161.262 13.1107 161.262 13.1107 161.826 13.1122C162.409 13.1162 162.409 13.1162 163.003 13.1203C163.587 13.1224 163.587 13.1224 164.184 13.1246C165.15 13.1283 166.116 13.1336 167.083 13.14C167.083 13.871 167.083 14.602 167.083 15.3551C164.273 15.3551 161.463 15.3551 158.569 15.3551C158.569 13.1544 158.569 13.1544 159.672 13.1041Z" fill="#08090E"/>
<path d="M133.973 7.76059C134.377 8.96027 134.266 10.0504 134.17 11.3007C134.142 11.6968 134.114 12.0929 134.084 12.501C133.973 13.4565 133.973 13.4565 133.658 13.7729C133.584 14.358 133.528 14.9453 133.481 15.5331C133.454 15.8533 133.428 16.1735 133.401 16.5034C133.382 16.751 133.362 16.9986 133.343 17.2537C133.135 17.2537 132.926 17.2537 132.712 17.2537C132.756 16.3636 132.803 15.4737 132.85 14.5838C132.862 14.3299 132.875 14.076 132.888 13.8143C132.992 11.9101 132.992 11.9101 133.343 11.5579C133.408 10.9791 133.459 10.3985 133.5 9.81744C133.623 8.11219 133.623 8.11219 133.973 7.76059Z" fill="#DEE7F1"/>
<path d="M207.602 19.2239C207.81 19.3283 208.491 20.5403 208.706 20.6479C208.497 20.8567 208.289 21.0656 208.075 21.2807C210.572 21.3852 213.07 21.4896 215.643 21.5972C215.643 21.7016 215.643 21.806 215.643 21.9136C212.937 21.9136 210.232 21.9136 207.444 21.9136C207.34 21.4959 207.236 21.0782 207.129 20.6479C207.441 20.5434 207.28 19.3315 207.602 19.2239Z" fill="#DEE7F1"/>
<path d="M0.636719 4.48486C8.11131 4.48486 8.11131 4.48486 10.0276 5.51423C10.2678 5.64228 10.5079 5.77033 10.7554 5.90226C13.7028 7.6435 15.3687 10.0811 16.6267 13.2345C17.5688 17.451 16.5437 20.8976 14.4326 24.4973C13.9775 25.1366 13.9775 25.1366 12.8195 26.1017C8.75771 26.1017 4.69667 25.9691 0.636719 25.8443C0.636719 18.7957 0.636719 11.7471 0.636719 4.48486Z" fill="#DEE7F1"/>
<path d="M50.3832 4.48486C51.9745 4.48486 53.5659 4.48486 55.2055 4.48486C55.2893 11.1938 55.373 17.9027 55.4593 24.8149C55.9619 24.8149 56.4644 24.8149 56.9822 24.8149C57.0659 18.106 57.1497 11.3971 57.236 4.48486C58.7436 4.48486 60.2512 4.48486 61.8045 4.48486C61.8218 7.13357 61.8357 9.78224 61.844 12.431C61.848 13.661 61.8533 14.8911 61.862 16.1211C61.8703 17.3091 61.8748 18.4971 61.8768 19.6852C61.8782 20.1374 61.8809 20.5897 61.8851 21.0419C61.8906 21.6776 61.8913 22.313 61.891 22.9487C61.8937 23.1338 61.8965 23.3189 61.8993 23.5096C61.8905 24.9819 61.6207 26.3946 60.6982 27.5708C59.9486 28.1688 58.9743 27.9922 58.0609 27.9674C57.8467 27.9629 57.6325 27.9584 57.4118 27.9538C56.9729 27.9434 56.534 27.9313 56.0951 27.9175C55.5083 27.9042 54.9257 27.9107 54.339 27.9242C54.0073 27.9225 53.6755 27.9209 53.3337 27.9191C52.891 27.9236 52.891 27.9236 52.4394 27.9282C51.3893 27.5514 51.1531 27.1116 50.6465 26.1306C50.0608 24.349 50.2313 22.4012 50.2592 20.5437C50.2616 20.0796 50.2634 19.6156 50.2647 19.1516C50.2695 17.9369 50.2819 16.7224 50.296 15.5078C50.3091 14.2657 50.3148 13.0236 50.3212 11.7814C50.3348 9.34914 50.3571 6.91705 50.3832 4.48486Z" fill="#DEE7F1"/>
<path d="M32.3628 3.97018C33.8069 4.50938 34.7994 5.54005 35.6623 6.80095C36.2303 8.13482 36.2307 9.33355 36.2016 10.7576C36.1993 10.9716 36.197 11.1855 36.1947 11.406C36.1887 11.9297 36.1796 12.4535 36.1699 12.9772C34.8298 12.9772 33.4897 12.9772 32.109 12.9772C32.0252 11.4486 31.9414 9.91995 31.8551 8.34501C31.2689 8.34501 30.6826 8.34501 30.0785 8.34501C29.6735 8.7556 29.7425 9.17536 29.7136 9.74431C29.7664 12.4527 31.815 14.3391 33.4369 16.31C35.266 18.5718 36.5305 20.9123 36.4966 23.9032C36.4163 24.6244 36.2154 25.1373 35.9111 25.7921C35.8176 25.996 35.7241 26.1999 35.6278 26.41C35.5554 26.563 35.483 26.7161 35.4085 26.8737C34.3251 26.8801 33.2418 26.8848 32.1584 26.8878C31.7907 26.8891 31.4229 26.8909 31.0552 26.8931C26.8698 26.918 26.8698 26.918 25.5099 26.6164C24.9594 25.779 24.9412 25.5525 24.9527 24.5868C24.9544 24.3454 24.956 24.1041 24.9577 23.8554C24.962 23.6042 24.9662 23.3529 24.9706 23.094C24.9729 22.8397 24.9752 22.5854 24.9775 22.3235C24.9835 21.6957 24.9926 21.0679 25.0023 20.4401C26.3424 20.4401 27.6825 20.4401 29.0633 20.4401C29.0819 20.9049 29.0819 20.9049 29.1009 21.379C29.12 21.7845 29.1391 22.1899 29.1584 22.5954C29.1663 22.7997 29.1741 23.0041 29.1822 23.2146C29.1948 24.3946 29.1948 24.3946 29.8247 25.3296C30.4592 25.4369 30.4592 25.4369 31.0937 25.3296C31.7444 24.34 31.7308 23.9373 31.6013 22.7562C30.9777 20.7401 29.5909 19.2406 28.2736 17.6595C26.2422 15.1699 24.8784 12.5099 24.918 9.22762C25.073 7.60479 25.6065 6.34111 26.8464 5.27901C28.7048 3.99648 30.1004 3.73381 32.3628 3.97018Z" fill="#DEE7F1"/>
<path d="M75.0026 4.48486C78.7717 4.48486 82.5408 4.48486 86.424 4.48486C86.424 5.92855 86.424 7.37225 86.424 8.85969C85.3352 8.85969 84.2464 8.85969 83.1245 8.85969C83.1245 15.3988 83.1245 21.9379 83.1245 28.6751C81.5331 28.6751 79.9418 28.6751 78.3022 28.6751C78.3022 22.136 78.3022 15.5969 78.3022 8.85969C77.2133 8.85969 76.1245 8.85969 75.0026 8.85969C75.0026 7.416 75.0026 5.9723 75.0026 4.48486Z" fill="#DEE7F1"/>
<path d="M20.18 4.48486C21.7714 4.48486 23.3627 4.48486 25.0023 4.48486C24.4254 8.74625 23.7425 12.984 23.0269 17.2235C22.9098 17.9181 22.7934 18.6129 22.677 19.3077C22.5369 20.1436 22.3965 20.9794 22.2561 21.8153C22.2042 22.1238 22.1524 22.4323 22.099 22.7502C22.0265 23.1799 22.0265 23.1799 21.9526 23.6182C21.8892 23.9941 21.8892 23.9941 21.8246 24.3775C21.7085 25.0397 21.5791 25.6995 21.449 26.359C19.9414 26.359 18.4338 26.359 16.8805 26.359C16.8805 23.7779 16.8805 23.7779 17.2295 22.338C17.5949 20.7255 17.8298 19.1235 18.0325 17.4827C18.161 16.4916 18.331 15.5151 18.5144 14.5333C18.6953 13.5393 18.8591 12.5429 19.022 11.5457C19.0538 11.3511 19.0856 11.1565 19.1184 10.9559C19.1843 10.5524 19.2501 10.1489 19.3159 9.74544C19.492 8.66728 19.6695 7.58938 19.8469 6.51144C19.9568 5.84267 20.0667 5.1739 20.18 4.48486Z" fill="#DEE7F1"/>
<path fill-rule="evenodd" clip-rule="evenodd" d="M46.5294 5.0119C45.4898 4.48486 44.1903 4.48486 37.6928 4.48486V27.131H42.2613V18.8961L44.038 19.4107C44.0629 20.2867 44.0888 21.1626 44.1158 22.0385C44.127 22.3957 44.1381 22.7529 44.149 23.1101C44.1591 23.4652 44.1692 23.8204 44.1793 24.1756L44.2115 25.1909C44.2152 25.3143 44.2172 25.4338 44.2191 25.5504C44.2299 26.2056 44.2391 26.7669 44.5456 27.3884H49.1142L49.1103 27.2418C49.0863 26.3233 49.0623 25.4047 49.0363 24.4862C49.0252 24.0918 49.0141 23.6975 49.0031 23.3031C48.9882 22.7209 48.9733 22.1388 48.9566 21.5568L48.9407 21.0051C48.9384 20.9121 48.9368 20.8211 48.9351 20.7318C48.9172 19.7653 48.9032 19.007 48.2486 18.1944L47.8293 17.7059L47.4079 17.2133L47.0837 16.8373L47.8451 16.58C48.8471 15.0616 48.9805 13.8205 48.9744 12.0121L48.9555 11.1114C48.953 8.73726 48.9493 7.33004 47.3375 5.51423C47.0329 5.30836 46.7893 5.14366 46.5294 5.0119ZM43.7842 8.345H42.2613V15.2933H44.038C44.1109 15.1454 44.1654 15.0348 44.2064 14.9192C44.3281 14.5761 44.3303 14.1894 44.3389 12.6545L44.3394 11.8191L44.3488 10.9838L44.3503 10.1866L44.3535 9.45329C44.3254 9.18292 44.3101 9.0357 44.2538 8.90689C44.1865 8.75291 44.0606 8.62526 43.7842 8.345Z" fill="#DEE7F1"/>
<path fill-rule="evenodd" clip-rule="evenodd" d="M72.2128 4.97514C71.0718 4.48486 69.7258 4.48486 63.5813 4.48486V28.1604H68.1498V19.6681C68.6627 19.6681 69.0995 19.6801 69.4823 19.6906C71.1892 19.7375 71.8231 19.755 73.3529 18.5472C74.3045 17.4895 74.5819 16.4198 74.5878 15.0057L74.5783 14.4207C74.5773 14.0059 74.576 13.591 74.5743 13.1762C74.5663 12.5267 74.5584 11.8774 74.556 11.2278C74.555 10.8012 74.5534 10.3746 74.551 9.94801L74.5466 9.33819C74.5372 7.6333 74.3824 6.8102 73.226 5.51423C72.8368 5.28875 72.5329 5.11266 72.2128 4.97514ZM69.6727 8.345H68.1498V16.0653H69.9265C69.9764 16.0146 70.0178 15.9727 70.052 15.9255C70.2162 15.6994 70.2178 15.352 70.2274 13.3406L70.2279 12.3499L70.2373 11.3622L70.2388 10.4208L70.2419 9.55186C70.2117 9.21294 70.1963 9.03997 70.1289 8.89128C70.0586 8.73629 69.9317 8.60768 69.6727 8.345Z" fill="#DEE7F1"/>
</svg>
