<svg width="108" height="33" viewBox="0 0 75 23" fill="none" xmlns="http://www.w3.org/2000/svg">
<path d="M43.3255 3.76078C45.062 4.63206 46.2054 6.43183 47.3924 7.94069C48.0042 8.70352 48.6318 9.45156 49.2645 10.1969C49.3782 10.332 49.492 10.467 49.6092 10.6062C50.1832 11.3084 50.1832 11.3084 50.9187 11.8161C50.9781 11.6872 51.0375 11.5583 51.0987 11.4254C51.3435 10.9625 51.5979 10.6207 51.9433 10.2301C52.0592 10.0978 52.175 9.96543 52.2944 9.82909C52.4176 9.69003 52.5409 9.55097 52.6678 9.4077C52.924 9.1151 53.1799 8.82226 53.4356 8.5292C53.5612 8.38519 53.6869 8.24119 53.8163 8.09282C54.3034 7.5283 54.7747 6.95285 55.2441 6.37333C55.4723 6.0917 55.4723 6.0917 55.7051 5.80439C55.8438 5.63291 55.9825 5.46144 56.1254 5.28477C56.5485 4.76232 56.975 4.25881 57.4271 3.76078C57.5703 3.76078 57.7134 3.76078 57.861 3.76078C57.861 8.50256 57.861 13.2443 57.861 18.1298C56.9303 18.1298 55.9996 18.1298 55.0407 18.1298C54.9691 15.8308 54.8975 13.5317 54.8237 11.163C54.1794 11.9533 53.5351 12.7436 52.8712 13.5578C52.4698 14.0438 52.0677 14.5293 51.6644 15.0138C51.5697 15.1276 51.4751 15.2414 51.3776 15.3587C51.1524 15.6293 50.9271 15.8999 50.7017 16.1704C49.8458 15.3352 49.0614 14.4566 48.2882 13.5442C48.1744 13.4111 48.0606 13.2779 47.9433 13.1407C47.3925 12.4936 46.8727 11.8453 46.3628 11.163C46.2912 13.4621 46.2196 15.7611 46.1459 18.1298C45.2152 18.1298 44.2844 18.1298 43.3255 18.1298C43.3255 13.388 43.3255 8.64625 43.3255 3.76078Z" fill="white"/>
<path d="M71.7675 4.45814C72.5514 4.98705 73.1931 5.57093 73.6981 6.37334C73.4478 7.12689 73.2908 7.21874 72.6404 7.62518C72.4889 7.72285 72.3373 7.82051 72.1811 7.92114C71.7455 8.11504 71.7455 8.11504 71.0947 7.89732C70.9291 7.72669 70.7636 7.55606 70.593 7.38026C69.6899 6.49501 68.9201 6.11895 67.6643 6.04677C66.4431 6.08921 65.5403 6.48698 64.5863 7.24419C63.3675 8.57821 63.2048 9.7818 63.2261 11.5338C63.3258 12.7569 63.6714 13.5503 64.5736 14.3811C65.8455 15.3778 66.8832 15.698 68.4913 15.5173C69.8727 15.1247 70.7247 14.525 71.5286 13.3401C71.6002 13.1246 71.6718 12.9091 71.7455 12.687C70.0273 12.687 68.3091 12.687 66.5388 12.687C66.5388 11.8249 66.5388 10.9627 66.5388 10.0745C69.3309 10.0745 72.123 10.0745 74.9997 10.0745C74.9997 12.5475 74.7122 14.4621 72.9718 16.2886C71.2602 17.8032 69.2055 18.5044 66.9269 18.4207C64.737 18.156 63.2347 17.1322 61.7659 15.5173C60.2656 13.5699 60.0541 11.6246 60.2474 9.2036C60.6712 7.12275 62.1178 5.6238 63.7185 4.31867C66.4123 2.91066 69.1067 2.92947 71.7675 4.45814Z" fill="white"/>
<path fill-rule="evenodd" clip-rule="evenodd" d="M14.8394 0.95092L14.4716 0.277372C14.2165 0.250224 13.9626 0.22078 13.7106 0.191557C10.9904 -0.123818 8.49325 -0.413331 7.30557 2.48852C6.90881 3.52377 6.37842 4.439 5.80981 5.38825C5.54532 5.82838 5.28387 6.2704 5.02554 6.71419L3.84119 8.76817C3.43747 9.4668 3.03441 10.1658 2.6338 10.8662L2.25476 11.5304L1.88848 12.1648L1.55226 12.7576C1.39865 13.0262 1.32474 13.1554 1.2563 13.2875C1.19287 13.41 1.13406 13.5349 1.02085 13.7756C0.815739 14.4175 0.741362 14.717 1.00745 15.3424L1.33449 15.8353L1.70076 16.4083C1.9826 16.8489 2.25474 17.2959 2.51901 17.7473L2.94464 18.4921C3.16126 18.8693 3.37782 19.2465 3.59416 19.6239C3.74303 19.8836 3.892 20.1433 4.04101 20.4029C4.38806 21.0074 4.735 21.612 5.08177 22.2167L5.35982 22.7018C5.57165 22.5955 5.68007 22.5411 5.76829 22.4636C5.86078 22.3823 5.93109 22.2755 6.07509 22.0569L6.39032 21.501L6.73606 20.8929L7.09538 20.2525C7.17512 20.1127 7.25533 19.9732 7.33545 19.8339C7.81106 19.0068 8.28464 18.1832 8.65131 17.2991L8.83099 16.8235C10.6221 16.6173 12.5299 16.4243 14.2546 17.0412C14.9133 17.8195 15.2445 18.2108 15.5112 18.6422C15.7808 19.0782 15.9846 19.5552 16.3944 20.5144C16.7219 21.3772 17.1271 21.9985 17.7258 22.7018C18.6457 21.2805 19.5269 19.8443 20.3593 18.3696L20.7224 17.7216L21.0982 17.0583L21.4588 16.417C21.7688 15.866 22.0601 15.3085 22.3488 14.7461C22.4269 14.4672 22.4643 14.3337 22.4593 14.2017C22.4548 14.0805 22.4145 13.9606 22.3372 13.7306L22.0309 13.2406L21.6883 12.6779C21.4278 12.2674 21.1708 11.8547 20.917 11.44L20.5148 10.7812C19.8274 9.66863 19.1595 8.54648 18.5022 7.41581L18.119 6.75432C17.0017 4.83297 15.9084 2.89975 14.8394 0.95092ZM12.953 2.67222C12.0694 2.34638 11.5687 2.33588 10.6504 2.50383C10.5797 2.52682 10.5189 2.54661 10.4611 2.5731C10.1046 2.73652 9.86427 3.15506 8.14127 6.15541C7.92826 6.52628 7.71525 6.89716 7.50259 7.26823L7.38507 7.47341C6.81272 8.4724 6.24036 9.47135 5.65094 10.4603L5.32259 11.0048C5.12742 11.3299 4.93195 11.6548 4.73614 11.9794C4.28792 12.7025 3.89495 13.3971 3.62341 14.2093C3.62443 14.9935 3.82899 15.3991 4.22212 16.0624L4.4785 16.4698C4.76875 16.9531 5.06146 17.4337 5.35988 17.9121L5.79373 17.6944L5.8268 17.6002C6.16047 16.6492 6.47729 15.7461 7.11933 14.9524C8.32346 14.5562 8.93896 14.3537 9.56935 14.2804C10.2285 14.2037 10.904 14.2683 12.2856 14.4003L12.7361 14.4287C12.7361 14.2275 12.736 14.1192 12.7119 14.0167C12.6839 13.8974 12.6233 13.7858 12.492 13.5442L12.0852 12.9047L11.7903 12.3978L11.4614 11.857C11.297 11.5806 11.2198 11.4507 11.1286 11.3315C11.0479 11.2259 10.9563 11.1287 10.7835 10.9453H9.6988L11.4344 7.89732C11.7706 8.1533 11.9411 8.28312 12.0777 8.44228C12.2181 8.60604 12.3226 8.80087 12.5347 9.19615L12.8038 9.66624C13.343 10.5952 13.8758 11.5276 14.4014 12.4644L14.7776 13.1377C15.0284 13.5861 15.2789 14.0345 15.5293 14.4831C15.5892 14.5918 15.6488 14.7004 15.7083 14.8087C16.3077 15.9003 16.8945 16.9691 17.7258 17.9121L18.0428 17.4342L18.458 16.7963C18.8748 16.1612 19.2328 15.5425 19.5512 14.8522C19.6182 14.5146 19.6498 14.3547 19.6247 14.2045C19.602 14.0694 19.5334 13.942 19.4031 13.7001C19.0299 13.1262 18.6912 12.5404 18.3512 11.9463L18.248 11.7658C17.9393 11.2261 17.6307 10.6865 17.3184 10.149L17.1939 9.93557C16.5758 8.87559 15.9585 7.81694 15.3907 6.7285C15.2706 6.4933 15.1521 6.25398 15.0329 6.01315C14.4495 4.83455 13.848 3.61958 12.953 2.67222Z" fill="white"/>
<path d="M33.9968 3.76078C34.2116 3.76078 34.4264 3.76078 34.6477 3.76078C34.7481 3.96335 34.8484 4.16593 34.9518 4.37464C36.7017 7.90486 38.454 11.431 40.3004 14.9116C40.5997 15.4784 40.8932 16.0478 41.1832 16.6194C41.2643 16.7791 41.3454 16.9388 41.429 17.1033C41.59 17.4767 41.59 17.4767 41.59 17.9121C40.6593 17.9121 39.7286 17.9121 38.7697 17.9121C37.2241 15.1369 35.6759 12.348 34.4307 9.42131C33.7558 10.2344 33.3256 11.1488 32.8621 12.0917C32.7335 12.3508 32.7334 12.3508 32.6022 12.6151C32.3295 13.1648 32.0581 13.7151 31.7867 14.2654C31.6016 14.6391 31.4165 15.0127 31.2312 15.3863C30.7782 16.3003 30.3262 17.2149 29.8748 18.1298C28.8725 18.1298 27.8703 18.1298 26.8376 18.1298C27.3251 16.6623 27.3251 16.6623 27.6969 15.9748C27.78 15.8193 27.863 15.6638 27.9486 15.5035C28.0384 15.3374 28.1282 15.1713 28.2206 15.0002C29.0934 13.3624 29.9337 11.711 30.7562 10.0472C31.8027 7.93302 32.8823 5.83959 33.9968 3.76078Z" fill="white"/>
</svg>
