<svg width="128" height="20" viewBox="0 0 88 14" fill="none" xmlns="http://www.w3.org/2000/svg">
<path d="M15.4803 0.913938C19.7042 0.913938 23.9281 0.913938 28.2801 0.913938C27.9799 8.14308 27.98 8.14307 27.514 10.7595C27.4229 11.3014 27.3582 11.8381 27.3039 12.3847C27.2681 12.6227 27.2323 12.8606 27.1954 13.1058C26.5304 13.4395 25.8357 13.3459 25.1073 13.3372C24.954 13.3362 24.8008 13.3352 24.6429 13.3342C24.2643 13.3316 23.8858 13.3277 23.5073 13.3236C23.5013 12.9879 23.4972 12.6523 23.4937 12.3166C23.4912 12.1297 23.4887 11.9428 23.4861 11.7502C23.5073 11.1464 23.5073 11.1464 23.7243 9.84016C21.8629 9.912 20.0014 9.98385 18.0836 10.0579C18.012 10.92 17.9404 11.7822 17.8667 12.6704C17.7951 12.886 17.7235 13.1015 17.6497 13.3236C16.5758 13.3236 15.5019 13.3236 14.3955 13.3236C14.3502 11.4826 14.4407 9.68719 14.5989 7.85353C14.6177 7.63152 14.6366 7.40951 14.656 7.18078C14.8013 5.57064 14.8013 5.57064 15.0464 4.83277C15.1896 3.53955 15.3327 2.24634 15.4803 0.913938Z" fill="white"/>
<path d="M46.7206 1.13165C50.8729 1.13165 55.0253 1.13165 59.3035 1.13165C59.3035 4.17963 59.3035 4.17963 58.6527 5.26819C58.0018 5.70362 58.0018 5.70362 57.351 5.70362C57.351 5.84731 57.351 5.991 57.351 6.13904C57.0662 6.49282 57.0663 6.49282 56.7002 6.79218C56.4854 6.79218 56.2706 6.79218 56.0493 6.79218C56.0493 6.93587 56.0493 7.07956 56.0493 7.2276C55.8748 7.29047 55.7003 7.35333 55.5205 7.4181C54.9358 7.60482 54.9358 7.60482 54.7476 8.09845C54.5328 8.09845 54.3181 8.09845 54.0968 8.09845C54.0968 8.24215 54.0968 8.38584 54.0968 8.53388C52.9483 9.40473 52.9482 9.40473 52.1443 9.40473C52.1443 9.76396 52.1443 10.1232 52.1443 10.4933C54.1488 10.4933 56.1535 10.4933 58.2188 10.4933C58.1472 11.571 58.0756 12.6487 58.0018 13.759C53.7779 13.759 49.5539 13.759 45.202 13.759C45.202 12.4259 45.2332 11.3394 45.4189 10.0579C45.5576 10.0309 45.6963 10.004 45.8392 9.97623C45.9869 9.93132 46.1346 9.88642 46.2867 9.84016C46.3583 9.69647 46.4299 9.55278 46.5036 9.40473C47.0596 9.26866 47.0596 9.26866 47.5884 9.18702C47.66 8.97148 47.7316 8.75595 47.8053 8.53388C48.0201 8.53388 48.2349 8.53388 48.4562 8.53388C48.5054 8.40815 48.5546 8.28242 48.6053 8.15288C48.9657 7.53297 49.3924 7.20133 49.9748 6.79218C50.118 6.79218 50.2612 6.79218 50.4087 6.79218C50.4087 6.64849 50.4087 6.5048 50.4087 6.35675C50.9099 6.21306 51.411 6.06937 51.9273 5.92133C51.9989 5.5621 52.0705 5.20288 52.1443 4.83277C50.2829 4.83277 48.4214 4.83277 46.5036 4.83277C46.4992 4.30291 46.4947 3.77305 46.4901 3.22713C46.4881 3.06061 46.4861 2.89408 46.4841 2.7225C46.4795 1.61546 46.4795 1.61546 46.7206 1.13165Z" fill="white"/>
<path d="M8.5291 0.671509C8.80971 0.672649 9.09033 0.673789 9.37945 0.674964C9.60291 0.675426 9.60292 0.675426 9.83089 0.675897C10.3084 0.67712 10.7858 0.679853 11.2633 0.682618C11.5863 0.683709 11.9094 0.684703 12.2324 0.685594C13.0258 0.688 13.8191 0.69176 14.6125 0.696225C14.6125 0.983605 14.6125 1.27099 14.6125 1.56708C14.3376 1.71383 14.0617 1.85859 13.7853 2.0025C13.6318 2.08333 13.4783 2.16415 13.3201 2.24743C12.8769 2.43793 12.8769 2.43793 12.226 2.43793C12.1723 2.57713 12.1187 2.71633 12.0633 2.85974C11.7921 3.30878 11.7921 3.30878 11.3311 3.47206C11.1298 3.499 11.1298 3.499 10.9244 3.52649C10.9244 3.67018 10.9244 3.81387 10.9244 3.96191C10.28 4.10561 9.63569 4.2493 8.97184 4.39734C8.97184 4.54103 8.97184 4.68472 8.97184 4.83277C8.75706 4.83277 8.5423 4.83277 8.32101 4.83277C8.32101 5.26384 8.32101 5.69491 8.32101 6.13904C8.4642 6.13904 8.60736 6.13904 8.75489 6.13904C9.32157 6.54849 9.40458 6.78681 9.55489 7.48614C9.58845 7.78924 9.58843 7.78924 9.62266 8.09845C9.76585 8.09845 9.90904 8.09845 10.0566 8.09845C10.5617 8.48372 10.6972 8.7115 10.8566 9.33669C10.8789 9.50284 10.9013 9.66898 10.9244 9.84016C11.0676 9.84016 11.2107 9.84016 11.3582 9.84016C11.4656 10.4868 11.4656 10.4868 11.5752 11.1464C11.7766 11.1666 11.7765 11.1666 11.982 11.1873C12.443 11.3641 12.443 11.3641 12.7277 11.8676C12.8769 12.4527 12.8769 12.4527 12.6599 13.3236C10.369 13.3236 8.078 13.3236 5.71762 13.3236C5.71762 13.108 5.71762 12.8925 5.71762 12.6704C5.39545 12.5627 5.39547 12.5627 5.06679 12.4527C4.84985 12.1624 4.63289 11.8721 4.41594 11.5819C4.09377 11.4741 4.09379 11.4741 3.76511 11.3641C3.76511 11.9389 3.76511 12.5137 3.76511 13.1058C2.61963 13.1058 1.47414 13.1058 0.293945 13.1058C0.43713 11.2379 0.580325 9.3699 0.727848 7.44532C0.871033 7.44532 1.01423 7.44532 1.16175 7.44532C1.15923 7.27497 1.1567 7.10461 1.15411 6.9291C1.15215 6.70879 1.1502 6.48849 1.14818 6.2615C1.14566 6.04176 1.14316 5.82201 1.14057 5.59561C1.16175 5.05048 1.16176 5.05048 1.3787 4.83277C1.42452 4.33918 1.45872 3.84449 1.48716 3.3496C1.53679 2.49143 1.60425 1.75017 1.81258 0.913938C2.88646 0.913938 3.96037 0.913938 5.06679 0.913938C5.06679 1.56054 5.06679 2.20715 5.06679 2.87335C5.28157 2.87335 5.49634 2.87335 5.71762 2.87335C5.71762 2.72966 5.71762 2.58597 5.71762 2.43793C6.13711 2.06969 6.13713 2.06969 6.68035 1.66232C7.96315 0.693297 7.96314 0.693297 8.5291 0.671509Z" fill="white"/>
<path d="M84.6863 1.13165C85.7601 1.13165 86.8341 1.13165 87.9405 1.13165C87.9964 4.0223 87.9964 4.0223 87.7371 5.07089C87.411 6.42968 87.3524 7.80968 87.2625 9.20063C87.2438 9.47215 87.225 9.74367 87.2057 10.0234C87.1601 10.688 87.1158 11.3526 87.0727 12.0173C86.9295 12.0173 86.7863 12.0173 86.6388 12.0173C86.6388 12.4484 86.6388 12.8794 86.6388 13.3236C85.4217 13.3236 84.2047 13.3236 82.9507 13.3236C82.8791 13.108 82.8075 12.8925 82.7338 12.6704C82.519 12.5986 82.3042 12.5267 82.0829 12.4527C82.0829 12.2372 82.0829 12.0216 82.0829 11.7996C81.9398 11.7996 81.7966 11.7996 81.649 11.7996C80.7813 10.8519 80.7812 10.8519 80.7812 10.0579C80.6381 10.0579 80.4949 10.0579 80.3473 10.0579C79.9948 9.77212 79.9948 9.77212 79.6965 9.40473C79.6965 9.1892 79.6965 8.97366 79.6965 8.75159C79.3743 8.64383 79.3744 8.64383 79.0457 8.53388C79.0457 8.39019 79.0457 8.2465 79.0457 8.09845C78.8309 8.02661 78.6161 7.95476 78.3948 7.88074C78.3232 7.73705 78.2516 7.59336 78.1779 7.44532C78.0347 7.44532 77.8915 7.44532 77.744 7.44532C77.6724 8.30746 77.6008 9.1696 77.5271 10.0579C77.3839 10.0579 77.2407 10.0579 77.0931 10.0579C77.0957 10.2703 77.0982 10.4828 77.1008 10.7017C77.1027 10.9786 77.1047 11.2556 77.1067 11.541C77.1092 11.8163 77.1118 12.0917 77.1144 12.3753C77.0932 13.1058 77.0932 13.1058 76.8762 13.759C75.7307 13.759 74.5853 13.759 73.4051 13.759C73.3839 11.5691 73.3839 11.5691 73.4051 10.9287C73.5124 10.821 73.5124 10.821 73.622 10.711C73.6968 10.2865 73.7568 9.85944 73.8118 9.43194C73.8295 9.29469 73.8473 9.15744 73.8655 9.01603C74.1783 6.53707 74.4375 4.0511 74.7067 1.56708C75.3485 1.56122 75.9903 1.55689 76.6322 1.55347C76.8148 1.55164 76.9974 1.54982 77.1855 1.54794C77.3603 1.54724 77.5351 1.54654 77.7152 1.54581C77.9572 1.5441 77.9572 1.5441 78.2041 1.54236C78.6118 1.56708 78.6118 1.56708 79.0457 1.78479C79.4817 2.42422 79.6965 2.74103 79.6965 3.52649C79.9113 3.59833 80.1261 3.67018 80.3473 3.7442C80.5672 4.10527 80.7837 4.46846 80.9982 4.83277C81.1861 5.01687 81.374 5.20097 81.5677 5.39065C82.0583 5.89599 82.2242 6.10881 82.2999 6.79218C82.4431 6.79218 82.5863 6.79218 82.7338 6.79218C82.8412 7.33102 82.8411 7.33102 82.9507 7.88074C83.2371 7.88074 83.5235 7.88074 83.8185 7.88074C83.8294 7.70723 83.8403 7.53372 83.8515 7.35496C83.9018 6.56852 83.955 5.7823 84.0083 4.99605C84.0254 4.72298 84.0424 4.44991 84.06 4.16857C84.0782 3.90617 84.0964 3.64376 84.1151 3.37341C84.131 3.1317 84.1469 2.89 84.1633 2.64097C84.2524 2.0025 84.2524 2.0025 84.6863 1.13165Z" fill="white"/>
<path d="M60.6052 1.56708C64.8291 1.56708 69.0531 1.56708 73.4051 1.56708C73.3335 2.64475 73.2618 3.72243 73.1881 4.83277C70.038 4.83277 66.888 4.83277 63.6424 4.83277C63.6424 5.19199 63.6424 5.55122 63.6424 5.92133C64.0107 5.91754 64.0107 5.91754 64.3865 5.91367C64.708 5.91163 65.0294 5.90965 65.3509 5.90772C65.5128 5.9059 65.6747 5.90407 65.8415 5.90219C67.0644 5.89667 67.0644 5.89667 67.5475 6.13904C67.4808 6.64265 67.4128 7.14608 67.3441 7.64942C67.3063 7.92979 67.2686 8.21015 67.2297 8.49901C67.1136 9.18702 67.1136 9.18702 66.8966 9.40473C66.2756 9.42068 65.6599 9.42484 65.039 9.41834C64.8641 9.41736 64.6892 9.41637 64.5089 9.41536C64.0755 9.41279 63.642 9.40888 63.2085 9.40473C63.2085 9.76396 63.2085 10.1232 63.2085 10.4933C66.1438 10.4933 69.0791 10.4933 72.1034 10.4933C72.1034 12.6704 72.1034 12.6704 71.8864 13.759C67.7341 13.759 63.5817 13.759 59.3035 13.759C59.3035 9.46305 59.3035 9.46305 59.5204 7.44532C59.6636 7.44532 59.8068 7.44532 59.9543 7.44532C59.9543 7.01425 59.9543 6.58317 59.9543 6.13904C60.0975 6.13904 60.2407 6.13904 60.3882 6.13904C60.3857 5.91845 60.3832 5.69787 60.3806 5.47059C60.3786 5.17634 60.3766 4.88209 60.3747 4.58784C60.3729 4.44303 60.371 4.29821 60.3692 4.14901C60.3647 3.24264 60.4544 2.47461 60.6052 1.56708Z" fill="white"/>
<path d="M30.7013 0.674964C31.1203 0.678752 31.1203 0.678752 31.5479 0.682618C31.8278 0.684582 32.1077 0.686547 32.3962 0.688571C32.6129 0.691097 32.8296 0.693622 33.0529 0.696225C33.3053 1.469 33.2533 2.12404 33.175 2.92778C33.1529 3.1624 33.1308 3.39702 33.108 3.63875C33.0899 3.81724 33.0717 3.99573 33.0529 4.17963C32.9098 4.17963 32.7666 4.17963 32.6191 4.17963C32.6159 4.31853 32.6127 4.45743 32.6095 4.60054C32.4906 9.29335 32.4906 9.29335 32.0902 11.5683C32.0637 11.7224 32.0372 11.8766 32.0099 12.0355C31.9405 12.396 31.8482 12.7518 31.7513 13.1058C31.1256 13.4198 30.576 13.344 29.8801 13.3372C29.6223 13.3352 29.3644 13.3332 29.0988 13.3312C28.9002 13.3287 28.7017 13.3262 28.4971 13.3236C28.4509 11.6073 28.5114 9.99145 28.8055 8.30086C29.0902 6.35925 29.2095 4.3936 29.3649 2.43793C29.508 2.43793 29.6512 2.43793 29.7987 2.43793C29.7943 2.19096 29.7898 1.94399 29.7852 1.68954C29.8024 0.702838 29.8024 0.702838 30.7013 0.674964Z" fill="white"/>
<path d="M38.9105 3.52649C39.1252 3.59833 39.34 3.67018 39.5613 3.7442C39.5613 3.88789 39.5613 4.03158 39.5613 4.17963C40.0982 4.2874 40.0982 4.2874 40.646 4.39734C40.655 4.53205 40.6639 4.66676 40.6732 4.80555C40.7358 4.95822 40.7985 5.11089 40.863 5.26819C41.513 5.55221 41.513 5.55221 42.1647 5.70362C42.1647 5.84731 42.1647 5.991 42.1647 6.13904C42.7016 6.24681 42.7016 6.24681 43.2494 6.35675C43.2494 6.50044 43.2494 6.64413 43.2494 6.79218C43.4642 6.86402 43.679 6.93587 43.9002 7.00989C43.8287 7.29727 43.7571 7.58465 43.6833 7.88074C43.3253 7.95259 42.9674 8.02443 42.5986 8.09845C42.5986 8.24215 42.5986 8.38584 42.5986 8.53388C42.2406 8.60573 41.8826 8.67757 41.5138 8.75159C41.4422 8.96713 41.3706 9.18266 41.2969 9.40473C40.8946 9.92058 40.4223 10.1945 39.8596 10.5069C39.1202 10.8428 39.1202 10.8428 38.9105 11.3641C38.6957 11.3641 38.4809 11.3641 38.2596 11.3641C38.2596 11.5078 38.2596 11.6515 38.2596 11.7996C38.0448 11.7996 37.83 11.7996 37.6088 11.7996C37.6088 11.153 37.6088 10.5064 37.6088 9.84016C36.7497 9.84016 35.8906 9.84016 35.0054 9.84016C34.9718 7.10338 34.9718 7.10338 35.2224 5.92133C35.6563 5.4859 35.6563 5.4859 36.363 5.44338C36.6399 5.44843 36.9168 5.45348 37.202 5.45869C37.619 5.46458 37.619 5.46458 38.0444 5.47059C38.3657 5.47817 38.3657 5.47817 38.6935 5.4859C38.689 5.20301 38.6846 4.92012 38.68 4.62866C38.6753 4.33384 38.678 4.03865 38.6935 3.7442C38.7651 3.67236 38.8367 3.60051 38.9105 3.52649Z" fill="white"/>
<path d="M19.2769 4.59034C19.512 4.59148 19.7472 4.59262 19.9895 4.59379C20.3702 4.59484 20.3702 4.59484 20.7586 4.59592C21.1594 4.59865 21.1594 4.59865 21.5683 4.60145C21.9704 4.60292 21.9704 4.60292 22.3806 4.60442C23.0454 4.607 23.7102 4.61059 24.3751 4.61505C24.3751 5.11797 24.3751 5.62088 24.3751 6.13904C22.4421 6.13904 20.5091 6.13904 18.5175 6.13904C18.5175 4.62494 18.5175 4.62494 19.2769 4.59034Z" fill="#401079"/>
<path d="M1.59565 0.913938C1.87327 1.73933 1.79697 2.48932 1.73123 3.3496C1.71166 3.6221 1.69209 3.89461 1.67193 4.17538C1.59566 4.83277 1.59565 4.83276 1.3787 5.05048C1.32802 5.45301 1.2891 5.85708 1.25667 6.2615C1.23849 6.48181 1.22031 6.70212 1.20158 6.9291C1.18844 7.09945 1.17529 7.2698 1.16175 7.44532C1.01857 7.44532 0.875372 7.44532 0.727848 7.44532C0.758264 6.83292 0.79009 6.22065 0.822767 5.60837C0.831296 5.43366 0.839839 5.25896 0.848627 5.07897C0.920237 3.76886 0.920229 3.76886 1.16175 3.52649C1.20696 3.12828 1.24147 2.72882 1.27021 2.32907C1.35458 1.15584 1.3546 1.15584 1.59565 0.913938Z" fill="white"/>
<path d="M52.2527 8.80079C52.3959 8.87263 52.8645 9.70647 53.012 9.78049C52.8689 9.92418 52.7257 10.0679 52.5782 10.2159C54.2964 10.2878 56.0146 10.3596 57.7849 10.4336C57.7849 10.5055 57.7849 10.5773 57.7849 10.6513C55.9235 10.6513 54.0621 10.6513 52.1443 10.6513C52.0727 10.364 52.0011 10.0766 51.9273 9.78049C52.1421 9.70865 52.0314 8.87481 52.2527 8.80079Z" fill="white"/>
</svg>
