<svg width="112" height="18" viewBox="0 0 77 13" fill="none" xmlns="http://www.w3.org/2000/svg">
<path fill-rule="evenodd" clip-rule="evenodd" d="M76.0437 1.78136L76.0445 1.83132L76.5868 2.48446V10.9753L76.1554 11.3216L76.1529 11.2526L75.0682 12.3412C74.8113 12.4062 74.682 12.4389 74.5505 12.4545C74.4173 12.4703 74.2818 12.4685 74.0091 12.4648L73.3821 12.4644L72.7318 12.4475L72.1277 12.4442C71.464 12.4391 70.8006 12.4264 70.137 12.4137L69.9021 12.4092L64.8717 12.3412V0.802424L69.9021 0.734386L71.4854 0.704359C71.9008 0.70117 72.3163 0.698401 72.7318 0.696115L73.3821 0.679239L74.0091 0.678844L74.5506 0.671509C74.6166 0.688199 74.6741 0.70276 74.7266 0.717695L74.7657 0.729204L74.7987 0.7397C74.8301 0.750012 74.8598 0.760992 74.8892 0.773323C75.1355 0.877104 75.3416 1.07717 76.0437 1.78136ZM68.7767 3.8504L70.4717 3.80958L71.0028 3.79156C71.7476 3.78284 72.0085 3.77979 72.2288 3.87302C72.2845 3.89659 72.3377 3.92635 72.3956 3.96375C72.4608 4.00598 72.532 4.05799 72.6193 4.12185C72.9675 4.59743 72.9826 4.86298 72.9852 5.44923L72.9877 5.99946L72.9801 6.57181L72.9877 7.14416L72.9829 8.19657C72.8754 8.76305 72.7095 8.95586 72.2479 9.29322C71.6341 9.34079 71.0821 9.35474 70.4717 9.33404L68.7767 9.29322V3.8504Z" fill="white"/>
<path fill-rule="evenodd" clip-rule="evenodd" d="M52.0718 0.802424H64.0039V12.3412H52.0718V0.802424ZM57.5133 3.82064L58.0379 3.82319L58.5624 3.82064C59.5461 3.82231 59.781 3.82271 59.9448 3.93106C59.9677 3.94618 59.9892 3.9634 60.0112 3.98302C60.0385 4.00747 60.0666 4.03564 60.0989 4.06811C60.1178 4.43989 60.1222 4.81246 60.1201 5.18474L60.1179 5.86722L60.1124 6.58542L60.1094 7.30616C60.1069 7.89594 60.1031 8.48572 60.0989 9.0755H55.9769C55.9712 8.24545 55.9668 7.41547 55.9633 6.58542L55.9578 5.86722L55.9557 5.18474L55.9523 4.55249C55.9936 3.73945 56.4454 3.76642 57.0666 3.80352L57.1951 3.81093C57.2976 3.81646 57.404 3.82082 57.5133 3.82064Z" fill="white"/>
<path fill-rule="evenodd" clip-rule="evenodd" d="M39.272 0.802424H51.2041V12.3412H39.272V0.802424ZM45.238 3.82319L44.7134 3.82064C44.5607 3.8209 44.4124 3.81173 44.2718 3.80304C43.6613 3.76528 43.1973 3.73657 43.149 4.52905L43.1473 5.7792L43.1499 6.46295L43.1473 7.14671L43.1482 7.79644C43.1486 8.15036 43.1555 8.50454 43.177 8.85779C43.2747 8.95583 43.3284 9.00972 43.3929 9.04162C43.4716 9.08052 43.5665 9.08664 43.777 9.10022L44.2694 9.09677L44.8011 9.09464L45.36 9.08911C46.0064 9.08568 46.6527 9.08135 47.299 9.0755C47.3035 8.48572 47.307 7.89597 47.3096 7.30616L47.3125 6.58542L47.3181 5.86722L47.3202 5.18474C47.3222 4.81249 47.3179 4.43992 47.299 4.06811C47.2406 4.00959 47.1962 3.96503 47.1449 3.93106C46.981 3.82274 46.7463 3.82231 45.7626 3.82064L45.238 3.82319Z" fill="white"/>
<path fill-rule="evenodd" clip-rule="evenodd" d="M13.6722 0.802424H25.6043V12.3412H13.6722V0.802424ZM19.6383 3.82319L19.1137 3.82064C18.958 3.8209 18.8081 3.81195 18.667 3.80352C18.0458 3.76642 17.594 3.73945 17.5527 4.55249L17.5561 5.18474L17.5582 5.86722L17.5637 6.58542C17.5672 7.41547 17.5716 8.24545 17.5773 9.0755H21.6993C21.7035 8.48572 21.7073 7.89594 21.7099 7.30616L21.7128 6.58542L21.7183 5.86722L21.7205 5.18474C21.722 4.9037 21.7199 4.62249 21.7107 4.34158C21.7078 4.25037 21.7039 4.15922 21.6993 4.06811C21.641 4.00957 21.5966 3.96503 21.5453 3.93106C21.3814 3.82271 21.1466 3.82231 20.1629 3.82064L19.6383 3.82319Z" fill="white"/>
<path d="M26.6891 0.802424H38.4042V3.63269H30.5941V9.51092H34.933V8.20466L31.6788 7.98694V5.37439H38.4042V12.3412H26.6891V0.802424Z" fill="white"/>
<path d="M0.438477 0.802424C3.11567 0.802424 3.84947 0.802422 4.41885 1.10951C4.63357 1.2253 4.82498 1.38479 5.08832 1.60444L5.08928 1.60524C5.35686 1.98387 5.61344 2.37045 5.86217 2.76184C6.13568 3.14956 6.41511 3.5318 6.69901 3.9119C6.88841 4.16623 7.07347 4.42386 7.25366 4.68484C7.36997 4.85227 7.4384 4.95061 7.5133 5.0436C7.62008 5.176 7.7403 5.29753 8.03161 5.5921H9.11635L9.33329 0.802424H12.8045V12.3412C9.69401 12.3412 8.93077 12.3412 8.32177 12.0335C8.26531 12.005 8.21021 11.9738 8.1546 11.9398C8.06202 11.883 7.96818 11.8181 7.865 11.7441C7.81712 11.7097 7.76712 11.6733 7.71437 11.6348L7.70111 11.6251L7.54962 11.4146C7.51255 11.3626 7.481 11.318 7.45261 11.2769C7.42485 11.2369 7.40007 11.2002 7.37581 11.1631C7.35039 11.1243 7.3255 11.0852 7.29848 11.0415C7.24372 10.9529 7.18015 10.8456 7.08471 10.6849L7.08247 10.6811L6.75876 10.2108C6.65166 10.055 6.54572 9.89825 6.44127 9.74057C6.34275 9.59193 6.24553 9.44247 6.14966 9.29216C5.73727 8.66913 5.26545 8.11608 4.77742 7.55152L3.90965 7.76923L3.69269 12.3412H0.438477V0.802424Z" fill="white"/>
</svg>
