<svg width="83" height="18" viewBox="0 0 83 18" fill="none" xmlns="http://www.w3.org/2000/svg">
<path d="M6.29146 0.877007C7.18182 0.858079 8.07212 0.846444 8.96262 0.836184C9.21585 0.830711 9.46908 0.825242 9.72998 0.819604C9.97258 0.817499 10.2152 0.815393 10.4651 0.813224C10.689 0.809804 10.9128 0.80638 11.1434 0.802856C11.8208 0.890702 11.9365 1.01833 12.366 1.53015C12.574 1.92266 12.574 1.92265 12.7543 2.36496C12.8232 2.53167 12.8921 2.69839 12.9631 2.87016C13.0356 3.05042 13.1082 3.23069 13.1829 3.41642C13.2602 3.60484 13.3376 3.79327 13.4173 3.9874C13.665 4.5919 13.9104 5.1973 14.1558 5.80275C14.3175 6.19855 14.4794 6.59429 14.6414 6.98997C14.9599 7.76831 15.2771 8.54713 15.5935 9.32634C15.8963 10.0714 16.2022 10.815 16.5113 11.5575C16.6179 11.8145 16.6179 11.8145 16.7268 12.0767C16.8603 12.3981 16.9945 12.7192 17.1293 13.04C17.5727 14.109 17.5727 14.109 17.5727 14.5929C16.6823 14.6118 15.792 14.6235 14.9015 14.6337C14.5217 14.6419 14.5217 14.6419 14.1342 14.6503C13.8916 14.6524 13.649 14.6545 13.399 14.6567C13.1752 14.6601 12.9514 14.6635 12.7208 14.6671C12.149 14.5929 12.149 14.5929 11.785 14.3527C11.3781 13.767 11.1328 13.1562 10.8651 12.4949C10.8083 12.3557 10.7514 12.2164 10.6928 12.073C10.5123 11.63 10.334 11.1861 10.1558 10.7421C10.0335 10.4409 9.91106 10.1396 9.78846 9.83851C9.48885 9.10174 9.1913 8.36415 8.89482 7.6261C8.3344 8.1885 8.15916 8.73826 7.86432 9.47751C7.74908 9.76284 7.63383 10.0482 7.51856 10.3335C7.33816 10.7839 7.15826 11.2345 6.97874 11.6852C6.80511 12.12 6.62973 12.5541 6.45417 12.9881C6.29812 13.379 6.29812 13.379 6.13892 13.7778C5.85756 14.3752 5.85756 14.3752 5.42367 14.5929C5.01442 14.6114 4.60453 14.6162 4.19487 14.6142C3.95157 14.6135 3.70827 14.6128 3.45759 14.612C3.20254 14.6102 2.94749 14.6084 2.68472 14.6065C2.42799 14.6055 2.17126 14.6045 1.90676 14.6035C1.27116 14.601 0.635586 14.5974 0 14.5929C0.448092 12.9384 1.05011 11.3858 1.73557 9.81683C1.8782 9.48153 1.8782 9.48153 2.02371 9.13946C2.11655 8.92547 2.2094 8.71148 2.30506 8.491C2.3884 8.29849 2.47174 8.10599 2.5576 7.90765C2.82413 7.40112 3.00751 7.08881 3.47115 6.75525C4.00308 6.6811 4.00308 6.6811 4.62622 6.69147C4.84925 6.69357 5.07228 6.69567 5.30206 6.69784C5.65087 6.70605 5.65087 6.70605 6.00672 6.71443C6.24177 6.71737 6.47682 6.72032 6.719 6.72336C7.29975 6.73106 7.88028 6.74181 8.46093 6.75525C7.61066 4.40494 7.61066 4.40494 6.644 2.10164C6.29146 1.31243 6.29146 1.31243 6.29146 0.877007Z" fill="white"/>
<path d="M14.9693 0.877007C16.7591 0.877007 18.549 0.877007 20.393 0.877007C21.6672 3.3286 22.741 5.84073 23.7873 8.39782C24.0707 9.08968 24.3565 9.78049 24.6425 10.4712C24.8236 10.9116 25.0045 11.352 25.1853 11.7924C25.2707 11.9985 25.3561 12.2047 25.4441 12.417C25.5605 12.703 25.5605 12.703 25.6793 12.9947C25.748 13.1619 25.8166 13.3292 25.8874 13.5015C26.0336 13.9398 26.0336 13.9398 26.0336 14.5929C25.1433 14.6244 24.2531 14.6438 23.3625 14.6609C23.1092 14.6701 22.856 14.6792 22.5951 14.6886C22.3525 14.6921 22.1099 14.6956 21.8599 14.6992C21.5242 14.7078 21.5242 14.7078 21.1817 14.7165C20.6099 14.5929 20.6099 14.5929 20.2579 14.1605C19.8723 13.3138 19.4944 12.466 19.1345 11.6079C19.0567 11.4238 18.9788 11.2398 18.8986 11.0503C18.734 10.6606 18.5697 10.2709 18.4058 9.88093C18.1596 9.29535 17.9122 8.71029 17.6646 8.1253C16.9338 6.39554 16.2085 4.66329 15.5024 2.92316C15.3986 2.66816 15.2948 2.41316 15.1878 2.15044C14.9693 1.53015 14.9693 1.53014 14.9693 0.877007Z" fill="white"/>
<path d="M69.8569 1.31243H72.0263V14.8106H69.8569V1.31243Z" fill="white"/>
<path d="M37.5454 1.51653L36.8208 1.50888C36.1048 1.53465 36.0975 1.53497 35.8437 2.17547L35.6411 2.74542L35.4098 3.39319C35.2404 3.87186 35.0706 4.35041 34.9005 4.82884L34.631 5.58674C34.3424 6.40009 34.0531 7.21314 33.7597 8.02474C33.6085 8.44239 33.4574 8.86007 33.3067 9.27792C33.165 9.67136 33.0232 10.0648 32.8815 10.4582L32.8674 10.4972L32.5828 11.2799L32.3183 12.0169C32.0079 12.8755 31.8032 13.6882 31.6742 14.5929H34.0607L34.4945 12.8512H40.5691C40.5691 12.9824 40.5691 13.0785 40.5816 13.1729C40.6158 13.4309 40.7434 13.6764 41.2199 14.5929H43.3894C43.3894 14.0451 43.3894 13.8419 43.3461 13.6484C43.3206 13.5343 43.2801 13.4236 43.2157 13.2477C43.0699 12.9036 42.9281 12.5573 42.8018 12.2055L42.4545 11.1997C41.3323 7.94436 40.1984 4.69243 38.8335 1.53015L38.2716 1.52249L37.5454 1.51653Z" fill="white"/>
<path fill-rule="evenodd" clip-rule="evenodd" d="M53.8706 7.55805C53.2351 6.25218 52.6015 5.31553 51.2376 4.72268C49.995 4.34211 49.0077 4.35825 47.9317 5.12239L47.2944 5.66667L47.0775 4.79582H44.908V17.4232H47.0775L47.2944 13.722L47.5114 14.1575C48.6461 14.9641 49.5889 15.2614 50.9825 15.0283L51.6333 14.5929C52.2085 14.2086 52.6939 13.808 53.152 13.2866C54.1463 11.4912 54.2819 9.54685 53.8706 7.55805ZM50.1147 6.97295C50.945 7.34327 51.3031 7.65686 51.6334 8.49694C51.7679 9.51726 51.8779 10.6231 51.4054 11.5628C51.0263 12.024 50.6489 12.3654 50.1147 12.6335C49.2383 12.7165 48.7494 12.7258 47.9859 12.2661C47.0962 11.3222 46.9911 10.4428 47.0224 9.1824C47.1239 8.32022 47.5247 7.83776 48.108 7.23149C48.8134 6.85785 49.3282 6.88987 50.1147 6.97295Z" fill="white"/>
<path fill-rule="evenodd" clip-rule="evenodd" d="M61.2409 4.72014C62.5956 5.33044 63.4961 6.307 64.0807 7.66692C64.4058 9.65704 64.4206 11.5186 63.3485 13.2866C62.5188 14.2377 61.5737 14.9417 60.2977 15.0751C58.8654 15.1358 57.8214 14.8223 56.691 13.899C55.501 12.4466 55.0178 10.9573 55.0452 9.09055C55.1857 7.68473 55.6702 6.50156 56.7316 5.55783C58.1043 4.48086 59.5427 4.23364 61.2409 4.72014ZM62.0468 8.71465C61.6653 7.80787 61.2111 7.36292 60.3112 6.97295C58.9911 6.75617 58.1097 7.07497 57.4909 8.27923C57.3138 9.57674 57.2833 10.8965 58.0197 12.0212C58.3324 12.2431 58.4692 12.3402 58.6211 12.3966C58.7392 12.4405 58.8664 12.4598 59.0926 12.494C59.1887 12.4968 59.2827 12.5009 59.3747 12.5049L59.3758 12.5049C60.0193 12.5329 60.5692 12.5567 61.1146 12.1198C61.9962 11.0006 62.178 10.0967 62.0468 8.71465Z" fill="white"/>
<path fill-rule="evenodd" clip-rule="evenodd" d="M82.2228 7.40839C81.6785 6.2248 81.0858 5.51119 79.9771 4.81625C78.6931 4.28411 76.9006 4.26103 75.7356 5.08924C74.4183 6.20312 73.6368 7.08508 73.4712 8.84479C73.418 11.0114 73.6477 12.4235 75.1229 14.0461C76.172 14.9678 77.3842 15.1011 78.7347 15.0938C79.9001 14.9246 80.7769 14.1068 81.572 13.2866C81.9372 12.856 82.185 12.5638 82.3443 12.2291C82.6802 11.523 82.6217 10.6278 82.4398 7.84382L82.2228 7.40839ZM78.7517 6.97297C79.3968 7.36083 79.929 7.81184 80.2704 8.49696C80.3906 9.78754 80.3888 10.8889 79.6195 11.9804C78.9649 12.5461 78.6441 12.6335 77.7755 12.6335C76.8802 12.3768 76.5198 12.0392 75.9314 11.3272C75.5292 10.52 75.6148 9.5956 75.7145 8.71468C76.445 7.29899 77.1493 6.78219 78.7517 6.97297Z" fill="white"/>
<path d="M67.9044 1.31243H65.7349V14.8106H67.9044V1.31243Z" fill="white"/>
<path d="M37.3149 4.79584C37.458 4.79584 37.6012 4.79584 37.7487 4.79584C38.0753 5.6935 38.4003 6.5917 38.725 7.49003C38.8647 7.87395 38.8647 7.87395 39.0072 8.26563C39.0953 8.50979 39.1834 8.75395 39.2742 9.00551C39.356 9.23125 39.4378 9.457 39.522 9.68959C39.7013 10.2387 39.7013 10.2386 39.7013 10.6741C38.2694 10.6741 36.8376 10.6741 35.3623 10.6741C35.9289 8.68395 36.6192 6.74329 37.3149 4.79584Z" fill="white"/>
</svg>
