<svg width="60" height="18" viewBox="0 0 60 18" fill="none" xmlns="http://www.w3.org/2000/svg">
<path d="M0.858398 1.21068C6.00098 1.21068 6.00099 1.21068 7.31944 1.9189C7.48467 2.007 7.64989 2.0951 7.82012 2.18587C9.84798 3.38386 10.9942 5.06092 11.8596 7.23053C12.5079 10.1315 11.8025 12.5028 10.3501 14.9794C10.037 15.4193 10.037 15.4193 9.24027 16.0832C6.44571 16.0832 3.65168 15.992 0.858398 15.9062C0.858398 11.0567 0.858398 6.20716 0.858398 1.21068Z" fill="white"/>
<path d="M35.0844 1.21068C36.1793 1.21068 37.2742 1.21068 38.4022 1.21068C38.4599 5.82649 38.5175 10.4423 38.5769 15.198C38.9226 15.198 39.2684 15.198 39.6246 15.198C39.6822 10.5822 39.7399 5.96636 39.7992 1.21068C40.8365 1.21068 41.8737 1.21068 42.9424 1.21068C42.9543 3.03302 42.9639 4.85533 42.9696 6.6777C42.9723 7.52398 42.976 8.37024 42.9819 9.21651C42.9876 10.0339 42.9908 10.8512 42.9921 11.6686C42.9931 11.9798 42.995 12.2909 42.9978 12.6021C43.0016 13.0394 43.0021 13.4766 43.0019 13.914C43.0038 14.0413 43.0057 14.1687 43.0076 14.2999C43.0016 15.3128 42.8159 16.2848 42.1812 17.094C41.6655 17.5054 40.9952 17.3839 40.3667 17.3669C40.2194 17.3638 40.072 17.3607 39.9202 17.3575C39.6182 17.3504 39.3162 17.3421 39.0143 17.3326C38.6106 17.3234 38.2097 17.3279 37.8061 17.3371C37.5778 17.336 37.3495 17.3349 37.1144 17.3337C36.8098 17.3368 36.8098 17.3368 36.4991 17.3399C35.7766 17.0807 35.6141 16.7781 35.2655 16.1032C34.8626 14.8774 34.9799 13.5373 34.9991 12.2593C35.0008 11.94 35.002 11.6208 35.0029 11.3015C35.0062 10.4658 35.0148 9.6302 35.0245 8.79454C35.0334 7.93998 35.0374 7.08539 35.0418 6.23079C35.0511 4.55735 35.0664 2.88405 35.0844 1.21068Z" fill="white"/>
<path d="M22.6862 0.85658C23.6797 1.22755 24.3626 1.93666 24.9563 2.80418C25.3471 3.72189 25.3474 4.54663 25.3274 5.52639C25.3258 5.6736 25.3242 5.82081 25.3226 5.97248C25.3185 6.33284 25.3123 6.69317 25.3056 7.05348C24.3835 7.05348 23.4615 7.05348 22.5116 7.05348C22.454 6.00178 22.3963 4.95008 22.337 3.8665C21.9336 3.8665 21.5302 3.8665 21.1146 3.8665C20.836 4.14899 20.8835 4.43779 20.8636 4.82924C20.8999 6.69265 22.3093 7.9905 23.4252 9.3465C24.6836 10.9026 25.5537 12.5129 25.5303 14.5707C25.4751 15.0669 25.3369 15.4198 25.1275 15.8702C25.0632 16.0105 24.9988 16.1508 24.9326 16.2954C24.8828 16.4007 24.833 16.5059 24.7817 16.6144C24.0363 16.6188 23.291 16.622 22.5456 16.6241C22.2926 16.625 22.0396 16.6262 21.7866 16.6278C18.907 16.6449 18.907 16.6449 17.9714 16.4374C17.5926 15.8612 17.5801 15.7054 17.5881 15.041C17.5892 14.8749 17.5903 14.7089 17.5915 14.5378C17.5944 14.3649 17.5973 14.1921 17.6003 14.0139C17.6019 13.839 17.6035 13.664 17.6051 13.4838C17.6092 13.0519 17.6155 12.62 17.6222 12.1881C18.5442 12.1881 19.4662 12.1881 20.4161 12.1881C20.4289 12.5078 20.4289 12.5078 20.442 12.834C20.4551 13.113 20.4683 13.3919 20.4816 13.6709C20.487 13.8115 20.4924 13.9521 20.498 14.0969C20.5066 14.9088 20.5066 14.9088 20.94 15.5521C21.3765 15.6259 21.3765 15.6259 21.8131 15.5521C22.2608 14.8712 22.2514 14.5942 22.1623 13.7815C21.7333 12.3945 20.7792 11.3628 19.8728 10.275C18.4752 8.56207 17.5369 6.73202 17.5642 4.47374C17.6708 3.35722 18.0378 2.4878 18.8909 1.75707C20.1695 0.874673 21.1297 0.693954 22.6862 0.85658Z" fill="white"/>
<path d="M52.0228 1.21068C54.616 1.21068 57.2091 1.21068 59.8809 1.21068C59.8809 2.20396 59.8809 3.19723 59.8809 4.22061C59.1317 4.22061 58.3826 4.22061 57.6108 4.22061C57.6108 8.71956 57.6108 13.2185 57.6108 17.8538C56.5159 17.8538 55.421 17.8538 54.2929 17.8538C54.2929 13.3548 54.2929 8.85589 54.2929 4.22061C53.5438 4.22061 52.7947 4.22061 52.0228 4.22061C52.0228 3.22733 52.0228 2.23406 52.0228 1.21068Z" fill="white"/>
<path d="M14.3044 1.21068C15.3992 1.21068 16.4941 1.21068 17.6222 1.21068C17.2252 4.14256 16.7554 7.05819 16.263 9.97499C16.1825 10.4529 16.1024 10.9309 16.0223 11.4089C15.926 11.984 15.8293 12.5591 15.7327 13.1342C15.6971 13.3464 15.6614 13.5587 15.6247 13.7774C15.5748 14.073 15.5748 14.073 15.5239 14.3746C15.4803 14.6332 15.4803 14.6332 15.4358 14.897C15.356 15.3526 15.267 15.8065 15.1775 16.2603C14.1402 16.2603 13.1029 16.2603 12.0342 16.2603C12.0342 14.4845 12.0342 14.4845 12.2743 13.4938C12.5258 12.3844 12.6874 11.2822 12.8269 10.1533C12.9152 9.47142 13.0322 8.79962 13.1584 8.1241C13.2829 7.44024 13.3956 6.75466 13.5076 6.06861C13.5295 5.93471 13.5514 5.80081 13.574 5.66285C13.6193 5.38524 13.6646 5.10763 13.7099 4.83001C13.831 4.08823 13.9531 3.34662 14.0751 2.60499C14.1508 2.14487 14.2264 1.68475 14.3044 1.21068Z" fill="white"/>
<path fill-rule="evenodd" clip-rule="evenodd" d="M32.433 1.57329C31.7177 1.21068 30.8236 1.21068 26.3533 1.21068V16.7915H29.4965V11.1257L30.7189 11.4798C30.736 12.0825 30.7538 12.6851 30.7724 13.2877C30.7801 13.5335 30.7877 13.7792 30.7953 14.025C30.8022 14.2694 30.8091 14.5137 30.8161 14.7581L30.8382 15.4566C30.8408 15.5415 30.8421 15.6238 30.8435 15.704C30.8509 16.1548 30.8572 16.5409 31.0681 16.9685H34.2113L34.2087 16.8677C34.1922 16.2357 34.1757 15.6038 34.1578 14.9718C34.1501 14.7005 34.1425 14.4291 34.1349 14.1578C34.1247 13.7573 34.1144 13.3568 34.1029 12.9563L34.0919 12.5767C34.0904 12.5128 34.0893 12.4501 34.0881 12.3887C34.0758 11.7238 34.0662 11.2021 33.6158 10.643L33.3273 10.3068L33.0374 9.96795L32.8144 9.70929L33.3382 9.53224C34.0276 8.48755 34.1194 7.63368 34.1152 6.38952L34.1022 5.76983C34.1004 4.13637 34.0979 3.16819 32.989 1.9189C32.7794 1.77726 32.6118 1.66394 32.433 1.57329ZM30.5442 3.8665H29.4965V8.64696H30.7189C30.769 8.54524 30.8066 8.46914 30.8348 8.38964C30.9185 8.15357 30.92 7.88752 30.9259 6.83147L30.9262 6.25673L30.9327 5.682L30.9337 5.13354L30.9359 4.62901C30.9166 4.44299 30.9061 4.3417 30.8673 4.25308C30.821 4.14714 30.7344 4.05932 30.5442 3.8665Z" fill="white"/>
<path fill-rule="evenodd" clip-rule="evenodd" d="M50.1034 1.548C49.3184 1.21068 48.3923 1.21068 44.1648 1.21068V17.4997H47.308V11.6569C47.6609 11.6569 47.9614 11.6651 48.2248 11.6724C49.3991 11.7047 49.8353 11.7166 50.8878 10.8857C51.5425 10.158 51.7334 9.42204 51.7374 8.44915L51.7309 8.04664C51.7302 7.76123 51.7293 7.47582 51.7282 7.19042C51.7227 6.74355 51.7172 6.29679 51.7155 5.84989C51.7149 5.55638 51.7137 5.26288 51.7121 4.96938L51.7091 4.54982C51.7026 3.37684 51.5961 2.81054 50.8005 1.9189C50.5327 1.76377 50.3236 1.64262 50.1034 1.548ZM48.3557 3.8665H47.308V9.17813H48.5304C48.5648 9.14327 48.5932 9.11443 48.6168 9.08195C48.7297 8.92638 48.7308 8.68738 48.7374 7.30349L48.7377 6.62191L48.7442 5.94239L48.7453 5.29469L48.7474 4.69683C48.7267 4.46365 48.716 4.34464 48.6696 4.24234C48.6213 4.13571 48.534 4.04722 48.3557 3.8665Z" fill="white"/>
</svg>
