<svg width="81" height="16" viewBox="0 0 81 16" fill="none" xmlns="http://www.w3.org/2000/svg">
<path d="M21.7444 0.862925C22.8899 0.862925 24.0353 0.862925 25.2155 0.862925C25.4947 1.74581 25.7732 2.62886 26.0497 3.51258C26.144 3.81299 26.2387 4.11327 26.3339 4.4134C26.4707 4.84538 26.606 5.27785 26.7409 5.71043C26.8227 5.97038 26.9045 6.23033 26.9888 6.49816C27.1681 7.1766 27.1681 7.17659 27.1681 8.04744C27.3112 8.04744 27.4544 8.04744 27.6019 8.04744C27.6573 7.78055 27.7127 7.51366 27.7697 7.23868C28.0605 5.92583 28.4414 4.64186 28.8223 3.35301C28.8927 3.11264 28.9632 2.87227 29.0358 2.62461C29.2081 2.03721 29.3812 1.45005 29.5545 0.862925C30.6999 0.862925 31.8454 0.862925 33.0256 0.862925C33.7416 3.01828 34.4575 5.17364 35.1951 7.3943C36.0465 4.70688 36.0465 4.70688 36.7629 1.98125C36.9656 1.41928 37.0768 1.18878 37.5815 0.862925C38.1564 0.815636 38.6773 0.801199 39.2493 0.822103C39.4016 0.825049 39.5538 0.827998 39.7107 0.831034C40.0858 0.838716 40.4608 0.85043 40.8357 0.862925C40.7434 2.74618 40.4222 4.47605 39.9272 6.29214C39.8598 6.5453 39.7923 6.79846 39.7228 7.05929C39.5177 7.82479 39.3091 8.58927 39.1001 9.35372C39.0069 9.70102 39.007 9.70102 38.9119 10.0553C38.742 10.6885 38.5692 11.3207 38.3951 11.9527C38.3444 12.1405 38.2937 12.3284 38.2415 12.522C37.7243 14.3557 37.7243 14.3557 37.1476 14.7965C36.4795 14.8992 35.8282 14.8782 35.1544 14.851C34.9711 14.847 34.7878 14.8431 34.5989 14.8391C34.1467 14.8288 33.6946 14.8132 33.2426 14.7965C33.2 14.623 33.1574 14.4495 33.1135 14.2708C32.9191 13.4839 32.7215 12.6979 32.5239 11.9118C32.4235 11.5022 32.4235 11.5022 32.321 11.0844C32.2545 10.822 32.1881 10.5596 32.1197 10.2892C32.0595 10.0475 31.9993 9.80579 31.9372 9.55676C31.7336 8.83606 31.7336 8.83606 31.0731 8.04744C30.5003 10.2746 29.9276 12.5018 29.3375 14.7965C27.9057 14.7965 26.4738 14.7965 24.9986 14.7965C24.5598 13.1083 24.123 11.4196 23.6887 9.73026C23.5552 9.21099 23.4214 8.69178 23.2873 8.17267C22.6611 5.74448 22.0548 3.35501 21.7444 0.862925Z" fill="white"/>
<path d="M0.91748 0.862915C3.73779 0.862915 3.7378 0.862914 4.82253 1.73376C5.164 2.14129 5.16399 2.14128 5.45218 2.55954C5.56027 2.71488 5.66836 2.87022 5.77972 3.03026C5.94353 3.27084 5.94353 3.27084 6.11065 3.51628C6.21901 3.67246 6.32739 3.82864 6.43904 3.98956C7.21697 5.11473 7.97047 6.25464 8.72757 7.39429C9.04974 4.48456 9.04974 4.48457 9.37841 1.51605C10.4523 1.51605 11.5262 1.51605 12.6326 1.51605C12.6326 5.89861 12.6326 10.2812 12.6326 14.7965C10.2462 14.7965 10.2462 14.7965 9.52925 14.3611C8.81386 13.6303 8.21185 12.7955 7.61571 11.9663C7.39383 11.6623 7.17181 11.3584 6.94963 11.0546C6.84608 10.9117 6.74254 10.7689 6.63585 10.6217C6.37685 10.2727 6.10326 9.93461 5.8276 9.59864C5.47337 9.136 5.47336 9.136 5.47336 8.70057C5.33018 8.70057 5.187 8.70057 5.03947 8.70057C5.04199 8.92172 5.04451 9.14287 5.0471 9.37072C5.06127 11.1944 5.00362 12.9793 4.82253 14.7965C3.53387 14.7965 2.2452 14.7965 0.91748 14.7965C0.91748 10.1984 0.91748 5.60034 0.91748 0.862915Z" fill="white"/>
<path d="M69.0388 0.862915C71.6422 0.862915 71.6422 0.862913 72.4727 1.38168C73.3206 2.26095 73.9729 3.29047 74.6252 4.3191C75.9114 6.31343 77.2418 8.26472 78.5844 10.2246C78.656 7.20706 78.7276 4.18956 78.8014 1.08063C79.5173 1.08063 80.2333 1.08063 80.9709 1.08063C80.9981 5.65901 80.9511 10.2217 80.7539 14.7965C79.1676 14.6107 78.1322 14.2728 77.0658 13.0548C76.583 12.4369 76.1502 11.7941 75.7235 11.1362C74.4015 9.1331 73.0248 7.18289 71.6422 5.21717C71.5706 8.37836 71.499 11.5395 71.4252 14.7965C70.6377 14.7965 69.8502 14.7965 69.0388 14.7965C69.0388 10.1984 69.0388 5.60034 69.0388 0.862915Z" fill="white"/>
<path d="M58.322 0.838198C58.6697 0.838233 59.0175 0.839471 59.3652 0.841652C59.5478 0.84196 59.7305 0.842268 59.9187 0.842585C60.5046 0.843808 61.0904 0.846539 61.6762 0.849304C62.0723 0.850395 62.4685 0.851391 62.8647 0.852283C63.838 0.854689 64.8113 0.858451 65.7846 0.862915C65.7846 1.50952 65.7846 2.15613 65.7846 2.82233C66.4289 2.82233 67.0732 2.82233 67.7371 2.82233C67.7371 3.61263 67.7371 4.40292 67.7371 5.21717C67.0928 5.21717 66.4485 5.21717 65.7846 5.21717C65.7846 4.57056 65.7846 3.92395 65.7846 3.25775C62.9925 3.25775 60.2004 3.25775 57.3237 3.25775C57.3237 4.40728 57.3237 5.5568 57.3237 6.74116C59.543 6.74116 61.7624 6.74116 64.049 6.74116C64.049 7.53146 64.049 8.32175 64.049 9.13599C61.9012 9.13599 59.7535 9.13599 57.5406 9.13599C57.5406 10.2137 57.5406 11.2913 57.5406 12.4017C60.2611 12.4017 62.9816 12.4017 65.7846 12.4017C65.7846 11.8988 65.7846 11.3959 65.7846 10.8777C66.4289 10.8777 67.0732 10.8777 67.7371 10.8777C67.7371 11.5243 67.7371 12.1709 67.7371 12.8371C67.0928 12.8371 66.4485 12.8371 65.7846 12.8371C65.7846 13.4837 65.7846 14.1303 65.7846 14.7965C62.8493 14.7965 59.914 14.7965 56.8898 14.7965C56.8898 14.1499 56.8898 13.5033 56.8898 12.8371C56.317 12.8371 55.7443 12.8371 55.1542 12.8371C55.1542 11.5439 55.1542 10.2507 55.1542 8.91828C55.7269 8.84644 56.2997 8.77459 56.8898 8.70057C56.8898 8.19766 56.8898 7.69474 56.8898 7.17658C56.317 7.03289 55.7443 6.8892 55.1542 6.74116C55.1542 5.44794 55.1542 4.15473 55.1542 2.82233C55.7985 2.82233 56.4429 2.82233 57.1067 2.82233C57.138 2.53944 57.1694 2.25655 57.2016 1.96508C57.3229 0.869799 57.3229 0.8698 58.322 0.838198Z" fill="white"/>
<path d="M45.4094 0.756613C45.6631 0.758153 45.9167 0.759695 46.1781 0.761282C46.9872 0.767369 47.7961 0.781029 48.6051 0.794884C49.1541 0.800344 49.7031 0.805308 50.2521 0.809764C51.597 0.821757 52.9417 0.839965 54.2864 0.862915C54.2864 1.50952 54.2864 2.15613 54.2864 2.82233C50.7784 2.82233 47.2703 2.82233 43.656 2.82233C43.656 6.2709 43.656 9.71946 43.656 13.2725C46.6629 13.2725 49.6698 13.2725 52.7678 13.2725C52.7678 11.6919 52.7678 10.1113 52.7678 8.48286C51.5507 8.48286 50.3336 8.48286 49.0797 8.48286C49.0797 8.05179 49.0797 7.62072 49.0797 7.17658C49.857 7.15127 50.6342 7.13581 51.4118 7.12215C51.6322 7.11485 51.8526 7.10756 52.0796 7.10004C52.2922 7.09723 52.5047 7.09443 52.7237 7.09153C52.9191 7.08697 53.1145 7.08241 53.3159 7.07772C54.0438 7.21182 54.2873 7.45105 54.7203 8.04743C54.8326 8.64864 54.8326 8.64864 54.8355 9.33245C54.8372 9.70395 54.8372 9.70395 54.8389 10.083C54.8356 10.3407 54.8322 10.5985 54.8288 10.8641C54.8321 11.121 54.8355 11.378 54.8389 11.6427C54.8378 11.8906 54.8367 12.1386 54.8355 12.394C54.8346 12.6199 54.8336 12.8458 54.8326 13.0786C54.6921 13.8661 54.4077 14.2313 53.8525 14.7965C53.241 15.0011 52.8469 15.0461 52.2124 15.0562C52.0125 15.0597 51.8127 15.0632 51.6067 15.0668C50.6937 15.0765 49.7807 15.0854 48.8677 15.0905C48.3864 15.0941 47.9052 15.1 47.424 15.1083C46.7292 15.1203 46.0347 15.125 45.3399 15.1282C45.1256 15.1331 44.9113 15.1381 44.6906 15.1432C43.7897 15.1404 42.9957 15.1249 42.2187 14.6308C41.4913 13.8918 41.5424 12.9941 41.5282 12.0046C41.5315 11.7517 41.5348 11.4988 41.5382 11.2383C41.5375 10.9766 41.5368 10.715 41.536 10.4454C41.5361 9.89272 41.5394 9.34005 41.5457 8.78742C41.5543 7.94152 41.5502 7.09636 41.5446 6.25045C41.5462 5.71325 41.5486 5.17606 41.5518 4.63887C41.5503 4.38598 41.5488 4.1331 41.5472 3.87255C41.565 2.85174 41.5953 2.14815 42.0915 1.24588C43.1758 0.649892 44.1935 0.728833 45.4094 0.756613Z" fill="white"/>
<path d="M13.9343 1.51605C16.2253 1.51605 18.5162 1.51605 20.8766 1.51605C20.8766 2.45004 20.8766 3.38403 20.8766 4.34632C19.6595 4.34632 18.4424 4.34632 17.1885 4.34632C17.1885 4.92108 17.1885 5.49584 17.1885 6.08802C18.4056 6.08802 19.6226 6.08802 20.8766 6.08802C20.8766 7.09385 20.8766 8.09968 20.8766 9.13599C19.6595 9.13599 18.4424 9.13599 17.1885 9.13599C17.1885 9.92629 17.1885 10.7166 17.1885 11.5308C18.4056 11.5308 19.6226 11.5308 20.8766 11.5308C20.8766 12.6085 20.8766 13.6862 20.8766 14.7965C18.5856 14.7965 16.2947 14.7965 13.9343 14.7965C13.9343 10.414 13.9343 6.03141 13.9343 1.51605Z" fill="white"/>
<path d="M66.0016 3.04004C66.5027 3.04004 67.0038 3.04004 67.5202 3.04004C67.5202 3.75849 67.5202 4.47695 67.5202 5.21717C67.019 5.21717 66.5179 5.21717 66.0016 5.21717C66.0016 4.49872 66.0016 3.78026 66.0016 3.04004Z" fill="white"/>
</svg>
