<svg xmlns="http://www.w3.org/2000/svg" version="1.1" xmlns:xlink="http://www.w3.org/1999/xlink" xmlns:svgjs="http://svgjs.dev/svgjs" width="1000" height="1000"><g clip-path="url(#SvgjsClipPath1064)"><rect width="1000" height="1000" fill="#7a14fc"></rect><g transform="matrix(13.72549019607843,0,0,13.72549019607843,150,150)"><svg xmlns="http://www.w3.org/2000/svg" version="1.1" xmlns:xlink="http://www.w3.org/1999/xlink" xmlns:svgjs="http://svgjs.dev/svgjs" width="51" height="51"><svg width="51" height="51" viewBox="0 0 100 120" fill="none" xmlns="http://www.w3.org/2000/svg">
    <path fill-rule="evenodd" clip-rule="evenodd" d="M16.3008 7.52161V0.521606H0.300781V65.0216C0.300781 92.912 22.9104 115.522 50.8008 115.522C78.6912 115.522 101.301 92.912 101.301 65.0216V0.521606H85.3008V7.52161H58.3008V0.521606H42.3008V7.52161H16.3008ZM42.3007 98.4666C27.4982 94.7161 16.5096 81.3966 16.3037 65.4769C18.009 65.8899 19.6836 66.4352 21.312 67.1097C25.4371 68.8184 29.1852 71.3228 32.3424 74.48C35.4996 77.6372 38.004 81.3853 39.7127 85.5104C41.4143 89.6185 42.2935 94.0204 42.3007 98.4666ZM43.6561 63.1663C46.1616 65.6717 48.3875 68.4302 50.3008 71.3923C52.2141 68.4302 54.44 65.6717 56.9454 63.1663C59.4509 60.6608 62.2094 58.4349 65.1715 56.5216C62.2094 54.6083 59.4509 52.3824 56.9454 49.8769C54.44 47.3715 52.2141 44.613 50.3008 41.6509C48.3875 44.613 46.1616 47.3715 43.6561 49.8769C41.1507 52.3824 38.3922 54.6083 35.4301 56.5216C38.3922 58.4349 41.1507 60.6608 43.6561 63.1663ZM85.3 65.2502C85.1938 81.6271 73.6769 95.2955 58.3008 98.7041V98.5216C58.3008 94.0567 59.1802 89.6354 60.8889 85.5104C62.5975 81.3853 65.102 77.6372 68.2591 74.48C71.4163 71.3228 75.1645 68.8184 79.2895 67.1097C81.2359 66.3035 83.2483 65.6819 85.3 65.2502ZM41.088 23.5216C40.7142 24.8832 40.2553 26.2229 39.7127 27.5328C38.004 31.6579 35.4996 35.406 32.3424 38.5632C29.1852 41.7204 25.4371 44.2248 21.312 45.9335C19.6826 46.6084 18.007 47.154 16.3008 47.567V23.5216H41.088ZM85.3008 47.7932V23.5216H59.5136C59.8873 24.8832 60.3463 26.2229 60.8889 27.5328C62.5975 31.6579 65.102 35.406 68.2591 38.5632C71.4163 41.7204 75.1645 44.2248 79.2895 45.9335C81.2362 46.7398 83.2488 47.3615 85.3008 47.7932Z" fill="#c2ff16"></path>
</svg></svg></g></g><defs><clipPath id="SvgjsClipPath1064"><rect width="1000" height="1000" x="0" y="0" rx="350" ry="350"></rect></clipPath></defs></svg>