<svg width="18" height="17" viewBox="0 0 18 17" fill="none" xmlns="http://www.w3.org/2000/svg">
<path fill-rule="evenodd" clip-rule="evenodd" d="M12.2621 0.0427733C11.8267 -1.65081e-05 11.2976 -8.1379e-06 10.6527 2.34189e-07H7.34726C6.70245 -8.1379e-06 6.17329 -1.65081e-05 5.73787 0.0427733C5.28188 0.0875807 4.87979 0.182755 4.4992 0.401727C4.11854 0.620741 3.83438 0.920445 3.56688 1.29203C3.31153 1.64673 3.04634 2.10385 2.72332 2.66066L1.08179 5.4901C0.757465 6.04911 0.491216 6.50805 0.30955 6.90714C0.119244 7.32525 0 7.72217 0 8.16279C0 8.60341 0.119244 9.00033 0.30955 9.41844C0.491216 9.81762 0.757465 10.2765 1.08179 10.8355L2.72329 13.6648C3.04633 14.2217 3.31152 14.6789 3.56688 15.0335C3.83438 15.4052 4.11854 15.7049 4.4992 15.9239C4.87979 16.1428 5.28188 16.238 5.73787 16.2828C6.1733 16.3256 6.70247 16.3256 7.34735 16.3256H10.6527C11.2976 16.3256 11.8267 16.3256 12.2621 16.2828C12.7181 16.238 13.1202 16.1428 13.5008 15.9239C13.8814 15.7049 14.1656 15.4052 14.4332 15.0335C14.6884 14.6789 14.9536 14.2218 15.2766 13.665L16.9182 10.8355C17.2426 10.2765 17.5088 9.81753 17.6905 9.41844C17.8808 9.00033 18 8.60341 18 8.16279C18 7.72217 17.8808 7.32525 17.6905 6.90714C17.5088 6.50805 17.2426 6.04913 16.9182 5.49014L15.2767 2.66066C14.9536 2.10385 14.6885 1.64674 14.4332 1.29203C14.1657 0.920445 13.8814 0.620741 13.5008 0.401727C13.1202 0.182755 12.7181 0.0875807 12.2621 0.0427733ZM9 11.093C10.6183 11.093 11.9302 9.78112 11.9302 8.16279C11.9302 6.54447 10.6183 5.23256 9 5.23256C7.38167 5.23256 6.06977 6.54447 6.06977 8.16279C6.06977 9.78112 7.38167 11.093 9 11.093Z" fill="#C2FF16"/>
</svg>
