<svg width="18" height="18" viewBox="0 0 18 18" fill="none" xmlns="http://www.w3.org/2000/svg">
<path fill-rule="evenodd" clip-rule="evenodd" d="M13.3864 0.605152C12.27 0.455062 10.8401 0.45507 9.01958 0.455078H8.92451C7.10401 0.45507 5.67409 0.455062 4.55769 0.605152C3.41367 0.758965 2.50598 1.0806 1.7928 1.79377C1.07963 2.50695 0.757989 3.41464 0.604175 4.55866C0.454085 5.67507 0.454093 7.10499 0.454102 8.92548V9.02055C0.454093 10.8411 0.454085 12.271 0.604175 13.3874C0.757989 14.5314 1.07963 15.4391 1.7928 16.1523C2.50598 16.8654 3.41367 17.1871 4.55769 17.3409C5.67409 17.491 7.10399 17.491 8.92451 17.491H9.01958C10.8401 17.491 12.27 17.491 13.3864 17.3409C14.5304 17.1871 15.4381 16.8654 16.1513 16.1523C16.8645 15.4391 17.1861 14.5314 17.3399 13.3874C17.49 12.271 17.49 10.8411 17.49 9.02055V8.92548C17.49 7.10497 17.49 5.67507 17.3399 4.55866C17.1861 3.41464 16.8645 2.50695 16.1513 1.79377C15.4381 1.0806 14.5304 0.758965 13.3864 0.605152ZM5.44021 9.80404C5.44021 9.45983 5.16116 9.18077 4.81695 9.18077C4.47273 9.18077 4.19368 9.45983 4.19368 9.80404V13.1281C4.19368 13.4723 4.47273 13.7514 4.81695 13.7514C5.16116 13.7514 5.44021 13.4723 5.44021 13.1281V9.80404ZM8.97204 4.19466C9.31625 4.19466 9.59531 4.47371 9.59531 4.81793V13.1281C9.59531 13.4723 9.31625 13.7514 8.97204 13.7514C8.62783 13.7514 8.34878 13.4723 8.34878 13.1281V4.81793C8.34878 4.47371 8.62783 4.19466 8.97204 4.19466ZM13.7504 8.142C13.7504 7.79779 13.4713 7.51874 13.1271 7.51874C12.7829 7.51874 12.5039 7.79779 12.5039 8.142V13.1281C12.5039 13.4723 12.7829 13.7514 13.1271 13.7514C13.4713 13.7514 13.7504 13.4723 13.7504 13.1281V8.142Z" fill="black"/>
</svg>
