<svg width="18" height="18" viewBox="0 0 18 18" fill="none" xmlns="http://www.w3.org/2000/svg">
<path fill-rule="evenodd" clip-rule="evenodd" d="M13.3869 0.604175C12.2705 0.454085 10.8406 0.454093 9.02006 0.454102H8.92499C7.1045 0.454093 5.67458 0.454085 4.55818 0.604175C3.41415 0.757989 2.50647 1.07963 1.79329 1.7928C1.08011 2.50598 0.758477 3.41367 0.604664 4.55769C0.454573 5.67409 0.454582 7.10401 0.45459 8.92451V9.01958C0.454582 10.8401 0.454573 12.27 0.604664 13.3864C0.758477 14.5304 1.08011 15.4381 1.79329 16.1513C2.50647 16.8645 3.41415 17.1861 4.55818 17.3399C5.67458 17.49 7.10448 17.49 8.92499 17.49H9.02006C10.8406 17.49 12.2705 17.49 13.3869 17.3399C14.5309 17.1861 15.4386 16.8645 16.1518 16.1513C16.865 15.4381 17.1866 14.5304 17.3404 13.3864C17.4905 12.27 17.4905 10.8401 17.4905 9.01958V8.92451C17.4905 7.10399 17.4905 5.67409 17.3404 4.55769C17.1866 3.41367 16.865 2.50598 16.1518 1.7928C15.4386 1.07963 14.5309 0.757989 13.3869 0.604175ZM9.93668 5.85591L9.97008 5.85605H11.0504C12.083 5.85605 12.9202 6.69319 12.9202 7.72585C12.9202 8.75847 12.083 9.59564 11.0504 9.59564H10.0116V11.4654C10.0116 11.8096 9.73258 12.0887 9.38837 12.0887C9.04416 12.0887 8.76511 11.8096 8.76511 11.4654V7.06103L8.76494 7.02767C8.76428 6.91618 8.76311 6.73654 8.81597 6.57383C8.91868 6.25759 9.16666 6.00965 9.48286 5.9069C9.64557 5.85403 9.82524 5.85519 9.93668 5.85591ZM10.0116 8.34911H11.0504C11.3946 8.34911 11.6737 8.07005 11.6737 7.72585C11.6737 7.38164 11.3946 7.10258 11.0504 7.10258H10.0116V8.34911ZM5.44846 5.85607C5.70826 5.85924 5.93884 6.02323 6.02708 6.2676L7.3724 9.99303L7.88597 11.2257C8.01835 11.5435 7.86811 11.9084 7.55041 12.0407C7.23263 12.1731 6.86773 12.0229 6.73534 11.7051L6.37576 10.8422H4.43581L4.16236 11.6625C4.05351 11.9891 3.70054 12.1656 3.37398 12.0567C3.04743 11.9478 2.87095 11.5949 2.9798 11.2683L3.39531 10.0218C3.39854 10.0121 3.402 10.0025 3.4057 9.99295L4.85998 6.25339C4.95416 6.01124 5.18866 5.85291 5.44846 5.85607ZM4.89771 9.59564H5.90355L5.41925 8.25446L4.89771 9.59564ZM14.9974 6.47929C14.9974 6.13507 14.7184 5.85603 14.3742 5.85603C14.0299 5.85603 13.7509 6.13507 13.7509 6.47929V11.4654C13.7509 11.8096 14.0299 12.0887 14.3742 12.0887C14.7184 12.0887 14.9974 11.8096 14.9974 11.4654V6.47929Z" fill="black"/>
</svg>
