<svg width="18" height="18" viewBox="0 0 18 18" fill="none" xmlns="http://www.w3.org/2000/svg">
<path fill-rule="evenodd" clip-rule="evenodd" d="M8.92475 17.49H9.01982C10.8403 17.49 12.2703 17.49 13.3867 17.3399C14.5306 17.1861 15.4384 16.8645 16.1515 16.1513C16.8647 15.4381 17.1863 14.5304 17.3401 13.3864C17.4902 12.27 17.4902 10.8401 17.4902 9.01958V8.92451C17.4902 7.10399 17.4902 5.67409 17.3401 4.55769C17.1863 3.41367 16.8647 2.50598 16.1515 1.7928C15.4384 1.07962 14.5306 0.757989 13.3867 0.604175C12.2703 0.454085 10.8403 0.454093 9.01982 0.454102H8.92475C7.10424 0.454093 5.67434 0.454085 4.55793 0.604175C3.41391 0.757989 2.50622 1.07962 1.79304 1.7928C1.07987 2.50598 0.758233 3.41367 0.604419 4.55769C0.454329 5.67409 0.454338 7.104 0.454346 8.92451V9.01958C0.454338 10.8401 0.454329 12.27 0.604419 13.3864C0.758233 14.5304 1.07987 15.4381 1.79304 16.1513C2.50622 16.8645 3.41391 17.1861 4.55793 17.3399C5.67434 17.49 7.10426 17.49 8.92475 17.49ZM9.80821 12.2961C9.80821 12.7551 9.43608 13.1271 8.97719 13.1271C8.51822 13.1271 8.14617 12.7551 8.14617 12.2961V8.55653H7.6523C7.50637 8.55661 7.32712 8.55678 7.1805 8.53842L7.17773 8.53808C7.07264 8.52495 6.59394 8.46529 6.36595 7.99526C6.13745 7.52416 6.38836 7.10857 6.44264 7.01865L6.44467 7.0153C6.5213 6.88814 6.63278 6.74613 6.72447 6.62933L6.7442 6.6042C6.98904 6.29188 7.30647 5.88949 7.62263 5.56455C7.78036 5.40241 7.96094 5.23518 8.15282 5.10318C8.32334 4.98584 8.61437 4.81692 8.97229 4.81692C9.3302 4.81692 9.62123 4.98584 9.79175 5.10318C9.98363 5.23518 10.1642 5.40241 10.3219 5.56455C10.6381 5.88949 10.9555 6.29188 11.2004 6.6042L11.2201 6.62933C11.3118 6.74613 11.4233 6.88814 11.4999 7.0153L11.5019 7.01866C11.5562 7.10857 11.8071 7.52424 11.5786 7.99526C11.3507 8.46529 10.8719 8.52495 10.7669 8.53808L10.764 8.53842C10.6175 8.55678 10.4382 8.55661 10.2923 8.55653H9.80821V12.2961Z" fill="black"/>
</svg>
