<svg width="18" height="19" viewBox="0 0 18 19" fill="none" xmlns="http://www.w3.org/2000/svg">
<path d="M2.44574 4.82926H15.5543C15.9864 4.82921 16.3802 4.82917 16.6954 4.87525C17.0419 4.9259 17.411 5.04706 17.6861 5.38293C17.9581 5.71511 18.0089 6.09994 17.9988 6.44984C17.9895 6.77309 17.9232 7.16871 17.8493 7.60908L16.7784 13.997C16.6092 15.0061 16.4724 15.8225 16.2842 16.4608C16.0886 17.1239 15.8165 17.6734 15.3267 18.0977C14.835 18.5237 14.2563 18.7087 13.5804 18.7952C12.9337 18.878 12.1255 18.878 11.1323 18.878H6.86764C5.87444 18.878 5.06626 18.878 4.41958 18.7952C3.74365 18.7087 3.16497 18.5237 2.67326 18.0977C2.18355 17.6734 1.91144 17.1239 1.71581 16.4608C1.52753 15.8225 1.3907 15.0062 1.22154 13.997L0.150683 7.6091C0.0768127 7.16873 0.0104586 6.7731 0.00116885 6.44984C-0.0088848 6.09994 0.0418313 5.71511 0.313894 5.38292C0.58896 5.04706 0.958083 4.9259 1.30461 4.87525C1.61979 4.82917 2.01356 4.82921 2.44574 4.82926Z" fill="black"/>
<path fill-rule="evenodd" clip-rule="evenodd" d="M8.99999 1.7561C7.06026 1.7561 5.4878 3.32856 5.4878 5.26829V5.70731C5.4878 6.19224 5.09468 6.58536 4.60975 6.58536C4.12482 6.58536 3.7317 6.19224 3.7317 5.70731V5.26829C3.7317 2.35869 6.0904 0 8.99999 0C11.9096 0 14.2683 2.35869 14.2683 5.26829V5.70731C14.2683 6.19224 13.8752 6.58536 13.3902 6.58536C12.9053 6.58536 12.5122 6.19224 12.5122 5.70731V5.26829C12.5122 3.32856 10.9397 1.7561 8.99999 1.7561Z" fill="black"/>
</svg>
