<svg width="20" height="20" viewBox="0 0 20 20" fill="none" xmlns="http://www.w3.org/2000/svg">
<path d="M5.01605 1.03857C5.63029 1.03857 6.13515 1.03856 6.54359 1.07739C6.96801 1.11775 7.35223 1.20439 7.70172 1.41856C8.04869 1.63117 8.34041 1.92289 8.55306 2.26986C8.76722 2.61935 8.85381 3.00357 8.8942 3.42799C8.93301 3.83643 8.93301 4.34128 8.93301 4.95552V5.01629C8.93301 5.63053 8.93301 6.13539 8.8942 6.54383C8.85381 6.96826 8.76722 7.35248 8.55306 7.70196C8.34041 8.04893 8.04869 8.34065 7.70172 8.55331C7.35223 8.76746 6.96801 8.85405 6.54359 8.89444C6.13515 8.93325 5.6303 8.93325 5.01607 8.93325H4.95529C4.34105 8.93325 3.83619 8.93325 3.42775 8.89444C3.00332 8.85405 2.6191 8.76746 2.26962 8.55331C1.92265 8.34065 1.63093 8.04893 1.41831 7.70196C1.20414 7.35248 1.1175 6.96826 1.07715 6.54383C1.03831 6.13539 1.03832 5.63053 1.03833 5.01629V4.95554C1.03832 4.3413 1.03831 3.83644 1.07715 3.42799C1.1175 3.00357 1.20414 2.61935 1.41831 2.26986C1.63093 1.92289 1.92265 1.63117 2.26962 1.41856C2.6191 1.20439 3.00332 1.11775 3.42775 1.07739C3.83619 1.03856 4.34105 1.03857 4.95529 1.03857H5.01605Z" fill="black"/>
<path d="M5.01605 11.0107C5.63029 11.0107 6.13515 11.0107 6.54359 11.0496C6.96801 11.0899 7.35223 11.1765 7.70172 11.3907C8.04869 11.6033 8.34041 11.895 8.55306 12.2421C8.76722 12.5915 8.85381 12.9758 8.8942 13.4002C8.93301 13.8086 8.93301 14.3135 8.93301 14.9277V14.9885C8.93301 15.6027 8.93301 16.1075 8.8942 16.516C8.85381 16.9404 8.76722 17.3247 8.55306 17.6741C8.34041 18.0211 8.04869 18.3128 7.70172 18.5255C7.35223 18.7396 6.96801 18.8262 6.54359 18.8666C6.13515 18.9054 5.6303 18.9054 5.01607 18.9054H4.95529C4.34105 18.9054 3.83619 18.9054 3.42775 18.8666C3.00332 18.8262 2.6191 18.7396 2.26962 18.5255C1.92265 18.3128 1.63093 18.0211 1.41831 17.6741C1.20414 17.3247 1.1175 16.9404 1.07715 16.516C1.03831 16.1075 1.03832 15.6027 1.03833 14.9885V14.9277C1.03832 14.3135 1.03831 13.8086 1.07715 13.4002C1.1175 12.9758 1.20414 12.5915 1.41831 12.2421C1.63093 11.895 1.92265 11.6033 2.26962 11.3907C2.6191 11.1765 3.00332 11.0899 3.42775 11.0496C3.83619 11.0107 4.34105 11.0107 4.95529 11.0107H5.01605Z" fill="black"/>
<path d="M14.9885 1.03857C15.6027 1.03857 16.1075 1.03856 16.516 1.07739C16.9404 1.11775 17.3247 1.20439 17.6741 1.41856C18.0211 1.63117 18.3128 1.92289 18.5255 2.26986C18.7396 2.61935 18.8262 3.00357 18.8666 3.42799C18.9054 3.83643 18.9054 4.34128 18.9054 4.95552V5.01629C18.9054 5.63053 18.9054 6.13539 18.8666 6.54383C18.8262 6.96826 18.7396 7.35248 18.5255 7.70196C18.3128 8.04893 18.0211 8.34065 17.6741 8.55331C17.3247 8.76746 16.9404 8.85405 16.516 8.89444C16.1075 8.93325 15.6027 8.93325 14.9885 8.93325H14.9277C14.3135 8.93325 13.8086 8.93325 13.4002 8.89444C12.9758 8.85405 12.5915 8.76746 12.2421 8.55331C11.895 8.34065 11.6033 8.04893 11.3907 7.70196C11.1765 7.35248 11.0899 6.96826 11.0496 6.54383C11.0107 6.13539 11.0107 5.63053 11.0107 5.01629V4.95554C11.0107 4.3413 11.0107 3.83644 11.0496 3.42799C11.0899 3.00357 11.1765 2.61935 11.3907 2.26986C11.6033 1.92289 11.895 1.63117 12.2421 1.41856C12.5915 1.20439 12.9758 1.11775 13.4002 1.07739C13.8086 1.03856 14.3135 1.03857 14.9277 1.03857H14.9885Z" fill="black"/>
<path d="M14.9885 11.0107C15.6027 11.0107 16.1075 11.0107 16.516 11.0496C16.9404 11.0899 17.3247 11.1765 17.6741 11.3907C18.0211 11.6033 18.3128 11.895 18.5255 12.2421C18.7396 12.5915 18.8262 12.9758 18.8666 13.4002C18.9054 13.8086 18.9054 14.3135 18.9054 14.9277V14.9885C18.9054 15.6027 18.9054 16.1075 18.8666 16.516C18.8262 16.9404 18.7396 17.3247 18.5255 17.6741C18.3128 18.0211 18.0211 18.3128 17.6741 18.5255C17.3247 18.7396 16.9404 18.8262 16.516 18.8666C16.1075 18.9054 15.6027 18.9054 14.9885 18.9054H14.9277C14.3135 18.9054 13.8086 18.9054 13.4002 18.8666C12.9758 18.8262 12.5915 18.7396 12.2421 18.5255C11.895 18.3128 11.6033 18.0211 11.3907 17.6741C11.1765 17.3247 11.0899 16.9404 11.0496 16.516C11.0107 16.1075 11.0107 15.6027 11.0107 14.9885V14.9277C11.0107 14.3135 11.0107 13.8086 11.0496 13.4002C11.0899 12.9758 11.1765 12.5915 11.3907 12.2421C11.6033 11.895 11.895 11.6033 12.2421 11.3907C12.5915 11.1765 12.9758 11.0899 13.4002 11.0496C13.8086 11.0107 14.3135 11.0107 14.9277 11.0107H14.9885Z" fill="black"/>
</svg>
