<svg width="18" height="18" viewBox="0 0 18 18" fill="none" xmlns="http://www.w3.org/2000/svg">
<path fill-rule="evenodd" clip-rule="evenodd" d="M9.6577 0.453614C11.4657 0.453597 12.0762 0.453589 13.2065 0.60554C14.3736 0.762453 15.3324 1.09495 16.0906 1.85317C16.8488 2.61138 17.1813 3.57021 17.3382 4.73727C17.4744 5.75076 17.4885 7.34857 17.49 8.97155L17.4846 10.2212C17.4775 11.6685 17.4448 12.839 17.2745 13.7825C17.1008 14.7439 16.7755 15.5232 16.1479 16.1508C15.4347 16.864 14.527 17.1856 13.383 17.3394C12.2666 17.4895 10.8367 17.4895 9.01615 17.4895H8.92108C7.1006 17.4895 5.67069 17.4895 4.55429 17.3394C3.41026 17.1856 2.50258 16.864 1.7894 16.1508C1.16184 15.5232 0.836501 14.7439 0.662851 13.7825C0.492434 12.839 0.459767 11.6685 0.452637 10.2212L0.454415 8.97147C0.455853 7.34849 0.469922 5.75074 0.606184 4.73727C0.763089 3.57021 1.09559 2.61138 1.8538 1.85317C2.61201 1.09495 3.57085 0.762453 4.73792 0.60554C5.86821 0.45358 7.3098 0.453597 9.11803 0.453614H9.6577ZM15.691 4.95874C15.8204 5.92083 15.8277 7.55741 15.8281 9.34543C15.8281 9.48304 15.7165 9.59482 15.5788 9.59482H12.77C11.7062 9.59482 10.9954 10.4589 10.6543 11.1424C10.4131 11.6257 9.94473 12.0879 8.96862 12.0879C7.9925 12.0879 7.52422 11.6257 7.28302 11.1424C6.94189 10.4589 6.23114 9.59482 5.16728 9.59482H2.36559C2.22791 9.59482 2.11628 9.48304 2.11631 9.34543C2.11671 7.55741 2.12405 5.92083 2.2534 4.95874C2.38553 3.97597 2.6311 3.42633 3.02903 3.0284C3.42698 2.63047 3.97661 2.38489 4.95937 2.25276C5.96605 2.11741 7.7112 2.11565 9.59545 2.11565C11.4797 2.11565 11.9783 2.11741 12.985 2.25276C13.9678 2.38489 14.5174 2.63047 14.9154 3.0284C15.3133 3.42633 15.5588 3.97597 15.691 4.95874Z" fill="black"/>
</svg>
