<svg width="18" height="22" viewBox="0 0 18 22" fill="none" xmlns="http://www.w3.org/2000/svg">
<path fill-rule="evenodd" clip-rule="evenodd" d="M8.75 2C6.817 2 5.25 3.567 5.25 5.5V7.06016C6.36773 7.02048 7.5154 7 8.75 7C9.9846 7 11.1323 7.02048 12.25 7.06016V5.5C12.25 3.567 10.683 2 8.75 2ZM3.25 5.5V7.27712C1.68233 7.75686 0.49925 9.1361 0.27452 10.8052C0.12636 11.9056 0 13.0618 0 14.25C0 15.4382 0.12636 16.5944 0.27452 17.6948C0.54609 19.7118 2.21716 21.3055 4.27522 21.4001C5.70364 21.4658 7.1542 21.5 8.75 21.5C10.3458 21.5 11.7964 21.4658 13.2248 21.4001C15.2828 21.3055 16.9539 19.7118 17.2255 17.6948C17.3736 16.5944 17.5 15.4382 17.5 14.25C17.5 13.0618 17.3736 11.9056 17.2255 10.8052C17.0008 9.1361 15.8177 7.75686 14.25 7.27712V5.5C14.25 2.46243 11.7876 0 8.75 0C5.71243 0 3.25 2.46243 3.25 5.5ZM8.7433 12.75C7.9186 12.75 7.25 13.4216 7.25 14.25C7.25 15.0784 7.9186 15.75 8.7433 15.75H8.7567C9.5814 15.75 10.25 15.0784 10.25 14.25C10.25 13.4216 9.5814 12.75 8.7567 12.75H8.7433Z" fill="black"/>
</svg>
