<svg width="21" height="21" viewBox="0 0 21 21" fill="none" xmlns="http://www.w3.org/2000/svg">
<path fill-rule="evenodd" clip-rule="evenodd" d="M19.9611 0.537862C19.6386 0.215402 19.2688 0.0746925 18.8704 0.0243825C18.5336 -0.0181375 18.0873 0.0038026 17.6805 0.0238026C15.2395 0.143213 12.8494 0.879583 11.0065 2.7225L9.521 4.20808C8.8726 4.8564 8.5746 5.14207 8.2992 5.28313C8.10811 5.38096 7.88647 5.42883 7.31475 5.32016C6.83833 5.20093 6.24153 5.05156 5.68448 5.0505C5.07087 5.04934 4.43163 5.21939 3.89025 5.76077C3.3737 6.27731 2.99999 6.88466 3 7.59301C3.00001 8.3013 3.37372 8.9087 3.89025 9.4252L11.0737 16.6087C11.5902 17.1252 12.1976 17.4989 12.9059 17.4989C13.6143 17.4989 14.2216 17.1252 14.7381 16.6087C15.2795 16.0673 15.4496 15.428 15.4484 14.8144C15.4474 14.2574 15.298 13.6606 15.1788 13.1842C15.0701 12.6124 15.118 12.3908 15.2158 12.1997C15.3568 11.9243 15.6425 11.6263 16.2908 10.978L17.7764 9.4924C19.6193 7.64947 20.3557 5.25938 20.4751 2.81845C20.4951 2.41164 20.5171 1.96535 20.4745 1.62855C20.4242 1.23009 20.2835 0.860322 19.9611 0.537862ZM15.2461 4.25C14.6938 4.25 14.2461 4.69772 14.2461 5.25C14.2461 5.80228 14.6938 6.25 15.2461 6.25H15.2551C15.8074 6.25 16.2551 5.80228 16.2551 5.25C16.2551 4.69772 15.8074 4.25 15.2551 4.25H15.2461Z" fill="#C2FF16"/>
<path fill-rule="evenodd" clip-rule="evenodd" d="M3.52175 11.2763C3.89275 11.6473 3.89275 12.2488 3.52175 12.6198L1.62175 14.5198C1.25075 14.8908 0.64925 14.8908 0.27825 14.5198C-0.09275 14.1488 -0.09275 13.5473 0.27825 13.1763L2.17825 11.2763C2.54925 10.9053 3.15075 10.9053 3.52175 11.2763ZM5.02825 14.1263C5.39925 13.7553 6.00075 13.7553 6.37175 14.1263C6.74275 14.4973 6.74275 15.0988 6.37175 15.4698L1.62175 20.2198C1.25075 20.5908 0.64925 20.5908 0.27825 20.2198C-0.09275 19.8488 -0.09275 19.2473 0.27825 18.8763L5.02825 14.1263ZM9.2218 16.9763C9.5927 17.3473 9.5927 17.9488 9.2218 18.3198L7.32175 20.2198C6.95075 20.5908 6.34925 20.5908 5.97825 20.2198C5.60725 19.8488 5.60725 19.2473 5.97825 18.8763L7.87825 16.9763C8.24925 16.6053 8.8508 16.6053 9.2218 16.9763Z" fill="#C2FF16"/>
</svg>
