<svg width="18" height="18" viewBox="0 0 18 18" fill="none" xmlns="http://www.w3.org/2000/svg">
<path fill-rule="evenodd" clip-rule="evenodd" d="M12.4851 3.08517C11.9754 4.12834 11.6372 5.62641 11.6372 7.32558C11.6372 9.02471 11.9754 10.5228 12.4851 11.566C13.0185 12.6579 13.6083 13.0232 14.0233 13.0232C14.4383 13.0232 15.028 12.6579 15.5615 11.566C16.0712 10.5228 16.4093 9.02471 16.4093 7.32558C16.4093 5.62641 16.0712 4.12834 15.5615 3.08517C15.028 1.99333 14.4383 1.6279 14.0233 1.6279C13.6083 1.6279 13.0185 1.99333 12.4851 3.08517ZM11.0623 2.35715C11.6802 1.09225 12.6812 0 14.0233 0C15.3653 0 16.3663 1.09225 16.9842 2.35715C17.626 3.67074 18 5.42848 18 7.32558C18 9.22271 17.626 10.9804 16.9842 12.294C16.3663 13.5589 15.3653 14.6512 14.0233 14.6512C12.6812 14.6512 11.6802 13.5589 11.0623 12.294C10.4205 10.9804 10.0465 9.22271 10.0465 7.32558C10.0465 5.42848 10.4205 3.67074 11.0623 2.35715Z" fill="#C2FF16"/>
<path d="M8.48135 1.1791C10.5344 0.528413 12.6154 0 14.0233 0C14.37 0 14.6512 0.281118 14.6512 0.627907C14.6512 0.974687 14.37 1.25581 14.0233 1.25581C13.4645 1.25581 12.7895 1.72513 12.2169 2.87041C11.663 3.97815 11.3023 5.55241 11.3023 7.32558C11.3023 9.09872 11.663 10.673 12.2169 11.7807C12.7895 12.926 13.4645 13.3954 14.0233 13.3954C14.37 13.3954 14.6512 13.6765 14.6512 14.0233C14.6512 14.37 14.37 14.6512 14.0233 14.6512C12.6154 14.6512 10.5344 14.1227 8.48135 13.4721C6.40309 12.8133 4.26783 12.0005 2.71486 11.38C1.05186 10.7155 0 9.09856 0 7.32558C0 5.55262 1.05186 3.93571 2.71486 3.27119C4.26783 2.65065 6.40309 1.83779 8.48135 1.1791Z" fill="#C2FF16"/>
<path fill-rule="evenodd" clip-rule="evenodd" d="M4.11773 10.4715C4.5766 10.5283 4.90251 10.9464 4.84567 11.4052C4.63713 13.089 5.47106 14.7254 6.93961 15.5338L8.56649 16.4294C8.97162 16.6524 9.11922 17.1615 8.89627 17.5665C8.67324 17.9716 8.16413 18.1192 7.75909 17.8963L6.13216 17.0007C4.05801 15.8589 2.89197 13.5568 3.18396 11.1994C3.2408 10.7406 3.65886 10.4146 4.11773 10.4715Z" fill="#C2FF16"/>
</svg>
