<svg width="20" height="20" viewBox="0 0 20 20" fill="none" xmlns="http://www.w3.org/2000/svg">
<path d="M14.7969 12.3288C14.8937 12.3863 15.013 12.4537 15.1482 12.53C15.7406 12.8641 16.636 13.3693 17.2494 13.9697C17.6331 14.3452 17.9976 14.8401 18.0639 15.4464C18.1344 16.0911 17.8531 16.6962 17.2888 17.2338C16.3153 18.1612 15.147 18.9045 13.636 18.9045H6.30789C4.79684 18.9045 3.62861 18.1612 2.65512 17.2338C2.09084 16.6962 1.80957 16.0911 1.88004 15.4464C1.94632 14.8401 2.31084 14.3452 2.6945 13.9697C3.30793 13.3693 4.20336 12.8641 4.79572 12.53C4.9309 12.4537 5.0503 12.3863 5.14696 12.3288C8.10043 10.5701 11.8435 10.5701 14.7969 12.3288Z" fill="black"/>
<path d="M5.60913 5.40044C5.60913 2.99091 7.56245 1.0376 9.97197 1.0376C12.3815 1.0376 14.3348 2.99091 14.3348 5.40044C14.3348 7.80998 12.3815 9.76329 9.97197 9.76329C7.56245 9.76329 5.60913 7.80998 5.60913 5.40044Z" fill="black"/>
</svg>
