<svg width="15" height="20" viewBox="0 0 15 20" fill="none" xmlns="http://www.w3.org/2000/svg">
<path d="M11.2673 0.0751426C11.7922 0.153483 12.3635 0.342992 12.6911 0.910382C13.0178 1.47637 12.8984 2.06617 12.7063 2.56136C12.5215 3.0379 12.1938 3.61433 11.8121 4.28565L10.7111 6.22252C10.5029 6.5888 10.3688 6.82576 10.2835 7.00737C10.2194 7.14366 10.2076 7.1995 10.2057 7.20874C10.209 7.31981 10.2676 7.42007 10.3589 7.4766C10.3688 7.47978 10.4229 7.49649 10.568 7.50782C10.7667 7.52336 11.0682 7.5239 11.488 7.5239C11.9768 7.52389 12.3869 7.52388 12.7068 7.54838C13.016 7.57206 13.3803 7.62463 13.6856 7.8276C14.2784 8.2216 14.5867 8.9249 14.4786 9.6273C14.4229 9.9886 14.2179 10.2934 14.0273 10.5393C13.8303 10.7935 13.5546 11.0984 13.2257 11.4621L7.63398 17.6452C7.12108 18.2125 6.68928 18.69 6.33798 18.9963C6.15938 19.152 5.94828 19.3121 5.71288 19.4076C5.45348 19.5129 5.11127 19.5576 4.77137 19.3805C4.43223 19.2038 4.27287 18.8986 4.20948 18.6274C4.15175 18.3804 4.16012 18.1159 4.18375 17.8796C4.23022 17.4148 4.36946 16.785 4.53499 16.0364L5.23325 12.8777C5.37178 12.2512 5.45628 11.8603 5.47788 11.5742C5.50758 11.3384 5.30188 11.2372 5.1953 11.2162C4.91378 11.1754 4.51688 11.1736 3.87804 11.1736H3.36198C2.66909 11.1736 2.06593 11.1737 1.59985 11.1043C1.10677 11.0308 0.578908 10.8544 0.247408 10.3416C-0.0833017 9.8301 -0.0292819 9.2762 0.103658 8.7954C0.229628 8.3399 0.474368 7.7864 0.756048 7.14944L2.60631 2.96448C2.86688 2.37508 3.08599 1.87946 3.30945 1.49142C3.54628 1.08017 3.81992 0.730463 4.21968 0.469313C4.6197 0.207983 5.04952 0.0983525 5.52058 0.0477025C5.96458 -2.75113e-05 6.50458 -1.74423e-05 7.14588 2.5577e-06H9.33358C10.1022 -4.74423e-05 10.7633 -8.74475e-05 11.2673 0.0751426Z" fill="#C2FF16"/>
</svg>
