<svg width="196" height="51" viewBox="0 0 196 51" fill="none" xmlns="http://www.w3.org/2000/svg">
<path d="M181.006 21.6445L183.894 6.77832H190.818C192.078 6.77832 193.083 6.99777 193.834 7.43668C194.598 7.87559 195.122 8.47732 195.405 9.24187C195.688 9.99226 195.738 10.8559 195.554 11.8328C195.356 12.9089 194.938 13.7867 194.301 14.4663C193.664 15.1317 192.8 15.6202 191.71 15.9317C190.62 16.229 189.282 16.3777 187.696 16.3777H185.806L184.765 21.6445H181.006ZM186.337 13.6168H189.331C190.067 13.6168 190.634 13.4752 191.03 13.192C191.441 12.8947 191.71 12.4275 191.837 11.7904C191.965 11.224 191.887 10.778 191.604 10.4524C191.32 10.1126 190.832 9.9427 190.138 9.9427H187.038L186.337 13.6168ZM190.308 21.6445L187.972 16.1016L191.519 15.4432L194.364 21.6445H190.308Z" fill="white"/>
<path d="M171.119 21.8574C169.534 21.8574 168.203 21.5034 167.127 20.7955C166.065 20.0876 165.322 19.1177 164.897 17.886C164.486 16.6542 164.437 15.2525 164.748 13.681C165.046 12.1943 165.591 10.9272 166.383 9.87945C167.176 8.81758 168.182 8.00347 169.399 7.43714C170.631 6.85665 172.061 6.56641 173.689 6.56641C174.864 6.56641 175.898 6.7717 176.79 7.18229C177.682 7.59288 178.404 8.17337 178.956 8.92376C179.508 9.66 179.869 10.5307 180.039 11.536C180.223 12.5271 180.195 13.6172 179.954 14.8065C179.657 16.279 179.119 17.5462 178.34 18.608C177.561 19.6558 176.563 20.4628 175.346 21.0291C174.128 21.5813 172.719 21.8574 171.119 21.8574ZM171.608 18.3744C172.486 18.3744 173.229 18.2328 173.838 17.9497C174.461 17.6665 174.963 17.2347 175.346 16.6542C175.742 16.0595 176.032 15.3162 176.216 14.4243C176.429 13.419 176.436 12.5908 176.238 11.9395C176.054 11.2882 175.693 10.8139 175.155 10.5166C174.631 10.2051 173.958 10.0493 173.137 10.0493C172.259 10.0493 171.509 10.1909 170.886 10.4741C170.277 10.7573 169.774 11.1962 169.378 11.7908C168.996 12.3713 168.713 13.1075 168.528 13.9995C168.33 15.0048 168.323 15.833 168.507 16.4843C168.691 17.1356 169.045 17.617 169.569 17.9284C170.107 18.2258 170.787 18.3744 171.608 18.3744Z" fill="white"/>
<path d="M154.012 21.6445L156.263 10.0489H151.484L152.121 6.77832H165.395L164.758 10.0489H160.001L157.749 21.6445H154.012Z" fill="white"/>
<path d="M134.832 21.6445L143.348 6.77832H147.511L150.42 21.6445H146.512L144.792 10.6223H144.75L139.122 21.6445H134.832ZM139.419 19.0536L140.014 16.1016H147.426L146.831 19.0536H139.419Z" fill="white"/>
<path d="M122.084 21.6445L124.973 6.77832H136.611L135.974 10.0064H128.095L127.585 12.5974H134.636L134.062 15.5494H127.033L126.459 18.3952H134.508L133.871 21.6445H122.084Z" fill="white"/>
<path d="M106.945 21.6445L109.833 6.77832H116.756C118.016 6.77832 119.022 6.99777 119.772 7.43668C120.537 7.87559 121.06 8.47732 121.344 9.24187C121.627 9.99226 121.676 10.8559 121.492 11.8328C121.294 12.9089 120.876 13.7867 120.239 14.4663C119.602 15.1317 118.738 15.6202 117.648 15.9317C116.558 16.229 115.22 16.3777 113.634 16.3777H111.744L110.704 21.6445H106.945ZM112.275 13.6168H115.27C116.006 13.6168 116.572 13.4752 116.969 13.192C117.379 12.8947 117.648 12.4275 117.776 11.7904C117.903 11.224 117.825 10.778 117.542 10.4524C117.259 10.1126 116.77 9.9427 116.077 9.9427H112.976L112.275 13.6168ZM116.247 21.6445L113.91 16.1016L117.457 15.4432L120.303 21.6445H116.247Z" fill="white"/>
<path d="M99.7048 21.8574C98.2181 21.8574 96.9651 21.5247 95.9457 20.8592C94.9405 20.1938 94.2326 19.2452 93.822 18.0134C93.4114 16.7816 93.3689 15.3162 93.6946 13.6172C94.006 11.989 94.5724 10.6582 95.3936 9.6246C96.2289 8.59104 97.2554 7.8265 98.473 7.33095C99.6906 6.82126 101.021 6.56641 102.466 6.56641C102.947 6.56641 103.443 6.6018 103.952 6.67259C104.476 6.74338 104.965 6.83541 105.418 6.94868C105.885 7.06195 106.274 7.18229 106.586 7.30972L107.095 7.52209L105.927 10.4316L105.163 10.283C104.653 10.1839 104.158 10.1131 103.676 10.0706C103.195 10.014 102.72 9.98564 102.253 9.98564C101.418 9.98564 100.668 10.1201 100.002 10.3891C99.3508 10.6582 98.8057 11.0829 98.3668 11.6634C97.9279 12.2297 97.6164 12.9872 97.4324 13.9358C97.2483 14.9694 97.2483 15.8118 97.4324 16.4631C97.6164 17.1143 97.9775 17.6028 98.5155 17.9284C99.0676 18.2399 99.7685 18.3957 100.618 18.3957C101.099 18.3957 101.609 18.3674 102.147 18.3107C102.699 18.2399 103.28 18.1621 103.889 18.0771L104.696 17.9284L105.035 20.7318L104.271 20.9866C103.62 21.2132 102.883 21.4185 102.062 21.6025C101.255 21.7724 100.469 21.8574 99.7048 21.8574Z" fill="white"/>
<path d="M135.623 44.6309L138.511 29.7646H149.087L148.854 30.9539H139.615L138.554 36.4332H146.942L146.709 37.6225H138.32L137.194 43.4416H146.581L146.348 44.6309H135.623Z" fill="white"/>
<path d="M125.93 44.6309L128.585 30.9539H123L123.233 29.7646H135.742L135.508 30.9539H129.923L127.268 44.6309H125.93Z" fill="white"/>
<path d="M111.77 44.6309L113.002 38.2809L108.733 29.7646H110.262L113.83 37.134H113.872L120.265 29.7646H122.07L114.318 38.3871L113.108 44.6309H111.77Z" fill="white"/>
<path d="M93.376 44.6309L96.2643 29.7646H102.508C103.556 29.7646 104.398 29.9345 105.035 30.2743C105.672 30.6 106.111 31.0601 106.352 31.6548C106.593 32.2353 106.621 32.929 106.437 33.7361C106.295 34.4581 105.984 35.1094 105.503 35.6899C105.021 36.2704 104.313 36.6881 103.379 36.9429V36.9641C103.917 37.0633 104.363 37.2898 104.717 37.6437C105.071 37.9835 105.319 38.4012 105.46 38.8968C105.602 39.3923 105.609 39.9445 105.481 40.5533C105.311 41.4028 104.986 42.1319 104.504 42.7407C104.023 43.3495 103.393 43.8168 102.614 44.1424C101.85 44.468 100.937 44.6309 99.8746 44.6309H93.376ZM94.9475 43.4416H99.9384C101.184 43.4416 102.14 43.1938 102.805 42.6983C103.485 42.1886 103.924 41.4311 104.122 40.4259C104.292 39.5622 104.143 38.8684 103.676 38.3446C103.209 37.8066 102.43 37.5376 101.34 37.5376H96.0731L94.9475 43.4416ZM96.3067 36.327H101.574C102.579 36.327 103.372 36.1146 103.952 35.6899C104.533 35.251 104.901 34.6068 105.057 33.7573C105.241 32.922 105.113 32.2494 104.674 31.7397C104.25 31.2159 103.421 30.9539 102.19 30.9539H97.3474L96.3067 36.327Z" fill="white"/>
<path d="M14.9042 8.37705C15.8533 6.73304 17.6072 5.72029 19.5053 5.72029H51.5351L42.8664 20.7367H25.6402C25.3101 20.7367 25.0051 20.9128 24.8401 21.1987L17.1048 34.598C16.7492 35.214 17.1937 35.9841 17.905 35.9841H34.0644L26.1293 49.7299C25.6754 50.5161 24.8365 51.0005 23.9287 51.0005H11.1249C9.22682 51.0005 7.47291 49.9877 6.52386 48.3437L0.711785 38.2757C-0.23726 36.6317 -0.237262 34.6062 0.711781 32.9622L14.9042 8.37705Z" fill="#B4FD30"/>
<path d="M67.6859 42.7992C66.7369 44.4432 64.983 45.456 63.0849 45.456H31.0551L39.7237 30.4396H56.9499C57.28 30.4396 57.585 30.2635 57.7501 29.9775L65.4853 16.5783C65.841 15.9622 65.3964 15.1922 64.6851 15.1922H48.5257L56.4609 1.4464C56.9148 0.660138 57.7536 0.175781 58.6614 0.175781H71.4652C73.3633 0.175781 75.1172 1.18853 76.0663 2.83253L81.8783 12.9006C82.8274 14.5446 82.8274 16.5701 81.8784 18.2141L67.6859 42.7992Z" fill="#B4FD30"/>
<path d="M67.6859 42.7992C66.7369 44.4432 64.983 45.456 63.0849 45.456H31.0551L39.7237 30.4396H56.9499C57.28 30.4396 57.585 30.2635 57.7501 29.9775L65.4853 16.5783C65.841 15.9622 65.3964 15.1922 64.6851 15.1922H48.5257L56.4609 1.4464C56.9148 0.660138 57.7536 0.175781 58.6614 0.175781H71.4652C73.3633 0.175781 75.1172 1.18853 76.0663 2.83253L81.8783 12.9006C82.8274 14.5446 82.8274 16.5701 81.8784 18.2141L67.6859 42.7992Z" fill="url(#paint0_linear_16_1964)"/>
<defs>
<linearGradient id="paint0_linear_16_1964" x1="78.524" y1="34.3092" x2="41.6327" y2="27.5595" gradientUnits="userSpaceOnUse">
<stop offset="0.615939" stop-color="#B4FD30"/>
<stop offset="1" stop-color="#608918"/>
</linearGradient>
</defs>
</svg>
